<svg width="1280" height="88" viewBox="0 0 1280 88" fill="none" xmlns="http://www.w3.org/2000/svg">
<path d="M872.997 86.3613C872.555 86.3613 872.129 86.1128 871.908 85.7044L865.733 74.8915L855.017 81.3544C854.574 81.6207 854.013 81.5852 853.605 81.2656C853.197 80.946 853.01 80.3779 853.146 79.863L859.865 53.6919C860.052 52.9817 860.749 52.5556 861.43 52.7509C862.11 52.9462 862.518 53.6742 862.331 54.3844L856.378 77.4483L865.529 71.9442C866.125 71.5713 866.907 71.7844 867.264 72.4236L872.538 81.674L877.811 61.4687C877.998 60.7585 878.695 60.3501 879.376 60.5277C880.056 60.723 880.464 61.4509 880.277 62.1611L874.222 85.3848C874.086 85.8997 873.677 86.2726 873.167 86.3613C873.099 86.3613 873.048 86.3613 872.997 86.3613Z" fill="#A19F9D"/>
<path d="M887.812 86.3609C887.761 86.3609 887.693 86.3609 887.642 86.3432C887.132 86.2721 886.723 85.8815 886.587 85.3666L880.532 62.1429C880.345 61.4327 880.753 60.7048 881.433 60.5095C882.114 60.3142 882.811 60.7403 882.998 61.4505L888.271 81.6558L893.545 72.4054C893.902 71.784 894.667 71.5709 895.28 71.926L904.431 77.4301L898.512 54.3662C898.325 53.656 898.733 52.928 899.413 52.7327C900.094 52.5374 900.791 52.9636 900.978 53.6738L907.697 79.8448C907.834 80.3597 907.646 80.9101 907.238 81.2474C906.83 81.5848 906.269 81.6203 905.826 81.3362L895.11 74.8734L888.935 85.6862C888.68 86.1301 888.254 86.3609 887.812 86.3609Z" fill="#A19F9D"/>
<path d="M880.328 54.6859C868.183 54.6859 858.283 44.3702 858.283 31.6753C858.283 18.9804 868.166 8.6825 880.328 8.6825C892.491 8.6825 902.374 18.9981 902.374 31.693C902.374 44.3879 892.474 54.6859 880.328 54.6859ZM880.328 11.3458C869.578 11.3458 860.834 20.4718 860.834 31.693C860.834 42.9143 869.578 52.0226 880.328 52.0226C891.079 52.0226 899.822 42.8965 899.822 31.6753C899.822 20.4541 891.062 11.3458 880.328 11.3458Z" fill="#A19F9D"/>
<path d="M880.328 62.9777C863.794 62.9777 850.356 48.9334 850.356 31.6932C850.356 14.453 863.794 0.390991 880.328 0.390991C896.862 0.390991 910.3 14.4353 910.3 31.6755C910.3 48.9157 896.845 62.9777 880.328 62.9777ZM880.328 3.05425C865.206 3.05425 852.907 15.8912 852.907 31.6755C852.907 47.4597 865.206 60.2967 880.328 60.2967C895.451 60.2967 907.748 47.4597 907.748 31.6755C907.748 15.8912 895.451 3.05425 880.328 3.05425Z" fill="#A19F9D"/>
<path d="M874.97 40.2511H871.024V27.1301L867.145 28.3197V25.2126L874.613 22.5138H874.97V40.2511Z" fill="#0094D4"/>
<path d="M891.964 40.2508H880.107V37.5698L885.568 31.5686C886.912 29.9706 887.592 28.6922 887.592 27.7512C887.592 26.9877 887.439 26.4018 887.116 26.0112C886.793 25.6206 886.333 25.4075 885.721 25.4075C885.126 25.4075 884.632 25.6739 884.258 26.2065C883.884 26.7392 883.697 27.3961 883.697 28.1951H879.75C879.75 27.112 880.005 26.1 880.533 25.1767C881.06 24.2535 881.774 23.5432 882.71 23.0106C883.629 22.4957 884.666 22.2294 885.823 22.2294C887.66 22.2294 889.072 22.6732 890.076 23.561C891.079 24.4488 891.573 25.7094 891.573 27.3783C891.573 28.0708 891.453 28.7632 891.198 29.4202C890.943 30.0771 890.569 30.7696 890.042 31.4975C889.514 32.2255 888.664 33.202 887.507 34.4094L885.313 37.0549H891.998V40.2508H891.964Z" fill="#0094D4"/>
<path d="M739.974 43.8734C739.174 43.8734 738.443 43.6958 737.797 43.323C737.15 42.9501 736.623 42.4352 736.215 41.7605C735.942 41.2989 735.738 40.8017 735.619 40.2336C735.534 39.8075 735.483 39.3458 735.483 38.8842C735.483 38.7421 735.5 38.4758 735.517 38.0852C735.534 37.6946 735.636 37.1442 735.823 36.4517C736.011 35.7593 736.283 35.0313 736.623 34.2856L737.95 34.9426C737.371 36.1854 737.048 37.3217 736.963 38.3515C736.946 38.5113 736.946 38.6889 736.946 38.8487C736.946 39.6654 737.116 40.3756 737.473 40.9615C737.729 41.4054 738.086 41.7428 738.511 41.9736C738.936 42.2044 739.447 42.3287 739.991 42.3287H741.811C742.406 42.3287 742.883 42.2577 743.257 42.1334C743.631 42.0091 743.92 41.8138 744.125 41.583C744.329 41.3521 744.482 41.0681 744.55 40.7307C744.618 40.3934 744.669 40.0205 744.669 39.6122V33.966H746.115V36.6648C746.115 36.9489 746.183 37.1797 746.285 37.3573C746.387 37.5348 746.54 37.6413 746.693 37.7301C746.761 37.6236 746.812 37.517 746.88 37.4105C746.948 37.304 746.999 37.1975 747.084 37.0909C747.254 36.7536 747.459 36.3985 747.68 36.0434C747.901 35.6883 748.122 35.3332 748.377 34.9958C748.615 34.6585 748.87 34.3389 749.143 34.037C749.415 33.7352 749.687 33.4689 749.993 33.2381C750.299 33.0073 750.606 32.8297 750.946 32.7054C751.286 32.5811 751.626 32.5101 752.017 32.5101C752.392 32.5101 752.766 32.5811 753.123 32.7232C753.48 32.8652 753.804 33.096 754.093 33.3979C754.382 33.6997 754.603 34.0903 754.79 34.5519C754.96 35.0136 755.045 35.564 755.045 36.2032C755.045 36.5583 755.011 36.8779 754.943 37.1619C754.875 37.446 754.773 37.6946 754.654 37.9254H756.27V39.4524H747.493C747.237 39.4524 746.999 39.4346 746.761 39.3636C746.523 39.3103 746.302 39.2393 746.098 39.1328V39.6299C746.098 42.4707 744.669 43.8911 741.794 43.8911H739.974V43.8734ZM751.983 37.9077C752.477 37.8899 752.868 37.7301 753.14 37.446C753.412 37.1619 753.548 36.7358 753.548 36.2032C753.548 35.5285 753.412 34.9958 753.14 34.6052C752.868 34.2324 752.477 34.037 751.983 34.037C751.745 34.037 751.507 34.0903 751.286 34.2146C751.065 34.3389 750.827 34.4809 750.623 34.6762C750.401 34.8715 750.197 35.0846 749.993 35.3509C749.789 35.5995 749.585 35.8836 749.398 36.1677C749.211 36.4517 749.007 36.7536 748.836 37.0554C748.649 37.3573 748.479 37.6591 748.309 37.9432H751.983V37.9077ZM750.725 29.403L752.034 28.0181L753.378 29.4207L752.051 30.8056L750.725 29.403Z" fill="#605E5C"/>
<path d="M761.237 32.8652C761.254 32.9007 761.271 32.9895 761.305 33.1316C761.339 33.2736 761.373 33.4512 761.407 33.6465C761.441 33.8595 761.492 34.0903 761.543 34.3389C761.594 34.5875 761.628 34.8361 761.662 35.1024C761.696 35.3509 761.73 35.5995 761.747 35.8481C761.781 36.0789 761.781 36.292 761.781 36.4695C761.781 36.9844 761.696 37.4283 761.543 37.8012C761.373 38.174 761.169 38.4758 760.913 38.7244C760.658 38.973 760.352 39.1505 760.029 39.2748C759.706 39.3991 759.382 39.4524 759.042 39.4524H755.844V37.9254H759.042C759.11 37.9254 759.229 37.9077 759.365 37.8899C759.502 37.8722 759.655 37.8011 759.791 37.7124C759.927 37.6236 760.063 37.4638 760.165 37.2685C760.267 37.0732 760.318 36.8069 760.318 36.4695C760.318 36.3452 760.318 36.2032 760.284 36.0256C760.267 35.8481 760.25 35.6528 760.216 35.4397C760.182 35.2267 760.148 35.0136 760.114 34.8005C760.08 34.5875 760.046 34.3744 760.012 34.1791C759.978 33.9838 759.944 33.8063 759.91 33.6642C759.876 33.5222 759.859 33.3979 759.842 33.3269L761.237 32.8652ZM758.923 42.524L757.664 43.8379L756.457 42.524L757.681 41.2279L758.923 42.524ZM761.883 42.5063L760.624 43.8201L759.417 42.5063L760.641 41.2101L761.883 42.5063Z" fill="#605E5C"/>
<path d="M764.741 42.3641C765.524 42.3641 766.17 42.2931 766.698 42.1866C767.225 42.0623 767.65 41.867 767.956 41.6184C768.229 41.3876 768.416 41.1035 768.552 40.7484C768.671 40.3933 768.739 39.9672 768.739 39.4346H767.31C766.953 39.4346 766.579 39.3813 766.204 39.257C765.83 39.1505 765.49 38.9552 765.201 38.7066C764.895 38.4403 764.656 38.1029 764.469 37.6946C764.282 37.2862 764.18 36.7713 764.18 36.1676C764.18 35.8125 764.214 35.4929 764.265 35.2088C764.316 34.9248 764.401 34.6584 764.486 34.4454C764.571 34.2146 764.673 34.0192 764.775 33.8594C764.878 33.6997 764.997 33.5576 765.099 33.4333C765.388 33.1315 765.711 32.9007 766.068 32.7409C766.426 32.5811 766.834 32.4923 767.242 32.4923C767.599 32.4923 767.956 32.5456 768.263 32.6699C768.586 32.7941 768.875 32.9717 769.113 33.2025C769.811 33.8772 770.151 34.9425 770.151 36.3984V37.9254H771.308V39.4523H770.151C770.151 40.2158 770.049 40.8727 769.828 41.4231C769.606 41.9735 769.283 42.4352 768.841 42.808C768.382 43.1809 767.82 43.4472 767.157 43.6425C766.494 43.8378 765.66 43.9088 764.707 43.9088V42.3641H764.741ZM767.191 34.0015C766.681 34.0015 766.289 34.1968 766 34.5697C765.711 34.9425 765.575 35.4752 765.575 36.1676C765.575 36.8601 765.779 37.3394 766.17 37.6058C766.272 37.6768 766.374 37.7301 766.477 37.7656C766.579 37.8011 766.681 37.8366 766.783 37.8543C766.885 37.8721 766.97 37.8899 767.055 37.8899C767.14 37.8899 767.208 37.9076 767.259 37.9076H768.688V36.3807C768.688 35.9901 768.654 35.6527 768.603 35.3864C768.552 35.1201 768.467 34.8892 768.382 34.7117C768.297 34.5341 768.195 34.3921 768.076 34.3033C767.973 34.2146 767.854 34.1435 767.752 34.0903C767.65 34.0548 767.548 34.0192 767.446 34.0192C767.344 34.0192 767.242 34.0015 767.191 34.0015Z" fill="#605E5C"/>
<path d="M778.197 39.4346C778.112 39.4346 778.01 39.4168 777.891 39.399C777.772 39.3813 777.653 39.328 777.482 39.257C777.329 39.186 777.142 39.0794 776.955 38.9552C776.751 38.8309 776.513 38.6533 776.258 38.4403C775.662 38.7776 774.965 39.0262 774.165 39.186C773.366 39.3458 772.481 39.4168 771.495 39.4168H771.052V37.8899H771.495C772.243 37.8899 772.907 37.8543 773.485 37.7478C774.063 37.659 774.574 37.5348 774.982 37.3572C774.71 37.1264 774.455 36.8778 774.182 36.6292C773.91 36.3807 773.672 36.1321 773.451 35.919C773.23 35.6882 773.043 35.4929 772.873 35.3331C772.702 35.1733 772.6 35.049 772.549 34.9958V34.6762C772.549 34.5697 772.549 34.4631 772.566 34.3388C772.583 34.2146 772.6 34.0903 772.634 33.966C772.668 33.8417 772.719 33.6997 772.77 33.5754C772.839 33.4511 772.907 33.309 773.026 33.1848C773.417 32.7231 774.046 32.4923 774.897 32.4923H777.448C777.874 32.4923 778.265 32.5988 778.605 32.8119C778.945 33.025 779.2 33.3268 779.371 33.7174C779.49 33.966 779.541 34.2146 779.541 34.4454C779.541 34.6939 779.49 34.9248 779.405 35.1556C779.32 35.3864 779.2 35.5994 779.064 35.8125C778.911 36.0256 778.758 36.2386 778.588 36.4339C778.418 36.6292 778.231 36.8246 778.044 37.0021C777.857 37.1797 777.687 37.3394 777.533 37.4992C777.653 37.5703 777.755 37.6413 777.823 37.6946C777.908 37.7478 777.976 37.7833 778.027 37.8188C778.078 37.8543 778.129 37.8721 778.146 37.8721C778.18 37.8721 778.197 37.8899 778.197 37.8899H781.021V39.4168H778.197V39.4346ZM774.012 34.3921C774.114 34.4986 774.267 34.6407 774.438 34.8182C774.625 34.9958 774.829 35.1911 775.05 35.4041C775.271 35.6172 775.492 35.8303 775.713 36.0256C775.934 36.2209 776.139 36.4162 776.326 36.576C776.598 36.3452 776.87 36.0966 777.125 35.848C777.38 35.5817 777.635 35.2976 777.891 34.9603C777.942 34.8892 777.993 34.8005 778.044 34.6939C778.061 34.6584 778.061 34.6229 778.061 34.5697C778.061 34.4986 778.044 34.4454 778.01 34.3743C777.976 34.3033 777.908 34.2146 777.806 34.1435C777.704 34.0725 777.584 34.037 777.414 34.037H774.863C774.71 34.037 774.591 34.037 774.489 34.0548C774.386 34.0725 774.318 34.0903 774.25 34.108C774.182 34.1258 774.148 34.1435 774.114 34.1613C774.08 34.179 774.063 34.1968 774.063 34.2146C774.046 34.2323 774.029 34.2501 774.029 34.2678C774.046 34.3211 774.029 34.3566 774.012 34.3921Z" fill="#605E5C"/>
<path d="M784.933 32.8648C784.95 32.9003 784.967 32.9891 785.002 33.1311C785.036 33.2731 785.07 33.4507 785.104 33.646C785.138 33.8591 785.189 34.0899 785.24 34.3384C785.291 34.587 785.325 34.8356 785.359 35.1019C785.393 35.3505 785.427 35.5991 785.444 35.8476C785.478 36.0784 785.478 36.2915 785.478 36.4691C785.478 36.984 785.393 37.4278 785.24 37.8007C785.07 38.1735 784.865 38.4754 784.61 38.724C784.355 38.9725 784.049 39.1501 783.726 39.2744C783.403 39.3987 783.079 39.4519 782.739 39.4519H779.541V37.925H782.739C782.807 37.925 782.926 37.9072 783.062 37.8895C783.198 37.8717 783.351 37.8007 783.488 37.7119C783.624 37.6231 783.76 37.4633 783.862 37.268C783.964 37.0727 784.015 36.8064 784.015 36.4691C784.015 36.3448 784.015 36.2027 783.981 36.0252C783.964 35.8476 783.947 35.6523 783.913 35.4393C783.879 35.2262 783.845 35.0131 783.811 34.8001C783.777 34.587 783.743 34.374 783.709 34.1786C783.675 33.9833 783.641 33.8058 783.607 33.6638C783.573 33.5217 783.556 33.3974 783.539 33.3264L784.933 32.8648ZM781.838 31.1248L780.613 29.8286L781.821 28.5148L783.079 29.8286L781.838 31.1248ZM784.797 31.1425L783.573 29.8464L784.78 28.5325L786.039 29.8464L784.797 31.1425Z" fill="#605E5C"/>
<path d="M809.241 37.9072V39.4163H809.003C808.629 39.4163 808.271 39.3631 807.931 39.2388C807.591 39.1323 807.302 38.9547 807.03 38.7416C806.996 38.7239 806.962 38.6884 806.945 38.6529C806.911 38.6174 806.877 38.5996 806.86 38.5641C806.315 39.1323 805.516 39.4163 804.495 39.4163H795.718C795.344 39.4163 795.003 39.3453 794.68 39.221C794.357 39.0967 794.068 38.9014 793.83 38.6706C793.728 38.5819 793.626 38.4576 793.524 38.3155C793.421 38.1735 793.319 38.0137 793.234 37.8184C793.149 37.6231 793.081 37.41 793.03 37.1792C792.979 36.9484 792.945 36.6643 792.945 36.3625C792.945 36.0961 792.979 35.7943 793.03 35.4747C793.081 35.1551 793.149 34.8533 793.2 34.5514C793.268 34.2674 793.319 34.0188 793.387 33.8057C793.455 33.5927 793.489 33.4684 793.506 33.4151L794.901 33.8767C794.867 33.9833 794.816 34.1431 794.765 34.3561C794.714 34.5692 794.663 34.7823 794.595 35.0308C794.544 35.2616 794.493 35.5102 794.459 35.741C794.425 35.9718 794.408 36.1849 794.408 36.3625C794.408 36.7176 794.459 37.0016 794.578 37.197C794.697 37.3923 794.816 37.5521 794.952 37.6586C795.106 37.7651 795.242 37.8184 795.395 37.8539C795.548 37.8894 795.65 37.8894 795.735 37.8894H804.444C804.818 37.8894 805.125 37.8539 805.346 37.7651C805.567 37.6941 805.737 37.5876 805.856 37.4633C805.975 37.339 806.043 37.197 806.077 37.0549C806.111 36.9129 806.128 36.7708 806.128 36.6288V33.8235H807.591V36.5755C807.591 36.8774 807.659 37.1259 807.778 37.3035C807.897 37.481 808.051 37.6053 808.221 37.6941C808.391 37.7829 808.544 37.8361 808.697 37.8539C808.85 37.8716 808.952 37.8894 809.02 37.8894H809.241V37.9072ZM798.678 33.2376L797.453 31.9414L798.661 30.6276L799.919 31.9414L798.678 33.2376ZM801.638 33.2553L800.43 31.9592L801.638 30.6453L802.879 31.9592L801.638 33.2553Z" fill="#605E5C"/>
<path d="M813.017 32.8648C813.034 32.9003 813.051 32.9891 813.085 33.1312C813.119 33.2732 813.153 33.4507 813.187 33.646C813.221 33.8591 813.272 34.0899 813.323 34.3385C813.374 34.5871 813.408 34.8356 813.442 35.102C813.476 35.3505 813.51 35.5991 813.527 35.8477C813.561 36.0785 813.561 36.2916 813.561 36.4691C813.561 36.984 813.476 37.4279 813.323 37.8007C813.153 38.1736 812.949 38.4754 812.694 38.724C812.439 38.9726 812.132 39.1501 811.809 39.2744C811.486 39.3987 811.163 39.452 810.823 39.452H808.849V37.925H810.823C810.891 37.925 811.01 37.9073 811.146 37.8895C811.282 37.8718 811.435 37.8007 811.571 37.712C811.707 37.6232 811.843 37.4634 811.945 37.2681C812.047 37.0728 812.098 36.8065 812.098 36.4691C812.098 36.3448 812.098 36.2028 812.064 36.0252C812.047 35.8477 812.03 35.6524 811.996 35.4393C811.962 35.2263 811.928 35.0132 811.894 34.8001C811.86 34.5871 811.826 34.374 811.792 34.1787C811.758 33.9834 811.724 33.8058 811.69 33.6638C811.656 33.5218 811.639 33.3975 811.622 33.3265L813.017 32.8648ZM810.465 29.5269L811.775 28.142L813.119 29.5446L811.792 30.9295L810.465 29.5269Z" fill="#605E5C"/>
<path d="M819.074 39.4344C818.529 39.4344 818.087 39.3812 817.73 39.3102C817.372 39.2391 817.083 39.1326 816.828 38.9906C816.59 38.8485 816.386 38.6887 816.233 38.4757C816.08 38.2626 815.978 38.0318 815.893 37.7477C815.807 37.4636 815.756 37.1618 815.722 36.8244C815.705 36.4871 815.688 36.0965 815.688 35.6704V27.9114H817.151V35.6704C817.151 36.132 817.168 36.5226 817.185 36.8067C817.219 37.0908 817.287 37.3216 817.406 37.4814C817.526 37.6412 817.713 37.7477 817.951 37.801C818.189 37.8542 818.563 37.8897 819.04 37.8897V39.4344H819.074Z" fill="#605E5C"/>
<path d="M827.85 39.4344C827.476 39.4344 827.136 39.3812 826.813 39.2569C826.489 39.1504 826.2 38.9906 825.928 38.7775C825.792 39.0083 825.639 39.1859 825.469 39.3279C825.299 39.47 825.128 39.5765 824.975 39.6475C824.805 39.7185 824.652 39.7718 824.499 39.7895C824.346 39.8073 824.21 39.8251 824.091 39.8251C823.836 39.8251 823.598 39.8073 823.359 39.754C823.121 39.7008 822.883 39.6297 822.645 39.5232C822.407 39.4167 822.152 39.2924 821.879 39.1504C821.607 39.0083 821.318 38.8485 820.995 38.6532C820.57 39.1681 820.025 39.4344 819.362 39.4344H818.767V37.9075H819.362C819.566 37.9075 819.719 37.8365 819.838 37.6767C819.957 37.5169 820.076 37.3216 820.161 37.0908C820.246 36.8422 820.332 36.5759 820.417 36.2563C820.502 35.9367 820.587 35.6171 820.689 35.2975C820.791 34.9779 820.91 34.6406 821.046 34.3387C821.182 34.0191 821.369 33.7528 821.573 33.5042C821.794 33.2557 822.05 33.0604 822.356 32.9183C822.662 32.7763 823.036 32.6875 823.478 32.6875C823.989 32.6875 824.414 32.794 824.788 32.9893C825.162 33.1846 825.469 33.4687 825.724 33.8061C825.979 34.1434 826.149 34.534 826.285 34.9779C826.404 35.4218 826.472 35.8834 826.472 36.3451C826.472 36.7002 826.54 36.9842 826.659 37.1795C826.778 37.3926 826.915 37.5524 827.085 37.6412C827.238 37.7477 827.391 37.8187 827.544 37.8365C827.697 37.872 827.799 37.872 827.85 37.872H828.122V39.3989H827.85V39.4344ZM824.091 38.2981C824.125 38.2981 824.176 38.2981 824.244 38.2981C824.312 38.2981 824.38 38.2804 824.448 38.2271C824.516 38.1738 824.601 38.1383 824.669 38.0495C824.737 37.9608 824.805 37.8542 824.873 37.7122C824.941 37.5702 824.975 37.3926 825.026 37.1618C825.06 36.931 825.077 36.6646 825.077 36.3451C825.077 36.2918 825.077 36.1853 825.06 36.061C825.043 35.9367 825.026 35.7946 824.992 35.6348C824.958 35.4751 824.907 35.3153 824.839 35.1377C824.771 34.9779 824.669 34.8181 824.55 34.6761C824.431 34.534 824.295 34.4275 824.125 34.3387C823.955 34.25 823.751 34.2144 823.512 34.2144C823.291 34.2144 823.087 34.25 822.934 34.3387C822.781 34.4275 822.645 34.534 822.543 34.6761C822.441 34.8181 822.339 34.9957 822.271 35.191C822.203 35.3863 822.135 35.5993 822.067 35.8302C821.999 36.061 821.948 36.2918 821.879 36.5404C821.811 36.7889 821.743 37.0375 821.658 37.2861C821.93 37.4281 822.169 37.5524 822.407 37.6767C822.628 37.801 822.849 37.9075 823.036 37.9963C823.24 38.0851 823.41 38.1561 823.598 38.2093C823.751 38.2626 823.921 38.2981 824.091 38.2981Z" fill="#605E5C"/>
<path d="M827.817 39.4346V37.9077H829.161C829.518 37.9077 829.807 37.8722 830.028 37.8011C830.249 37.7301 830.402 37.6236 830.521 37.5171C830.641 37.3928 830.709 37.2685 830.743 37.1264C830.777 36.9844 830.794 36.8424 830.794 36.7181V33.9838H832.239V36.6471C832.239 36.9489 832.308 37.1797 832.427 37.3573C832.546 37.5348 832.682 37.6413 832.835 37.7301C832.903 37.6236 832.954 37.5171 833.022 37.4283C833.073 37.3217 833.141 37.2152 833.209 37.1087C833.413 36.7713 833.617 36.4162 833.838 36.0611C834.06 35.706 834.281 35.3509 834.536 35.0136C834.791 34.6762 835.029 34.3566 835.301 34.0548C835.573 33.753 835.846 33.4866 836.152 33.2736C836.458 33.0428 836.764 32.8652 837.104 32.7409C837.445 32.6166 837.802 32.5456 838.176 32.5456C838.55 32.5456 838.924 32.6166 839.282 32.7587C839.639 32.9007 839.962 33.1138 840.251 33.4156C840.54 33.7175 840.762 34.0903 840.932 34.552C841.102 35.0136 841.187 35.564 841.187 36.2032C841.187 36.8069 841.085 37.304 840.898 37.7124C840.711 38.1207 840.472 38.4581 840.166 38.7244C839.86 38.9907 839.537 39.1683 839.163 39.2748C838.788 39.3813 838.431 39.4524 838.057 39.4524H833.634C833.26 39.4524 832.92 39.3991 832.58 39.2748C832.257 39.1505 831.95 38.9907 831.712 38.7777C831.644 38.7244 831.593 38.6711 831.542 38.6179C831.27 38.8842 830.947 39.0973 830.555 39.2215C830.164 39.3636 829.722 39.4346 829.212 39.4346H827.817ZM838.057 37.9077C838.312 37.9077 838.533 37.8722 838.737 37.8011C838.941 37.7301 839.129 37.6236 839.265 37.4815C839.418 37.3395 839.52 37.162 839.605 36.9489C839.69 36.7358 839.724 36.4873 839.724 36.2032C839.724 35.5107 839.588 34.9781 839.299 34.6052C839.01 34.2324 838.635 34.0371 838.142 34.0371C837.785 34.0371 837.428 34.1613 837.087 34.4099C836.747 34.6585 836.424 34.9603 836.118 35.3332C835.812 35.706 835.506 36.1322 835.216 36.5938C834.927 37.0554 834.672 37.4993 834.417 37.9254H838.057V37.9077ZM836.679 29.4385L837.989 28.0536L839.333 29.4562L838.006 30.8411L836.679 29.4385Z" fill="#605E5C"/>
<path d="M785.136 59.2488C785.323 59.2488 785.51 59.2133 785.664 59.1423C785.834 59.0713 785.97 58.9825 786.089 58.8582C786.31 58.6096 786.429 58.2723 786.429 57.8462V57.7574C786.429 57.6864 786.412 57.5976 786.412 57.4911C786.412 57.3845 786.395 57.2602 786.378 57.1182C786.361 56.9762 786.344 56.8519 786.327 56.7098C786.31 56.5678 786.293 56.408 786.259 56.2482C786.225 56.0884 786.208 55.9109 786.174 55.7156C786.14 55.5202 786.106 55.3072 786.072 55.0764L787.484 54.8278C787.535 55.0586 787.569 55.2717 787.603 55.467C787.637 55.6623 787.671 55.8398 787.688 56.0174C787.739 56.3547 787.79 56.6743 787.824 56.9762C787.858 57.278 787.875 57.5088 787.892 57.6864V57.8462C787.892 58.0592 787.875 58.2723 787.841 58.4853C787.807 58.6984 787.756 58.8937 787.671 59.0713C787.603 59.2488 787.518 59.4264 787.433 59.5507C787.348 59.6927 787.246 59.7992 787.16 59.9058C786.905 60.1898 786.599 60.4029 786.259 60.5449C785.919 60.687 785.544 60.7758 785.153 60.7758H775.457C775.1 60.7758 774.76 60.7047 774.437 60.5805C774.113 60.4562 773.824 60.2609 773.586 60.03C773.484 59.9413 773.382 59.817 773.28 59.6749C773.178 59.5329 773.076 59.3731 772.991 59.1778C772.906 58.9825 772.838 58.7694 772.787 58.5386C772.736 58.29 772.719 58.0237 772.719 57.7219C772.719 57.4556 772.736 57.1537 772.787 56.8341C772.838 56.5145 772.889 56.2127 772.957 55.9109C773.025 55.609 773.076 55.3782 773.144 55.1651C773.212 54.9521 773.246 54.8278 773.263 54.7745L774.658 55.2362C774.624 55.3427 774.59 55.5025 774.522 55.7156C774.471 55.9286 774.42 56.1417 774.369 56.3902C774.318 56.6211 774.267 56.8696 774.233 57.1005C774.198 57.3313 774.181 57.5443 774.181 57.7219C774.181 58.077 774.233 58.3611 774.352 58.5564C774.471 58.7517 774.59 58.9115 774.726 59.018C774.879 59.1245 775.015 59.1778 775.168 59.2133C775.321 59.2311 775.423 59.2488 775.508 59.2488H785.136ZM778.808 54.5437L777.584 53.2476L778.791 51.9337L780.05 53.2476L778.808 54.5437ZM781.768 54.5615L780.543 53.2653L781.751 51.9515L783.01 53.2653L781.768 54.5615Z" fill="#605E5C"/>
<path d="M789.373 59.2137H793.54C794.017 59.2137 794.391 59.1781 794.646 59.1071C794.918 59.0361 795.122 58.9296 795.258 58.7698C795.36 58.6632 795.446 58.5212 795.48 58.3437C795.531 58.1661 795.548 57.9175 795.548 57.5979V49.2175H796.993V57.5979C796.993 58.6632 796.704 59.4622 796.109 59.9771C795.531 60.492 794.663 60.7406 793.506 60.7406H789.339V59.2137H789.373ZM790.342 57.7755L789.883 49.5371L791.329 49.3596L791.805 57.7755H790.342Z" fill="#605E5C"/>
<path d="M800.292 63.6703C801.075 63.6703 801.721 63.5993 802.249 63.4927C802.776 63.3685 803.201 63.1732 803.507 62.9246C803.78 62.6938 803.967 62.4097 804.103 62.0546C804.222 61.6995 804.29 61.2734 804.29 60.7407H802.861C802.504 60.7407 802.13 60.6874 801.755 60.5632C801.381 60.4566 801.041 60.2613 800.752 60.0127C800.446 59.7464 800.207 59.4091 800.02 59.0007C799.833 58.5923 799.731 58.0774 799.731 57.4738C799.731 57.1187 799.765 56.7991 799.816 56.515C799.867 56.2309 799.952 55.9646 800.037 55.7515C800.122 55.5207 800.224 55.3254 800.326 55.1656C800.429 55.0058 800.548 54.8638 800.65 54.7395C800.939 54.4376 801.262 54.2068 801.619 54.047C801.976 53.8872 802.385 53.7985 802.793 53.7985C803.15 53.7985 803.507 53.8517 803.814 53.976C804.137 54.1003 804.426 54.2778 804.664 54.5087C805.362 55.1834 805.702 56.2487 805.702 57.7046V59.2315H806.858V60.7585H805.702C805.702 61.5219 805.6 62.1789 805.379 62.7293C805.157 63.2797 804.834 63.7413 804.392 64.1142C803.933 64.487 803.371 64.7534 802.708 64.9487C802.045 65.144 801.211 65.215 800.258 65.215V63.6703H800.292ZM802.742 55.3076C802.232 55.3076 801.84 55.503 801.551 55.8758C801.262 56.2487 801.126 56.7813 801.126 57.4738C801.126 58.1662 801.33 58.6456 801.721 58.9119C801.823 58.983 801.925 59.0362 802.027 59.0717C802.13 59.1072 802.232 59.1427 802.334 59.1605C802.436 59.1783 802.521 59.196 802.606 59.196C802.691 59.196 802.759 59.2138 802.81 59.2138H804.239V57.6868C804.239 57.2962 804.205 56.9589 804.154 56.6925C804.103 56.4262 804.018 56.1954 803.933 56.0179C803.848 55.8403 803.746 55.6983 803.626 55.6095C803.524 55.5207 803.405 55.4497 803.303 55.3964C803.201 55.3609 803.099 55.3254 802.997 55.3254C802.895 55.3254 802.81 55.3076 802.742 55.3076Z" fill="#605E5C"/>
<path d="M806.603 60.7404V59.2135H807.947C808.304 59.2135 808.594 59.178 808.815 59.1069C809.036 59.0359 809.189 58.9294 809.308 58.8229C809.427 58.6986 809.495 58.5743 809.529 58.4323C809.563 58.2902 809.58 58.1482 809.58 58.0239V55.2896H811.026V57.9529C811.026 58.2547 811.094 58.4855 811.213 58.6631C811.332 58.8406 811.468 58.9471 811.621 59.0359C811.689 58.9294 811.741 58.8229 811.809 58.7341C811.877 58.6276 811.928 58.521 811.996 58.4145C812.2 58.0772 812.404 57.722 812.625 57.3669C812.846 57.0118 813.067 56.6567 813.322 56.3194C813.561 55.9821 813.816 55.6625 814.088 55.3606C814.36 55.0588 814.632 54.7925 814.938 54.5794C815.228 54.3486 815.551 54.171 815.891 54.0467C816.231 53.9225 816.588 53.8514 816.963 53.8514C817.337 53.8514 817.711 53.9225 818.069 54.0645C818.426 54.2065 818.749 54.4196 819.038 54.7214C819.327 55.0233 819.548 55.3961 819.718 55.8578C819.889 56.3194 819.974 56.8698 819.974 57.509C819.974 57.8641 819.94 58.1837 819.872 58.4678C819.803 58.7518 819.701 59.0004 819.582 59.2312H821.181V60.7582H812.438C812.064 60.7582 811.723 60.7049 811.383 60.5806C811.043 60.4563 810.754 60.2965 810.516 60.0835C810.448 60.0302 810.397 59.9769 810.346 59.9237C810.073 60.19 809.75 60.4031 809.359 60.5273C808.968 60.6694 808.526 60.7404 808.015 60.7404H806.603ZM816.929 59.2135C817.048 59.2135 817.201 59.1957 817.388 59.1425C817.575 59.0892 817.745 59.0359 817.915 58.9116C818.119 58.7696 818.256 58.592 818.375 58.3435C818.477 58.1127 818.528 57.8108 818.528 57.4735C818.528 56.781 818.392 56.2484 818.103 55.8755C817.813 55.5027 817.439 55.3074 816.946 55.3074C816.708 55.3074 816.47 55.3606 816.248 55.4672C816.027 55.5737 815.806 55.7335 815.585 55.911C815.364 56.1063 815.16 56.3194 814.938 56.568C814.735 56.8165 814.53 57.0829 814.343 57.3669C814.156 57.651 813.969 57.9529 813.782 58.2547C813.595 58.5565 813.425 58.8584 813.254 59.1425L813.237 59.178H816.929V59.2135Z" fill="#605E5C"/>
<path d="M831.338 57.509C831.304 57.5267 831.185 57.6155 830.947 57.7753C830.726 57.9351 830.42 58.1304 830.045 58.3612C830.096 58.5565 830.198 58.7163 830.318 58.8229C830.437 58.9294 830.573 59.0182 830.709 59.0714C830.845 59.1247 830.981 59.1602 831.1 59.178C831.219 59.1957 831.304 59.1957 831.355 59.1957H832.988V60.7227H831.372C830.998 60.7227 830.641 60.6694 830.318 60.5451C829.994 60.4208 829.688 60.261 829.433 60.0302C829.127 59.7639 828.906 59.4443 828.753 59.0714C828.361 59.2845 827.936 59.4798 827.477 59.6751C827.017 59.8704 826.558 60.048 826.065 60.19C825.572 60.3675 825.078 60.4918 824.568 60.5984C824.058 60.6871 823.547 60.7404 823.037 60.7404H820.86V59.2135H823.037C823.615 59.2135 824.194 59.1424 824.789 59.0004C825.384 58.8584 825.946 58.6808 826.49 58.4678C827.034 58.2547 827.545 58.0239 828.038 57.7753C828.514 57.5267 828.94 57.2959 829.297 57.0651C828.804 56.852 828.293 56.6567 827.8 56.4437C827.307 56.2484 826.847 56.0708 826.439 55.911C826.031 55.7512 825.674 55.6269 825.367 55.5382C825.078 55.4494 824.874 55.3784 824.772 55.3606C824.687 55.3606 824.585 55.3606 824.5 55.3784C824.398 55.3961 824.313 55.4494 824.211 55.5204C824.126 55.6092 824.024 55.7335 823.939 55.8933C823.854 56.0531 823.768 56.3016 823.683 56.6035L822.272 56.2129C822.663 54.6149 823.496 53.8159 824.772 53.8159C824.806 53.8159 824.857 53.8159 824.908 53.8159C824.959 53.8159 825.027 53.8337 825.129 53.8514C825.231 53.8692 825.367 53.9224 825.521 53.958C825.674 54.0112 825.895 54.0822 826.15 54.171C826.405 54.2598 826.711 54.3841 827.086 54.5261C827.46 54.6682 827.885 54.8457 828.395 55.0588L831.134 56.1241L831.338 57.509Z" fill="#605E5C"/>
<path d="M837.699 53.9937C838.209 53.9937 838.634 54.1002 839.009 54.2955C839.383 54.4908 839.689 54.7749 839.944 55.1122C840.199 55.4496 840.369 55.8402 840.505 56.2841C840.625 56.7279 840.693 57.1896 840.693 57.6512C840.693 58.1661 840.659 58.6277 840.573 59.0006C840.488 59.3734 840.369 59.693 840.233 59.9416C840.097 60.1902 839.944 60.4032 839.757 60.563C839.57 60.7228 839.417 60.8471 839.23 60.9181C839.06 61.0069 838.872 61.0602 838.719 61.0779C838.549 61.1134 838.413 61.1134 838.294 61.1134C838.039 61.1134 837.801 61.0957 837.563 61.0424C837.324 60.9892 837.086 60.9181 836.848 60.8116C836.61 60.7051 836.355 60.5808 836.083 60.4387C835.811 60.2967 835.521 60.1369 835.198 59.9416C834.773 60.4565 834.229 60.7228 833.565 60.7228H832.681V59.1959H833.582C833.786 59.1959 833.939 59.1249 834.058 58.9651C834.178 58.8053 834.297 58.61 834.382 58.3792C834.467 58.1306 834.552 57.8643 834.637 57.5447C834.722 57.2251 834.807 56.9055 834.909 56.5859C835.011 56.2663 835.13 55.929 835.266 55.6271C835.402 55.3253 835.589 55.0412 835.794 54.7926C836.015 54.5441 836.27 54.3488 836.576 54.2067C836.882 54.0647 837.273 53.9937 837.699 53.9937ZM838.294 59.6043C838.328 59.6043 838.379 59.6043 838.447 59.6043C838.515 59.6043 838.583 59.5865 838.651 59.5332C838.719 59.48 838.804 59.4445 838.872 59.3557C838.94 59.2669 839.009 59.1604 839.077 59.0183C839.145 58.8763 839.179 58.6987 839.23 58.4679C839.264 58.2371 839.281 57.9708 839.281 57.6512C839.281 57.5979 839.281 57.4914 839.264 57.3671C839.247 57.2428 839.23 57.1008 839.196 56.941C839.162 56.7812 839.111 56.6214 839.043 56.4439C838.974 56.2841 838.872 56.1243 838.753 55.9822C838.634 55.8402 838.481 55.7337 838.328 55.6449C838.158 55.5561 837.954 55.5206 837.716 55.5206C837.495 55.5206 837.29 55.5561 837.137 55.6449C836.984 55.7337 836.848 55.8402 836.746 55.9822C836.644 56.1243 836.542 56.3018 836.474 56.4971C836.406 56.6924 836.338 56.9055 836.27 57.1363C836.202 57.3671 836.151 57.5979 836.083 57.8465C836.015 58.0951 835.947 58.3436 835.862 58.5922C836.134 58.7343 836.372 58.8585 836.61 58.9828C836.831 59.1071 837.052 59.2136 837.239 59.3024C837.444 59.3912 837.614 59.4622 837.801 59.5155C837.954 59.5687 838.124 59.6043 838.294 59.6043Z" fill="#605E5C"/>
<path d="M542.788 53.8592H535.984C535.287 53.8592 534.709 53.2555 534.709 52.5276C534.709 51.7996 535.287 51.1959 535.984 51.1959H542.788C543.486 51.1959 544.064 51.7996 544.064 52.5276C544.064 53.2555 543.503 53.8592 542.788 53.8592Z" fill="#A19F9D"/>
<path d="M535.984 64.5122H532.582C531.885 64.5122 531.307 63.9085 531.307 63.1806C531.307 62.4526 531.885 61.8489 532.582 61.8489H535.984C539.029 61.8489 541.512 59.2567 541.512 56.0785V48.071C541.512 45.5853 540.577 43.2416 538.893 41.4838L527.309 29.3926C524.877 26.8536 521.645 25.451 518.209 25.451H510.043V61.8489H515.572C516.269 61.8489 516.848 62.4526 516.848 63.1806C516.848 63.9085 516.269 64.5122 515.572 64.5122H508.768C508.07 64.5122 507.492 63.9085 507.492 63.1806V24.1194C507.492 23.3914 508.07 22.7877 508.768 22.7877H518.209C522.325 22.7877 526.203 24.4567 529.112 27.5106L540.696 39.6018C542.873 41.8745 544.064 44.8751 544.064 48.071V56.0785C544.064 60.7304 540.441 64.5122 535.984 64.5122Z" fill="#A19F9D"/>
<path d="M473.046 64.5122H469.644C463.316 64.5122 458.161 59.1324 458.161 52.5275V34.7724C458.161 34.0445 458.74 33.4408 459.437 33.4408C460.135 33.4408 460.713 34.0445 460.713 34.7724V52.5275C460.713 57.6588 464.727 61.849 469.644 61.849H473.046C473.743 61.849 474.321 62.4526 474.321 63.1806C474.321 63.9085 473.76 64.5122 473.046 64.5122Z" fill="#A19F9D"/>
<path d="M508.767 64.5122H490.056C489.358 64.5122 488.78 63.9086 488.78 63.1806C488.78 62.4527 489.358 61.849 490.056 61.849H507.492V24.1194C507.492 18.9882 503.477 14.7979 498.561 14.7979H463.281C462.584 14.7979 462.005 14.1942 462.005 13.4663C462.005 12.7383 462.584 12.1346 463.281 12.1346H498.561C504.889 12.1346 510.043 17.5144 510.043 24.1194V63.1806C510.043 63.9263 509.482 64.5122 508.767 64.5122Z" fill="#A19F9D"/>
<path d="M540.747 43.2061H518.974C516.388 43.2061 514.296 41.0222 514.296 38.3234V34.7724C514.296 32.0736 516.388 29.8898 518.974 29.8898H530.881C531.579 29.8898 532.157 30.4934 532.157 31.2214C532.157 31.9494 531.579 32.553 530.881 32.553H518.974C517.8 32.553 516.848 33.5473 516.848 34.7724V38.3234C516.848 39.5485 517.8 40.5428 518.974 40.5428H540.747C541.444 40.5428 542.023 41.1465 542.023 41.8745C542.023 42.6024 541.461 43.2061 540.747 43.2061Z" fill="#A19F9D"/>
<path d="M481.551 75.1653C476.159 75.1653 471.77 70.5845 471.77 64.9561C471.77 59.3278 476.159 54.7469 481.551 54.7469C486.943 54.7469 491.332 59.3278 491.332 64.9561C491.332 70.5845 486.96 75.1653 481.551 75.1653ZM481.551 57.4102C477.57 57.4102 474.321 60.8014 474.321 64.9561C474.321 69.1108 477.57 72.5021 481.551 72.5021C485.531 72.5021 488.78 69.1108 488.78 64.9561C488.78 60.8014 485.548 57.4102 481.551 57.4102Z" fill="#A19F9D"/>
<path d="M481.551 68.0633C479.918 68.0633 478.574 66.6606 478.574 64.9561C478.574 63.2517 479.918 61.849 481.551 61.849C483.184 61.849 484.528 63.2517 484.528 64.9561C484.528 66.6606 483.201 68.0633 481.551 68.0633ZM481.551 64.5123C481.313 64.5123 481.126 64.7076 481.126 64.9561C481.126 65.4533 481.976 65.4533 481.976 64.9561C481.976 64.7253 481.789 64.5123 481.551 64.5123Z" fill="#A19F9D"/>
<path d="M524.077 68.0633C522.444 68.0633 521.1 66.6606 521.1 64.9561C521.1 63.2517 522.444 61.849 524.077 61.849C525.71 61.849 527.054 63.2517 527.054 64.9561C527.054 66.6606 525.727 68.0633 524.077 68.0633ZM524.077 64.5123C523.839 64.5123 523.652 64.7076 523.652 64.9561C523.652 65.4533 524.502 65.4533 524.502 64.9561C524.502 64.7253 524.315 64.5123 524.077 64.5123Z" fill="#A19F9D"/>
<path d="M524.077 75.1653C518.685 75.1653 514.296 70.5845 514.296 64.9561C514.296 59.3278 518.685 54.7469 524.077 54.7469C529.469 54.7469 533.858 59.3278 533.858 64.9561C533.858 70.5845 529.486 75.1653 524.077 75.1653ZM524.077 57.4102C520.097 57.4102 516.848 60.8014 516.848 64.9561C516.848 69.1108 520.097 72.5021 524.077 72.5021C528.058 72.5021 531.307 69.1108 531.307 64.9561C531.307 60.8014 528.075 57.4102 524.077 57.4102Z" fill="#A19F9D"/>
<path d="M473.658 22.4504H458.723C458.026 22.4504 457.447 21.8467 457.447 21.1187C457.447 20.3908 458.026 19.7871 458.723 19.7871H473.658C474.356 19.7871 474.934 20.3908 474.934 21.1187C474.934 21.8467 474.373 22.4504 473.658 22.4504Z" fill="#0094D4"/>
<path d="M468.555 29.1442H453.62C452.922 29.1442 452.344 28.5406 452.344 27.8126C452.344 27.0846 452.922 26.481 453.62 26.481H468.555C469.252 26.481 469.831 27.0846 469.831 27.8126C469.831 28.5406 469.269 29.1442 468.555 29.1442Z" fill="#0094D4"/>
<path d="M508.768 52.0837H459.437C458.74 52.0837 458.161 51.48 458.161 50.752C458.161 50.0241 458.74 49.4204 459.437 49.4204H508.768C509.465 49.4204 510.043 50.0241 510.043 50.752C510.043 51.48 509.482 52.0837 508.768 52.0837Z" fill="#A19F9D"/>
<path d="M376.919 45.4249H373.33C373.108 45.4249 372.87 45.4071 372.598 45.3894C372.326 45.3716 372.054 45.3361 371.782 45.2651C371.492 45.2118 371.22 45.123 370.931 45.0165C370.642 44.91 370.37 44.7679 370.098 44.5904C369.519 44.2175 369.094 43.7559 368.805 43.17C368.516 42.584 368.38 41.9271 368.38 41.1636C368.38 40.6487 368.499 40.1693 368.72 39.69C368.958 39.2283 369.298 38.7667 369.774 38.3228C370.098 38.021 370.438 37.7547 370.829 37.4883C371.203 37.222 371.595 36.9734 372.003 36.7071C371.748 36.4408 371.509 36.1922 371.271 35.9436C371.05 35.6951 370.846 35.482 370.659 35.2689C370.489 35.0736 370.336 34.9138 370.234 34.7895C370.132 34.6653 370.064 34.5942 370.064 34.5765L369.876 34.0793C369.876 33.9728 369.876 33.8663 369.893 33.742C369.91 33.6177 369.927 33.4934 369.961 33.3691C369.961 33.2449 370.013 33.1206 370.081 32.9963C370.149 32.872 370.217 32.7477 370.336 32.6234C370.54 32.3926 370.795 32.2151 371.101 32.1085C371.407 32.002 371.782 31.9487 372.224 31.9487H374.775C375.201 31.9487 375.592 32.0553 375.932 32.2683C376.272 32.4814 376.528 32.7832 376.681 33.1561C376.8 33.4224 376.851 33.7065 376.851 33.9728C376.851 34.0616 376.834 34.2391 376.8 34.4877C376.766 34.7363 376.613 35.0204 376.34 35.3577C376.085 35.6595 375.813 35.9436 375.473 36.21C375.133 36.4763 374.792 36.7249 374.435 36.9734C374.622 37.1332 374.792 37.2753 374.929 37.3818C375.065 37.4883 375.167 37.5593 375.269 37.6126C375.354 37.6659 375.422 37.7014 375.473 37.7369C375.524 37.7547 375.558 37.7724 375.575 37.7724H378.467V39.2993H375.524C375.422 39.2993 375.303 39.2816 375.167 39.2461C375.031 39.2106 374.878 39.1396 374.69 39.033C374.503 38.9265 374.282 38.7844 374.027 38.5891C373.772 38.3938 373.466 38.1453 373.108 37.8257C372.7 38.0742 372.292 38.3406 371.901 38.5891C371.509 38.8555 371.169 39.1218 370.863 39.4059C370.557 39.69 370.319 39.974 370.132 40.2759C369.944 40.5777 369.842 40.8796 369.842 41.1991C369.842 41.5898 369.893 41.9449 370.013 42.2289C370.132 42.513 370.268 42.7616 370.455 42.9569C370.642 43.1522 370.863 43.3298 371.101 43.454C371.339 43.5783 371.595 43.6849 371.85 43.7559C372.105 43.8269 372.36 43.8802 372.632 43.8979C372.904 43.9157 373.125 43.9334 373.347 43.9334H376.936V45.4249H376.919ZM371.339 33.813C371.424 33.9018 371.509 34.0261 371.629 34.1504C371.748 34.2746 371.884 34.4344 372.037 34.5942C372.19 34.754 372.343 34.9316 372.513 35.1091C372.683 35.2867 372.853 35.482 373.04 35.6595L373.296 35.8904C373.687 35.6418 374.044 35.3932 374.367 35.1446C374.707 34.8961 374.98 34.6298 375.184 34.3457C375.303 34.2036 375.354 34.0793 375.354 33.9373C375.354 33.884 375.337 33.813 375.32 33.7597C375.303 33.671 375.218 33.5822 375.116 33.5289C375.014 33.4757 374.895 33.4579 374.758 33.4579H372.207C372.054 33.4579 371.935 33.4579 371.833 33.4757C371.731 33.4934 371.646 33.5112 371.595 33.5289C371.526 33.5467 371.492 33.5644 371.458 33.5822C371.424 33.6 371.407 33.6177 371.407 33.6177C371.373 33.671 371.339 33.742 371.339 33.813Z" fill="#605E5C"/>
<path d="M383.484 32.7125C383.501 32.748 383.518 32.8368 383.552 32.9789C383.586 33.1209 383.62 33.2984 383.655 33.4937C383.689 33.7068 383.74 33.9376 383.791 34.1862C383.842 34.4348 383.876 34.6833 383.91 34.9497C383.944 35.1982 383.978 35.4468 383.995 35.6954C384.029 35.9262 384.029 36.1393 384.029 36.3168C384.029 36.8317 383.944 37.2756 383.791 37.6484C383.62 38.0213 383.416 38.3231 383.161 38.5717C382.906 38.8203 382.6 38.9978 382.277 39.1221C381.953 39.2464 381.63 39.2997 381.29 39.2997H378.109V37.7727H381.307C381.375 37.7727 381.494 37.755 381.63 37.7372C381.766 37.7195 381.919 37.6484 382.056 37.5597C382.192 37.4709 382.328 37.3111 382.43 37.1158C382.532 36.9205 382.583 36.6542 382.583 36.3168C382.583 36.1925 382.583 36.0505 382.549 35.8729C382.532 35.6954 382.515 35.5001 382.481 35.287C382.447 35.074 382.413 34.8609 382.379 34.6478C382.362 34.417 382.328 34.204 382.277 34.0086C382.243 33.8133 382.209 33.6358 382.175 33.4937C382.141 33.3517 382.124 33.2274 382.107 33.1564L383.484 32.7125ZM381.171 42.3713L379.912 43.6852L378.704 42.3713L379.929 41.0752L381.171 42.3713ZM384.148 42.3535L382.889 43.6674L381.681 42.3535L382.906 41.0574L384.148 42.3535Z" fill="#605E5C"/>
<path d="M392.534 39.2818H392.194C391.7 39.2818 391.241 39.1752 390.833 38.9799C390.833 39.7256 390.731 40.4003 390.527 41.004C390.322 41.5899 390.033 42.1048 389.642 42.5132C389.251 42.9215 388.775 43.2411 388.213 43.4542C387.652 43.6673 387.005 43.7738 386.274 43.7738H385.202V42.2469H386.274C386.801 42.2469 387.261 42.1758 387.652 42.0515C388.043 41.9095 388.366 41.7142 388.621 41.4479C388.877 41.1815 389.064 40.8264 389.183 40.4003C389.302 39.9742 389.37 39.4771 389.37 38.8911V33.8309H390.833V36.4942C390.833 36.796 390.901 37.0269 391.02 37.2044C391.139 37.382 391.275 37.5062 391.445 37.5773C391.598 37.6483 391.751 37.7015 391.904 37.7193C392.058 37.7371 392.16 37.7548 392.211 37.7548H392.551V39.2818H392.534Z" fill="#605E5C"/>
<path d="M398.249 39.2637C397.773 39.2637 397.331 39.1927 396.956 39.0329C396.582 38.8909 396.259 38.6778 396.004 38.3937C395.732 38.6956 395.425 38.9086 395.068 39.0684C394.711 39.2105 394.354 39.2815 393.997 39.2815H392.227V37.7546H393.997C394.082 37.7546 394.184 37.7368 394.337 37.719C394.473 37.7013 394.626 37.6303 394.762 37.5415C394.898 37.435 395.017 37.2929 395.136 37.0976C395.238 36.9023 395.289 36.6182 395.289 36.2809V33.8307H396.752V36.2454C396.752 36.7603 396.871 37.1509 397.109 37.3995C397.348 37.648 397.722 37.7723 398.266 37.7723C398.351 37.7723 398.453 37.7546 398.589 37.719C398.725 37.6835 398.879 37.6303 399.015 37.5237C399.151 37.4172 399.287 37.2752 399.389 37.0799C399.491 36.8846 399.542 36.6182 399.542 36.2631V33.8307H400.988V36.2454C400.988 36.7603 401.107 37.1509 401.345 37.3995C401.583 37.648 401.974 37.7723 402.519 37.7723C402.604 37.7723 402.706 37.7546 402.859 37.719C403.012 37.6835 403.131 37.6125 403.267 37.506C403.403 37.3995 403.522 37.2397 403.625 37.0444C403.727 36.849 403.778 36.5827 403.778 36.2454C403.778 36.1211 403.778 35.979 403.744 35.8015C403.727 35.6239 403.71 35.4286 403.676 35.2333C403.642 35.038 403.608 34.825 403.573 34.6119C403.539 34.3988 403.505 34.2035 403.471 34.0082C403.437 33.8307 403.403 33.6531 403.369 33.5111C403.335 33.369 403.318 33.2625 403.301 33.1915L404.679 32.7299C404.696 32.7654 404.713 32.8541 404.747 32.9784C404.781 33.1027 404.815 33.2803 404.849 33.4933C404.883 33.7064 404.934 33.9195 404.985 34.168C405.036 34.4166 405.07 34.6652 405.104 34.9137C405.138 35.1623 405.172 35.4109 405.206 35.6417C405.224 35.8725 405.241 36.0856 405.241 36.2631C405.241 36.778 405.155 37.2219 405.002 37.5948C404.849 37.9676 404.628 38.2872 404.373 38.5358C404.118 38.7844 403.829 38.9797 403.505 39.1039C403.182 39.2282 402.859 39.2993 402.536 39.2993C402.043 39.2993 401.6 39.2282 401.226 39.0684C400.852 38.9086 400.529 38.6956 400.256 38.3937C399.984 38.6956 399.678 38.9086 399.321 39.0507C398.964 39.1927 398.606 39.2637 398.249 39.2637Z" fill="#605E5C"/>
<path d="M416.026 43.738C415.328 43.738 414.699 43.5782 414.137 43.2586C413.576 42.939 413.117 42.4951 412.759 41.9269C412.623 41.6961 412.487 41.3943 412.351 41.0214C412.215 40.6486 412.147 40.1869 412.13 39.6543C412.13 39.5833 412.13 39.4945 412.13 39.4057C412.13 38.9441 412.198 38.3937 412.317 37.7545C412.436 37.1153 412.708 36.3696 413.1 35.5173L414.41 36.1743C414.171 36.6892 413.984 37.1863 413.848 37.6657C413.712 38.1451 413.627 38.589 413.593 38.9973C413.576 39.1394 413.576 39.2814 413.576 39.4235C413.576 39.6898 413.61 39.9561 413.661 40.258C413.712 40.5598 413.831 40.8439 414.001 41.128C414.222 41.4653 414.495 41.7316 414.852 41.9269C415.209 42.1222 415.6 42.211 416.026 42.211H416.587C417.165 42.211 417.659 42.14 418.033 42.0157C418.407 41.8914 418.696 41.6961 418.9 41.4653C419.104 41.2345 419.258 40.9327 419.326 40.6131C419.411 40.2757 419.445 39.9029 419.445 39.4945V27.7761H420.891V39.4945C420.891 42.3175 419.462 43.738 416.587 43.7557H416.026V43.738Z" fill="#605E5C"/>
<path d="M426.743 39.2818C426.199 39.2818 425.757 39.2286 425.399 39.1576C425.042 39.0865 424.753 38.98 424.498 38.838C424.259 38.6959 424.055 38.5361 423.902 38.3231C423.749 38.11 423.647 37.8792 423.562 37.5951C423.477 37.311 423.426 37.0092 423.392 36.6719C423.375 36.3345 423.358 35.9439 423.358 35.5178V27.7588H424.821V35.5178C424.821 35.9794 424.838 36.37 424.855 36.6541C424.889 36.9382 424.957 37.169 425.076 37.3288C425.195 37.4886 425.382 37.5951 425.62 37.6484C425.858 37.7016 426.233 37.7372 426.709 37.7372V39.2818H426.743Z" fill="#605E5C"/>
<path d="M432.475 39.2637C431.998 39.2637 431.556 39.1927 431.182 39.0329C430.808 38.8909 430.484 38.6778 430.229 38.3937C429.957 38.6956 429.651 38.9086 429.294 39.0684C428.936 39.2105 428.579 39.2815 428.222 39.2815H426.453V37.7546H428.222C428.307 37.7546 428.409 37.7368 428.562 37.719C428.698 37.7013 428.851 37.6303 428.987 37.5415C429.123 37.435 429.243 37.2929 429.362 37.0976C429.464 36.9023 429.515 36.6182 429.515 36.2809V33.8307H430.978V36.2454C430.978 36.7603 431.097 37.1509 431.335 37.3995C431.573 37.648 431.947 37.7723 432.492 37.7723C432.577 37.7723 432.679 37.7546 432.815 37.719C432.951 37.6835 433.104 37.6303 433.24 37.5237C433.376 37.4172 433.512 37.2752 433.614 37.0799C433.716 36.8846 433.767 36.6182 433.767 36.2631V33.8307H435.213V36.2454C435.213 36.7603 435.332 37.1509 435.57 37.3995C435.809 37.648 436.2 37.7723 436.744 37.7723C436.829 37.7723 436.931 37.7546 437.084 37.719C437.237 37.6835 437.357 37.6125 437.493 37.506C437.629 37.3995 437.748 37.2397 437.85 37.0444C437.952 36.849 438.003 36.5827 438.003 36.2454C438.003 36.1211 438.003 35.979 437.969 35.8015C437.952 35.6239 437.935 35.4286 437.901 35.2333C437.867 35.038 437.833 34.825 437.799 34.6119C437.765 34.3988 437.731 34.2035 437.697 34.0082C437.663 33.8307 437.629 33.6531 437.595 33.5111C437.561 33.369 437.544 33.2625 437.527 33.1915L438.904 32.7299C438.922 32.7654 438.939 32.8541 438.973 32.9784C439.007 33.1027 439.041 33.2803 439.075 33.4933C439.109 33.7064 439.16 33.9195 439.211 34.168C439.262 34.4166 439.296 34.6652 439.33 34.9137C439.364 35.1623 439.398 35.4109 439.432 35.6417C439.449 35.8725 439.466 36.0856 439.466 36.2631C439.466 36.778 439.381 37.2219 439.228 37.5948C439.075 37.9676 438.853 38.2872 438.598 38.5358C438.343 38.7844 438.054 38.9797 437.731 39.1039C437.408 39.2282 437.084 39.2993 436.761 39.2993C436.268 39.2993 435.826 39.2282 435.451 39.0684C435.077 38.9086 434.754 38.6956 434.482 38.3937C434.21 38.6956 433.903 38.9086 433.546 39.0507C433.189 39.1927 432.832 39.2637 432.475 39.2637Z" fill="#605E5C"/>
<path d="M438.872 43.756V42.2291H439.943C440.471 42.2291 440.93 42.1581 441.321 42.0338C441.713 41.8918 442.036 41.6964 442.291 41.4301C442.546 41.1638 442.733 40.8087 442.852 40.3826C442.971 39.9564 443.039 39.4593 443.039 38.8734V33.8309H444.502V38.8734C444.502 39.6369 444.4 40.3293 444.213 40.933C444.026 41.5366 443.737 42.0515 443.346 42.4777C442.971 42.9038 442.495 43.2234 441.917 43.4364C441.355 43.6673 440.692 43.7738 439.943 43.7738H438.872V43.756Z" fill="#605E5C"/>
<path d="M448.26 39.2814H446.797V27.7761H448.26V39.2814Z" fill="#605E5C"/>
<path d="M399.287 65.0619C398.487 65.0619 397.756 64.8843 397.109 64.5114C396.463 64.1563 395.936 63.6237 395.528 62.949C395.255 62.4874 395.051 61.9902 394.932 61.4221C394.83 60.9959 394.779 60.5343 394.779 60.0727C394.779 59.9306 394.796 59.6643 394.813 59.2737C394.83 58.8831 394.949 58.3327 395.136 57.6402C395.323 56.9478 395.596 56.2198 395.936 55.4741L397.246 56.131C396.956 56.7525 396.735 57.3561 396.565 57.9243C396.395 58.4925 396.293 59.0429 396.259 59.5578C396.242 59.7353 396.242 59.8951 396.242 60.0549C396.242 60.3745 396.276 60.7296 396.344 61.0847C396.412 61.4398 396.548 61.7949 396.769 62.15C397.041 62.5939 397.382 62.9312 397.824 63.1621C398.266 63.3929 398.743 63.5172 399.287 63.5172H401.107C401.702 63.5172 402.179 63.4461 402.553 63.3219C402.927 63.1976 403.216 63.0023 403.42 62.7714C403.625 62.5406 403.778 62.2565 403.846 61.9192C403.914 61.5819 403.965 61.209 403.965 60.8006V55.119H405.428V60.8006C405.428 62.221 405.07 63.2863 404.339 63.9966C403.625 64.7068 402.536 65.0619 401.107 65.0619H399.287ZM399.338 54.4976L400.648 53.1127L401.992 54.5153L400.665 55.9002L399.338 54.4976Z" fill="#605E5C"/>
<path d="M411.297 60.588C410.753 60.588 410.311 60.5347 409.954 60.4637C409.596 60.3927 409.307 60.2862 409.052 60.1441C408.814 60.0021 408.61 59.8423 408.457 59.6292C408.304 59.4162 408.202 59.1853 408.116 58.9013C408.031 58.6172 407.98 58.3153 407.946 57.978C407.929 57.6407 407.912 57.25 407.912 56.8239V49.0649H409.375V56.8239C409.375 57.2856 409.392 57.6762 409.409 57.9602C409.443 58.2443 409.511 58.4751 409.63 58.6349C409.749 58.7947 409.937 58.9013 410.175 58.9545C410.413 59.0078 410.787 59.0433 411.263 59.0433V60.588H411.297Z" fill="#605E5C"/>
<path d="M420.891 60.5881H420.772C420.313 60.5881 419.904 60.5349 419.547 60.4461C419.19 60.3573 418.867 60.2153 418.561 60.0555C418.254 59.8957 417.999 59.6826 417.744 59.4341C417.489 59.1855 417.251 58.9192 417.013 58.6351C416.996 58.6706 416.996 58.6883 416.979 58.7061C416.962 58.7239 416.962 58.7594 416.945 58.7771C416.809 59.079 416.604 59.3453 416.332 59.5761C416.077 59.8069 415.771 60.0022 415.414 60.162C415.107 60.3041 414.767 60.4106 414.41 60.4639C414.036 60.5349 413.645 60.5704 413.253 60.5704H410.974V59.0434H413.253C413.56 59.0434 413.832 59.0257 414.087 58.9724C414.342 58.9192 414.58 58.8659 414.784 58.7771C414.988 58.6883 415.176 58.5996 415.312 58.4753C415.465 58.351 415.567 58.2267 415.635 58.0847C415.703 57.9426 415.737 57.7828 415.737 57.5875C415.737 57.4455 415.703 57.2324 415.635 56.9661C415.567 56.6998 415.363 56.3269 415.039 55.8653C414.58 55.1906 414.189 54.6224 413.866 54.1608C413.542 53.6992 413.287 53.3085 413.083 53.0067C412.845 52.6694 412.658 52.3853 412.505 52.1545L412.794 51.0181L419.887 47.5914L420.483 48.9941L414.155 52.0124L417.217 56.4512C417.523 56.8951 417.812 57.2679 418.067 57.5875C418.322 57.9071 418.561 58.1734 418.816 58.3865C419.071 58.5996 419.343 58.7594 419.649 58.8481C419.955 58.9547 420.313 59.0079 420.721 59.0079H420.84V60.5881H420.891ZM412.964 48.7455L418.833 46.1L419.156 46.8279L412.879 49.6688L412.964 48.7455Z" fill="#605E5C"/>
<path d="M425.978 54.0187C425.995 54.0542 426.012 54.143 426.046 54.285C426.08 54.427 426.114 54.6046 426.148 54.7999C426.182 55.013 426.233 55.2438 426.284 55.4923C426.335 55.7409 426.369 55.9895 426.403 56.2558C426.437 56.5044 426.471 56.753 426.488 57.0015C426.522 57.2324 426.522 57.4454 426.522 57.623C426.522 58.1379 426.437 58.5817 426.284 58.9546C426.114 59.3275 425.91 59.6293 425.655 59.8779C425.399 60.1264 425.093 60.304 424.77 60.4283C424.447 60.5526 424.124 60.6058 423.783 60.6058H420.586V59.0789H423.783C423.852 59.0789 423.971 59.0611 424.107 59.0434C424.243 59.0256 424.396 58.9546 424.532 58.8658C424.668 58.777 424.804 58.6172 424.906 58.4219C425.008 58.2266 425.059 57.9603 425.059 57.623C425.059 57.4987 425.059 57.3566 425.025 57.1791C425.008 57.0015 424.991 56.8062 424.957 56.5932C424.923 56.3801 424.889 56.167 424.855 55.954C424.821 55.7409 424.787 55.5279 424.753 55.3326C424.719 55.1373 424.685 54.9597 424.651 54.8177C424.617 54.6756 424.6 54.5513 424.583 54.4803L425.978 54.0187ZM423.664 63.6774L422.406 64.9913L421.198 63.6774L422.423 62.3813L423.664 63.6774ZM426.624 63.6597L425.365 64.9736L424.158 63.6597L425.382 62.3636L426.624 63.6597Z" fill="#605E5C"/>
<path d="M430.519 60.5876H429.056V49.0823H430.519V60.5876Z" fill="#605E5C"/>
<path d="M430.127 65.0621V63.5351H431.199C431.726 63.5351 432.186 63.4641 432.577 63.3398C432.968 63.1978 433.291 63.0025 433.546 62.7362C433.802 62.4698 433.989 62.1147 434.108 61.6886C434.227 61.2625 434.295 60.7653 434.295 60.1794V55.137H435.758V60.1794C435.758 60.9429 435.656 61.6353 435.469 62.239C435.281 62.8427 434.992 63.3576 434.601 63.7837C434.227 64.2098 433.751 64.5294 433.172 64.7425C432.611 64.9733 431.947 65.0798 431.199 65.0798H430.127V65.0621Z" fill="#605E5C"/>
<path d="M443.378 63.5177C444.161 63.5177 444.807 63.4467 445.351 63.3402C445.879 63.2159 446.304 63.0206 446.61 62.772C446.882 62.5412 447.069 62.2571 447.205 61.902C447.342 61.5469 447.393 61.1208 447.393 60.5881H445.964C445.606 60.5881 445.232 60.5348 444.858 60.4106C444.484 60.2863 444.144 60.1087 443.854 59.8602C443.548 59.5938 443.31 59.2565 443.123 58.8481C442.936 58.4398 442.834 57.9249 442.834 57.3212C442.834 56.9661 442.868 56.6465 442.919 56.3624C442.987 56.0783 443.055 55.812 443.14 55.5989C443.225 55.3681 443.327 55.1728 443.446 55.013C443.548 54.8532 443.667 54.7112 443.769 54.5869C444.058 54.2851 444.382 54.0542 444.739 53.8944C445.096 53.7347 445.504 53.6459 445.913 53.6459C446.287 53.6459 446.627 53.6991 446.933 53.8234C447.256 53.9477 447.546 54.1253 447.784 54.3561C448.481 55.0308 448.821 56.0961 448.821 57.552V60.6059C448.821 61.3693 448.719 62.0263 448.498 62.5767C448.277 63.1271 447.954 63.5887 447.512 63.9616C447.052 64.3344 446.491 64.6008 445.828 64.7961C445.164 64.9914 444.331 65.0624 443.378 65.0624V63.5177ZM445.913 55.1728C445.402 55.1728 445.011 55.3681 444.722 55.741C444.433 56.1138 444.297 56.6465 444.297 57.3389C444.297 58.0314 444.501 58.5108 444.892 58.7771C444.994 58.8481 445.096 58.9014 445.198 58.9369C445.3 58.9724 445.402 59.0079 445.504 59.0257C445.606 59.0434 445.692 59.0612 445.777 59.0612C445.862 59.0612 445.93 59.0789 445.981 59.0789H447.41V57.552C447.41 57.1614 447.376 56.824 447.325 56.5577C447.273 56.2914 447.188 56.0606 447.103 55.883C447.018 55.7055 446.916 55.5634 446.814 55.4746C446.695 55.3859 446.593 55.3149 446.491 55.2616C446.389 55.2261 446.287 55.1906 446.185 55.1906C446.083 55.1906 445.981 55.1728 445.913 55.1728Z" fill="#605E5C"/>
<path d="M112.932 72.2886H111.571C104.087 72.2886 97.9799 65.8968 97.9799 58.0313C97.9799 50.1658 104.07 43.7739 111.571 43.7739H112.932C113.63 43.7739 114.208 44.3776 114.208 45.1056V70.957C114.208 71.6849 113.647 72.2886 112.932 72.2886ZM111.571 46.4194C105.481 46.4194 100.531 51.6217 100.531 58.0135C100.531 64.4054 105.481 69.6076 111.571 69.6076H111.656V46.4194H111.571Z" fill="#A19F9D"/>
<path d="M115.671 75.1474C113.459 75.1474 111.656 73.2653 111.656 70.9394V45.088C111.656 42.762 113.459 40.88 115.671 40.88C117.882 40.88 119.685 42.762 119.685 45.088V70.9394C119.685 73.2653 117.882 75.1474 115.671 75.1474ZM115.671 43.5433C114.871 43.5433 114.208 44.2357 114.208 45.088V70.9394C114.208 71.7916 114.854 72.4841 115.671 72.4841C116.487 72.4841 117.134 71.7916 117.134 70.9394V45.088C117.134 44.2357 116.47 43.5433 115.671 43.5433Z" fill="#A19F9D"/>
<path d="M160.799 72.289H159.439C158.741 72.289 158.163 71.6854 158.163 70.9574V45.0882C158.163 44.3603 158.741 43.7566 159.439 43.7566H160.799C168.284 43.7566 174.39 50.1484 174.39 58.0139C174.39 65.8794 168.284 72.289 160.799 72.289ZM160.714 69.6258H160.799C166.889 69.6258 171.838 64.4235 171.838 58.0317C171.838 51.6399 166.889 46.4376 160.799 46.4376H160.714V69.6258Z" fill="#A19F9D"/>
<path d="M156.7 75.1474C154.489 75.1474 152.686 73.2653 152.686 70.9394V45.088C152.686 42.762 154.489 40.88 156.7 40.88C158.912 40.88 160.715 42.762 160.715 45.088V70.9394C160.715 73.2653 158.912 75.1474 156.7 75.1474ZM156.7 43.5433C155.901 43.5433 155.238 44.2357 155.238 45.088V70.9394C155.238 71.7916 155.884 72.4841 156.7 72.4841C157.5 72.4841 158.163 71.7916 158.163 70.9394V45.088C158.163 44.2357 157.5 43.5433 156.7 43.5433Z" fill="#A19F9D"/>
<path d="M167.637 48.6037C166.94 48.6037 166.362 48 166.362 47.272V35.0388C166.362 17.55 152.821 3.32818 136.185 3.32818C119.549 3.32818 106.008 17.55 106.008 35.0388V47.272C106.008 48 105.43 48.6037 104.733 48.6037C104.035 48.6037 103.457 48 103.457 47.272V35.0388C103.457 16.0941 118.137 0.664917 136.185 0.664917C154.233 0.664917 168.913 16.0763 168.913 35.0388V47.272C168.913 48 168.352 48.6037 167.637 48.6037Z" fill="#A19F9D"/>
<path d="M156.701 83.7763H143.024C142.327 83.7763 141.749 83.1727 141.749 82.4447C141.749 81.7168 142.327 81.1131 143.024 81.1131H156.701C162.025 81.1131 166.363 76.55 166.363 70.9572V68.7733C166.363 68.0453 166.941 67.4417 167.639 67.4417C168.336 67.4417 168.914 68.0453 168.914 68.7733V70.9572C168.914 78.0237 163.437 83.7763 156.701 83.7763Z" fill="#A19F9D"/>
<path d="M140.285 86.6529H134.808C132.596 86.6529 130.793 84.7708 130.793 82.4449C130.793 80.119 132.596 78.2369 134.808 78.2369H140.285C142.497 78.2369 144.3 80.119 144.3 82.4449C144.3 84.7708 142.497 86.6529 140.285 86.6529ZM134.825 80.9002C134.025 80.9002 133.362 81.5927 133.362 82.4449C133.362 83.2972 134.008 83.9896 134.825 83.9896H140.302C141.102 83.9896 141.765 83.2972 141.765 82.4449C141.765 81.5927 141.119 80.9002 140.302 80.9002H134.825Z" fill="#0094D4"/>
<path d="M33.2736 39.7085C33.4947 40.1524 33.6138 40.5607 33.6308 40.9513V41.0579C33.6308 41.413 33.5627 41.7326 33.4267 42.0522C33.2906 42.3717 33.0864 42.6558 32.7973 42.9222C32.5081 43.1885 32.1849 43.4015 31.7937 43.5968C31.4024 43.7744 30.9771 43.9164 30.5009 44.023C30.0246 44.1295 29.5313 44.165 29.0039 44.165H26.8096C25.9931 44.165 25.2616 43.9875 24.6152 43.6146C23.9688 43.2417 23.4415 42.7268 23.0162 42.0699C22.7441 41.6083 22.5399 41.0934 22.4209 40.5252C22.3358 40.0813 22.2848 39.6375 22.2848 39.1581C22.2848 39.016 22.3018 38.7497 22.3188 38.3591C22.3358 37.9685 22.4549 37.4181 22.642 36.7256C22.8291 36.0154 23.1013 35.2875 23.4585 34.5417L24.7513 35.1987C24.1729 36.4771 23.8497 37.6134 23.7647 38.6432C23.7477 38.8207 23.7477 38.9805 23.7477 39.1403C23.7477 39.9571 23.9178 40.6673 24.258 41.2532C24.5132 41.6971 24.8704 42.0344 25.3126 42.283C25.7549 42.5138 26.2482 42.6381 26.7926 42.6381H28.9869C29.2761 42.6381 29.5653 42.6203 29.8374 42.5671C30.1096 42.5138 30.3818 42.4605 30.6199 42.3717C30.8581 42.3007 31.0792 42.1942 31.2833 42.0877C31.4875 41.9811 31.6406 41.8569 31.7766 41.7148C31.9127 41.5728 31.9978 41.4307 32.0488 41.2709C32.0828 41.1822 32.0998 41.1111 32.0998 41.0224C32.0998 40.9513 32.0828 40.8803 32.0658 40.7915C31.9978 40.5785 31.8617 40.4009 31.6406 40.2589C31.4194 40.1169 31.1473 40.0103 30.8241 39.9215C30.5009 39.8328 30.1606 39.7795 29.7864 39.744C29.4122 39.7085 29.055 39.6907 28.7147 39.6907L28.7658 38.1638H35.4339V39.6907H33.2736V39.7085Z" fill="#605E5C"/>
<path d="M37.5939 33.1387C37.6109 33.1743 37.6279 33.263 37.6619 33.4051C37.696 33.5471 37.73 33.7247 37.764 33.92C37.798 34.133 37.8491 34.3638 37.9001 34.6124C37.9511 34.861 37.9851 35.1096 38.0192 35.3759C38.0532 35.6245 38.0872 35.873 38.1042 36.1216C38.1382 36.3524 38.1382 36.5655 38.1382 36.743C38.1382 37.2579 38.0532 37.7018 37.9001 38.0747C37.73 38.4475 37.5259 38.7494 37.2707 38.9979C37.0155 39.2465 36.7093 39.4241 36.3862 39.5483C36.063 39.6726 35.7398 39.7259 35.3995 39.7259H33.4263V38.1989H35.3995C35.4676 38.1989 35.5867 38.1812 35.7227 38.1634C35.8588 38.1457 36.0119 38.0747 36.148 37.9859C36.2841 37.8971 36.4202 37.7373 36.5222 37.542C36.6243 37.3467 36.6753 37.0804 36.6753 36.743C36.6753 36.6187 36.6753 36.4767 36.6413 36.2992C36.6243 36.1216 36.6073 35.9263 36.5733 35.7132C36.5392 35.5002 36.5052 35.2871 36.4712 35.0741C36.4372 34.861 36.4032 34.6479 36.3691 34.4526C36.3351 34.2573 36.3011 34.0798 36.2671 33.9377C36.2331 33.7957 36.216 33.6714 36.199 33.6004L37.5939 33.1387ZM35.0423 29.8008L36.3521 28.4159L37.696 29.8185L36.3691 31.2034L35.0423 29.8008Z" fill="#605E5C"/>
<path d="M43.6488 39.7084C43.1045 39.7084 42.6622 39.6551 42.305 39.5841C41.9477 39.5131 41.6586 39.4065 41.4034 39.2645C41.1653 39.1224 40.9611 38.9626 40.808 38.7496C40.655 38.5365 40.5529 38.3057 40.4678 38.0216C40.3828 37.7375 40.3317 37.4357 40.2977 37.0984C40.2807 36.761 40.2637 36.3704 40.2637 35.9443V28.1853H41.7266V35.9443C41.7266 36.4059 41.7436 36.7965 41.7606 37.0806C41.7947 37.3647 41.8627 37.5955 41.9818 37.7553C42.1008 37.9151 42.288 38.0216 42.5261 38.0749C42.7643 38.1282 43.1385 38.1637 43.6148 38.1637V39.7084H43.6488Z" fill="#605E5C"/>
<path d="M49.9096 38.1809V39.7078H49.3143C48.838 39.7078 48.4297 39.6368 48.0725 39.4948C47.7153 39.3527 47.4261 39.1397 47.205 38.8733C46.6606 39.4415 45.8782 39.7078 44.8235 39.7078H43.3436V38.1809H44.8235C45.1977 38.1809 45.4869 38.1454 45.7081 38.0566C45.9292 37.9856 46.0823 37.8791 46.2014 37.7725C46.3034 37.666 46.3885 37.5239 46.4225 37.3819C46.4565 37.2399 46.4735 37.0978 46.4735 36.9735V34.2393H47.9194V36.9025C47.9194 37.0978 47.9534 37.2754 48.0045 37.4174C48.0555 37.5595 48.1406 37.6837 48.2256 37.7725C48.3107 37.8613 48.4127 37.9323 48.5318 38.0033C48.6339 38.0566 48.7529 38.0921 48.855 38.1276C48.9571 38.1454 49.0591 38.1631 49.1272 38.1809C49.2122 38.1809 49.2632 38.1809 49.3143 38.1809H49.9096ZM45.0787 42.7262L46.3885 41.3413L47.7323 42.7439L46.4055 44.1288L45.0787 42.7262Z" fill="#605E5C"/>
<path d="M58.0575 38.1809V39.7078H56.6967C56.2204 39.7078 55.8121 39.6368 55.4549 39.4948C55.0977 39.3527 54.8085 39.1397 54.5874 38.8733C54.043 39.4415 53.2606 39.7078 52.2059 39.7078H49.5863V38.1809H52.2059C52.5801 38.1809 52.8693 38.1454 53.0905 38.0566C53.3116 37.9678 53.4647 37.8791 53.5838 37.7725C53.6858 37.666 53.7709 37.5239 53.8049 37.3819C53.8389 37.2399 53.8559 37.0978 53.8559 36.9735V34.2393H55.3018V36.9025C55.3018 37.0978 55.3358 37.2754 55.3869 37.4174C55.4379 37.5595 55.523 37.6837 55.608 37.7725C55.6931 37.8613 55.7951 37.9323 55.9142 38.0033C56.0163 38.0566 56.1353 38.0921 56.2374 38.1276C56.3395 38.1454 56.4415 38.1631 56.5096 38.1809C56.5946 38.1809 56.6457 38.1809 56.6967 38.1809H58.0575ZM52.9544 42.8505L51.6956 44.1644L50.4878 42.8505L51.7126 41.5544L52.9544 42.8505ZM55.9142 42.8327L54.6554 44.1466L53.4477 42.8327L54.6724 41.5366L55.9142 42.8327Z" fill="#605E5C"/>
<path d="M66.1542 38.1816V39.7086H64.7933C64.317 39.7086 63.9088 39.6375 63.5516 39.4955C63.1943 39.3535 62.9052 39.1404 62.684 38.8741C62.1397 39.4422 61.3572 39.7086 60.3026 39.7086H57.6829V38.1816H60.3026C60.6768 38.1816 60.966 38.1461 61.1871 38.0573C61.4082 37.9686 61.5613 37.8798 61.6804 37.7733C61.7825 37.6667 61.8675 37.5247 61.9015 37.3826C61.9356 37.2406 61.9526 37.0986 61.9526 36.9743V34.24H63.3985V36.9033C63.3985 37.0986 63.4325 37.2761 63.4835 37.4182C63.5346 37.5602 63.6196 37.6845 63.7047 37.7733C63.7897 37.862 63.8918 37.9331 64.0108 38.0041C64.1129 38.0573 64.232 38.0929 64.334 38.1284C64.4361 38.1461 64.5382 38.1639 64.6062 38.1816C64.6913 38.1816 64.7423 38.1816 64.7933 38.1816H66.1542ZM60.6938 32.2692L59.469 30.9731L60.6768 29.6592L61.9356 30.9731L60.6938 32.2692ZM63.6536 32.2869L62.4289 30.9908L63.6366 29.6769L64.8954 30.9908L63.6536 32.2869Z" fill="#605E5C"/>
<path d="M79.4062 39.7082C78.9129 39.7082 78.4707 39.6372 78.0964 39.4774C77.7222 39.3353 77.399 39.1045 77.1438 38.8027L77.0248 38.927C76.7696 39.1755 76.4804 39.3708 76.1742 39.4951C75.851 39.6194 75.5108 39.6904 75.1536 39.6904C74.184 39.6904 73.4355 39.4064 72.9082 38.8204C72.6531 39.1045 72.3469 39.3176 72.0237 39.4596C71.6835 39.6017 71.3433 39.6727 71.003 39.6904H70.901C69.9824 39.6727 69.285 39.3886 68.7747 38.856C68.7406 38.8915 68.7066 38.927 68.6726 38.9625C68.1453 39.4419 67.4138 39.6904 66.4612 39.6904H65.8659V38.1635H66.4612C66.7844 38.1635 67.0566 38.128 67.2607 38.0747C67.4649 38.0037 67.618 37.9149 67.737 37.7906C67.8561 37.6664 67.9241 37.5066 67.9582 37.329C67.9922 37.1515 68.0092 36.9384 68.0092 36.7076V34.2396H69.4721V36.6543C69.4721 37.1692 69.5912 37.5598 69.8293 37.7906C70.0675 38.0215 70.4587 38.1457 70.969 38.1457C71.0541 38.1457 71.1732 38.128 71.3092 38.0925C71.4453 38.057 71.5814 37.986 71.7005 37.8972C71.8196 37.8084 71.9386 37.6486 72.0237 37.4533C72.1087 37.258 72.1598 37.0094 72.1598 36.6898V34.2219H73.6057V36.6366C73.6057 37.1515 73.7247 37.5421 73.9629 37.7729C74.201 38.0037 74.5923 38.128 75.1196 38.128C75.2727 38.128 75.4258 38.1102 75.5619 38.057C75.6979 38.0037 75.851 37.9327 75.9701 37.8084C76.0892 37.7019 76.1912 37.5421 76.2593 37.3645C76.3443 37.187 76.3784 36.9562 76.3954 36.6898V34.1864H77.8583V36.6898C77.8753 37.187 77.9944 37.5421 78.2495 37.7729C78.5047 38.0037 78.8959 38.1102 79.4062 38.1102H79.8825V39.6372H79.4062V39.7082ZM71.3433 32.3221L70.1185 31.026L71.3262 29.7121L72.585 31.026L71.3433 32.3221ZM73.9289 28.6823L72.8232 29.8009L71.7515 28.6823L72.8572 27.5282L73.9289 28.6823ZM74.3031 32.3398L73.0783 31.0437L74.2861 29.7298L75.5449 31.0437L74.3031 32.3398Z" fill="#605E5C"/>
<path d="M84.9347 33.1392C84.9517 33.1747 84.9687 33.2634 85.0027 33.4055C85.0368 33.5475 85.0708 33.7251 85.1048 33.9204C85.1388 34.1334 85.1898 34.3643 85.2409 34.6128C85.2919 34.8614 85.3259 35.11 85.36 35.3763C85.394 35.6249 85.428 35.8734 85.445 36.122C85.479 36.3528 85.479 36.5659 85.479 36.7434C85.479 37.2583 85.394 37.7022 85.2409 38.0751C85.0708 38.4479 84.8666 38.7496 84.6115 38.9983C84.3563 39.2469 84.0501 39.4245 83.7269 39.5488C83.4037 39.673 83.0805 39.7261 82.7403 39.7261H79.5424V38.1994H82.7403C82.8084 38.1994 82.9275 38.1816 83.0635 38.1639C83.1996 38.1461 83.3527 38.0751 83.4888 37.9863C83.6249 37.8975 83.761 37.7377 83.863 37.5424C83.9651 37.3471 84.0161 37.0808 84.0161 36.7434C84.0161 36.6192 84.0161 36.4771 83.9821 36.2996C83.9651 36.122 83.9481 35.9265 83.9141 35.7135C83.88 35.5004 83.846 35.2875 83.812 35.0745C83.778 34.8614 83.744 34.6483 83.7099 34.453C83.6759 34.2577 83.6419 34.08 83.6079 33.938C83.5738 33.7959 83.5568 33.6718 83.5398 33.6008L84.9347 33.1392ZM82.9785 42.5849L81.7197 43.8988L80.512 42.5849L81.7367 41.2888L82.9785 42.5849ZM83.2507 46.0649L82.145 44.9106L83.2336 43.7922L84.3223 44.9106L83.2507 46.0649ZM85.9383 42.5671L84.6795 43.881L83.4718 42.5671L84.6965 41.271L85.9383 42.5671Z" fill="#605E5C"/>
<path d="M26.9622 61.0146C26.4519 61.0146 26.0096 60.9436 25.6183 60.7838C25.2271 60.624 24.9209 60.4109 24.6487 60.1091C24.5127 60.2866 24.3596 60.4287 24.1724 60.5352C23.9853 60.6417 23.8152 60.7483 23.6451 60.8193C23.475 60.8903 23.2709 60.9436 23.0838 60.9791C22.8967 61.0146 22.7095 61.0323 22.5394 61.0323C21.893 61.0323 21.3317 60.8903 20.8724 60.5885V61.2632C20.8724 62.6658 20.5152 63.7311 19.7837 64.4413C19.0693 65.1515 17.9806 65.4889 16.5347 65.4889H14.7486C13.9491 65.4889 13.2346 65.3113 12.5712 64.9562C11.9248 64.6011 11.3975 64.0862 10.9892 63.4115C10.7171 62.9321 10.53 62.4172 10.4109 61.8491C10.3088 61.4052 10.2578 60.9613 10.2578 60.4819C10.2578 60.3399 10.2748 60.0736 10.2918 59.683C10.3088 59.2923 10.4279 58.7419 10.615 58.0317C10.8021 57.3215 11.0743 56.5936 11.4145 55.8479L12.7243 56.5225C12.4351 57.144 12.214 57.7477 12.0439 58.3158C11.8738 58.884 11.7717 59.4344 11.7377 59.9493C11.7207 60.1268 11.7207 60.2866 11.7207 60.4464C11.7207 60.7838 11.7547 61.1211 11.8228 61.494C11.8908 61.8668 12.0269 62.2219 12.248 62.5593C12.5202 63.0032 12.8604 63.3405 13.3027 63.5713C13.7279 63.8199 14.2212 63.9264 14.7656 63.9264H16.5857C17.1811 63.9264 17.6574 63.8554 18.0317 63.7311C18.4059 63.6068 18.6951 63.4115 18.8992 63.1807C19.1033 62.9499 19.2564 62.6658 19.3244 62.3285C19.3925 61.9911 19.4435 61.636 19.4435 61.2099V55.5283H20.9064V57.1085C20.9064 57.6234 20.9575 58.0317 21.0425 58.3513C21.1446 58.6532 21.2636 58.9017 21.4167 59.0615C21.5698 59.2213 21.757 59.3456 21.9441 59.3989C22.1482 59.4521 22.3523 59.4877 22.5564 59.4877C22.6925 59.4877 22.8286 59.4699 22.9987 59.4166C23.1688 59.3634 23.3219 59.2923 23.458 59.1681C23.5941 59.0438 23.7302 58.9017 23.8322 58.7064C23.9343 58.5111 23.9853 58.2625 23.9853 57.9785V55.546H25.4312V58.0495C25.4482 58.5466 25.5673 58.9017 25.8055 59.1325C26.0436 59.3634 26.4348 59.4877 26.9452 59.4877C27.0302 59.4877 27.1493 59.4699 27.2854 59.4344C27.4215 59.3989 27.5575 59.3279 27.6936 59.2213C27.8297 59.1148 27.9318 58.9728 28.0338 58.7774C28.1359 58.5821 28.1699 58.3158 28.1699 57.9962C28.1699 57.8719 28.1529 57.7299 28.1359 57.5523C28.1189 57.3748 28.1019 57.1795 28.0679 56.9842C28.0338 56.7889 28.0168 56.5758 27.9828 56.3628C27.9488 56.1497 27.9148 55.9544 27.8807 55.7591C27.8467 55.5638 27.8127 55.404 27.7787 55.2619C27.7447 55.1199 27.7276 54.9956 27.6936 54.9246L29.0885 54.4807C29.1055 54.5162 29.1225 54.5872 29.1395 54.7293C29.1565 54.8713 29.2076 55.0311 29.2416 55.2442C29.2756 55.4395 29.3266 55.6703 29.3777 55.9189C29.4287 56.1674 29.4627 56.416 29.4967 56.6646C29.5308 56.9132 29.5648 57.1617 29.5818 57.3925C29.5988 57.6234 29.6158 57.8364 29.6158 58.014C29.6158 58.5289 29.5308 58.9727 29.3777 59.3456C29.2246 59.7185 29.0204 60.0381 28.7653 60.2866C28.5101 60.5352 28.2209 60.7305 27.8977 60.8548C27.5745 60.9791 27.2854 60.9968 26.9622 61.0146Z" fill="#605E5C"/>
<path d="M36.3009 61.014H35.9607C35.4674 61.014 35.0081 60.9075 34.5999 60.7122C34.5999 61.4579 34.4978 62.1326 34.2937 62.7363C34.0895 63.3222 33.8004 63.8371 33.4091 64.2454C33.0179 64.6538 32.5416 64.9734 31.9802 65.1865C31.4189 65.3995 30.7725 65.506 30.041 65.506H28.9694V63.9791H30.041C30.5684 63.9791 31.0276 63.9081 31.4189 63.7838C31.8101 63.6418 32.1333 63.4465 32.3885 63.1801C32.6436 62.9138 32.8308 62.5587 32.9498 62.1326C33.0689 61.7065 33.137 61.2093 33.137 60.6234V55.5809H34.5999V58.2442C34.5999 58.546 34.6679 58.7769 34.787 58.9544C34.906 59.132 35.0421 59.2562 35.2122 59.3273C35.3653 59.3983 35.5184 59.4516 35.6715 59.4693C35.8246 59.4871 35.9267 59.5048 35.9777 59.5048H36.3179V61.014H36.3009Z" fill="#605E5C"/>
<path d="M44.4491 59.4877V61.0146H43.0883C42.612 61.0146 42.2037 60.9436 41.8465 60.8015C41.4893 60.6595 41.2001 60.4464 40.979 60.1801C40.4346 60.7483 39.6522 61.0146 38.5975 61.0146H35.9779V59.4877H38.5975C38.9717 59.4877 39.2609 59.4522 39.4821 59.3634C39.7032 59.2746 39.8563 59.1858 39.9754 59.0793C40.0774 58.9728 40.1625 58.8307 40.1965 58.6887C40.2305 58.5466 40.2475 58.4046 40.2475 58.2803V55.546H41.6934V58.2093C41.6934 58.4046 41.7274 58.5822 41.7785 58.7242C41.8295 58.8662 41.9146 58.9905 41.9996 59.0793C42.0847 59.1681 42.1867 59.2391 42.3058 59.3101C42.4079 59.3634 42.5269 59.3989 42.629 59.4344C42.7311 59.4522 42.8331 59.4699 42.9012 59.4877C42.9862 59.4877 43.0373 59.4877 43.0883 59.4877H44.4491ZM38.9717 53.5752L37.747 52.2791L38.9547 50.9652L40.2135 52.2791L38.9717 53.5752ZM41.9316 53.593L40.7068 52.2968L41.9146 50.983L43.1733 52.2968L41.9316 53.593Z" fill="#605E5C"/>
<path d="M50.1311 60.9968C49.6548 60.9968 49.2126 60.9258 48.8383 60.766C48.4641 60.624 48.1409 60.4109 47.8857 60.1268C47.6136 60.4287 47.3074 60.6417 46.9502 60.8015C46.593 60.9436 46.2357 61.0146 45.8785 61.0146H44.1094V59.4877H45.8785C45.9636 59.4877 46.0656 59.4699 46.2187 59.4521C46.3548 59.4344 46.5079 59.3634 46.644 59.2746C46.7801 59.1681 46.8991 59.026 47.0182 58.8307C47.1203 58.6354 47.1713 58.3513 47.1713 58.014V55.5638H48.6342V57.9785C48.6342 58.4934 48.7533 58.884 48.9914 59.1326C49.2296 59.3811 49.6038 59.5054 50.1481 59.5054C50.2332 59.5054 50.3353 59.4877 50.4713 59.4521C50.6074 59.4166 50.7605 59.3634 50.8966 59.2568C51.0327 59.1503 51.1688 59.0083 51.2708 58.813C51.3729 58.6177 51.4239 58.3513 51.4239 57.9962V55.5815H52.8698V57.9962C52.8698 58.5111 52.9889 58.9017 53.227 59.1503C53.4652 59.3989 53.8564 59.5232 54.4008 59.5232C54.4858 59.5232 54.5879 59.5054 54.741 59.4699C54.8941 59.4344 55.0131 59.3634 55.1492 59.2568C55.2853 59.1503 55.4044 58.9905 55.5064 58.7952C55.6085 58.5999 55.6595 58.3336 55.6595 57.9962C55.6595 57.8719 55.6595 57.7299 55.6255 57.5523C55.6085 57.3748 55.5915 57.1795 55.5575 56.9842C55.5235 56.7711 55.4894 56.5758 55.4554 56.3628C55.4214 56.1497 55.3874 55.9544 55.3534 55.7591C55.3193 55.5815 55.2853 55.404 55.2513 55.2619C55.2173 55.1199 55.2003 55.0134 55.1832 54.9423L56.5611 54.4807C56.5781 54.5162 56.5951 54.605 56.6291 54.7293C56.6632 54.8536 56.6972 55.0311 56.7312 55.2442C56.7652 55.4572 56.8163 55.6703 56.8673 55.9189C56.9183 56.1674 56.9523 56.416 56.9864 56.6646C57.0204 56.9132 57.0544 57.1617 57.0884 57.3926C57.1054 57.6234 57.1224 57.8364 57.1224 58.014C57.1224 58.5289 57.0374 58.9728 56.8843 59.3456C56.7312 59.7185 56.5101 60.0381 56.2549 60.2866C55.9998 60.5352 55.7106 60.7305 55.3874 60.8548C55.0642 60.9791 54.741 61.0501 54.4178 61.0501C53.9245 61.0501 53.4822 60.9791 53.108 60.8193C52.7337 60.6595 52.4105 60.4464 52.1384 60.1446C51.8662 60.4464 51.56 60.6595 51.2028 60.8015C50.8456 60.9258 50.4884 60.9968 50.1311 60.9968Z" fill="#605E5C"/>
<path d="M62.2078 61.1384C61.9526 61.1384 61.6804 61.1206 61.4083 61.1029C61.1361 61.0851 60.8809 61.0319 60.6258 60.9964C60.3706 60.9431 60.1325 60.8721 59.8943 60.8011C59.6562 60.7123 59.4521 60.6235 59.2479 60.4992L58.6015 60.1264L59.333 58.7947L59.9794 59.1676C60.1665 59.2741 60.3876 59.3629 60.6428 59.4339C60.898 59.5049 61.1871 59.5404 61.4763 59.576C61.7315 59.5937 61.9866 59.6115 62.2418 59.6115C62.2928 59.6115 62.3949 59.6115 62.565 59.6115C62.7351 59.6115 62.9392 59.5937 63.1944 59.5582C63.5006 59.5049 63.7387 59.4339 63.9258 59.3451C64.1129 59.2564 64.249 59.1498 64.3001 59.0433C64.3171 58.99 64.3341 58.9368 64.3341 58.8658C64.3341 58.777 64.3171 58.6527 64.266 58.4751C64.215 58.2976 64.1129 58.1023 63.9428 57.836L61.1361 53.4149L62.3779 52.5804C62.4459 52.687 62.5139 52.7935 62.582 52.9178C62.65 53.0243 62.7351 53.1664 62.8371 53.3262C62.9392 53.486 63.0583 53.6635 63.1774 53.8588C63.3134 54.0719 63.4665 54.3204 63.6537 54.6045C63.8408 54.8886 64.0619 55.226 64.3001 55.6166C64.5552 56.0072 64.8444 56.4511 65.1676 56.966C65.3037 57.179 65.4057 57.3921 65.5248 57.6051C65.6439 57.8182 65.7119 58.049 65.7629 58.2798C65.814 58.4929 65.831 58.6882 65.831 58.9013C65.831 58.919 65.831 58.99 65.831 59.1321C65.831 59.2564 65.78 59.4339 65.6779 59.647C65.3547 60.4104 64.6062 60.8721 63.4325 61.0496C63.2454 61.0674 63.0583 61.1029 62.8542 61.1206C62.65 61.1384 62.4289 61.1384 62.2078 61.1384Z" fill="#605E5C"/>
<path d="M71.7331 65.4886V63.9616H72.8048C73.3321 63.9616 73.7914 63.8906 74.1827 63.7663C74.5739 63.6243 74.8971 63.429 75.1523 63.1627C75.4074 62.8963 75.5945 62.5412 75.7136 62.1151C75.8327 61.689 75.9007 61.1918 75.9007 60.6059V55.5635H77.3636V60.6059C77.3636 61.3694 77.2616 62.0618 77.0744 62.6655C76.8873 63.2692 76.5982 63.7841 76.2069 64.2102C75.8327 64.6363 75.3564 64.9559 74.778 65.169C74.2167 65.3998 73.5533 65.5063 72.8048 65.5063H71.7331V65.4886Z" fill="#605E5C"/>
<path d="M82.3147 61.1384C82.0595 61.1384 81.7874 61.1206 81.5152 61.1029C81.243 61.0851 80.9879 61.0319 80.7327 60.9964C80.4776 60.9431 80.2394 60.8721 80.0013 60.8011C79.7631 60.7123 79.559 60.6235 79.3549 60.4992L78.7085 60.1264L79.4399 58.7947L80.0863 59.1676C80.2734 59.2741 80.4946 59.3629 80.7497 59.4339C81.0049 59.5049 81.2941 59.5404 81.5832 59.576C81.8384 59.5937 82.0936 59.6115 82.3487 59.6115C82.3997 59.6115 82.5018 59.6115 82.6719 59.6115C82.842 59.6115 83.0461 59.5937 83.3013 59.5582C83.6075 59.5049 83.8456 59.4339 84.0328 59.3451C84.2199 59.2564 84.356 59.1498 84.407 59.0433C84.424 58.99 84.441 58.9368 84.441 58.8658C84.441 58.777 84.424 58.6527 84.373 58.4751C84.3219 58.2976 84.2199 58.1023 84.0498 57.836L81.243 53.4149L82.4848 52.5804C82.5528 52.687 82.6209 52.7935 82.6889 52.9178C82.757 53.0243 82.842 53.1664 82.9441 53.3262C83.0462 53.486 83.1652 53.6635 83.2843 53.8588C83.4204 54.0719 83.5735 54.3204 83.7606 54.6045C83.9477 54.8886 84.1688 55.226 84.407 55.6166C84.6621 56.0072 84.9513 56.4511 85.2745 56.966C85.4106 57.179 85.5127 57.3921 85.6317 57.6051C85.7508 57.8182 85.8189 58.049 85.8699 58.2798C85.9209 58.4929 85.9379 58.6882 85.9379 58.9013C85.9379 58.919 85.9379 58.99 85.9379 59.1321C85.9379 59.2564 85.8869 59.4339 85.7848 59.647C85.4616 60.4104 84.7132 60.8721 83.5395 61.0496C83.3523 61.0674 83.1652 61.1029 82.9611 61.1206C82.757 61.1384 82.5358 61.1384 82.3147 61.1384Z" fill="#605E5C"/>
<path d="M1248.91 86.5998C1234.37 86.5998 1222.54 74.3132 1222.54 59.2214C1222.54 44.1295 1234.37 31.843 1248.91 31.843C1263.45 31.843 1275.28 44.1295 1275.28 59.2214C1275.28 74.3132 1263.45 86.5998 1248.91 86.5998ZM1248.91 34.5063C1235.79 34.5063 1225.1 45.5855 1225.1 59.2214C1225.1 72.8573 1235.77 83.9365 1248.91 83.9365C1262.04 83.9365 1272.71 72.8573 1272.71 59.2214C1272.71 45.5855 1262.03 34.5063 1248.91 34.5063Z" fill="#A19F9D"/>
<path d="M1262.18 38.4832C1261.48 38.4832 1260.9 37.8796 1260.9 37.1516V21.971C1260.9 15.0998 1255.51 9.50689 1248.89 9.50689C1242.27 9.50689 1236.89 15.0998 1236.89 21.971V37.0983C1236.89 37.8263 1236.3 38.43 1235.6 38.43C1234.9 38.43 1234.32 37.8263 1234.32 37.0983V21.971C1234.32 13.6261 1240.85 6.84363 1248.89 6.84363C1256.93 6.84363 1263.46 13.6261 1263.46 21.971V37.1516C1263.46 37.8796 1262.9 38.4832 1262.18 38.4832Z" fill="#A19F9D"/>
<path d="M1229.72 43.1883C1229.02 43.1883 1228.44 42.5847 1228.44 41.8567V21.9532C1228.44 10.2349 1237.62 0.700439 1248.91 0.700439C1260.2 0.700439 1269.38 10.2349 1269.38 21.9532V41.7147C1269.38 42.4426 1268.8 43.0463 1268.1 43.0463C1267.4 43.0463 1266.81 42.4426 1266.81 41.7147V21.9532C1266.81 11.7086 1258.78 3.3637 1248.91 3.3637C1239.04 3.3637 1231 11.7086 1231 21.9532V41.8567C1231 42.6024 1230.42 43.1883 1229.72 43.1883Z" fill="#A19F9D"/>
<path d="M1248.91 78.9291C1238.44 78.9291 1229.93 70.0871 1229.93 59.221C1229.93 48.3549 1238.44 39.5128 1248.91 39.5128C1259.38 39.5128 1267.89 48.3549 1267.89 59.221C1267.89 70.0871 1259.38 78.9291 1248.91 78.9291ZM1248.91 42.1583C1239.85 42.1583 1232.49 49.8108 1232.49 59.2032C1232.49 68.6134 1239.86 76.2481 1248.91 76.2481C1257.96 76.2481 1265.33 68.5957 1265.33 59.2032C1265.33 49.8108 1257.96 42.1583 1248.91 42.1583Z" fill="#A19F9D"/>
<path d="M1246.94 67.4421C1246.62 67.4421 1246.29 67.3178 1246.05 67.0693L1240.65 61.7072C1240.14 61.1923 1240.12 60.3578 1240.61 59.8252C1241.11 59.2925 1241.91 59.2748 1242.43 59.7719L1246.75 64.0687L1255.24 51.5513C1255.65 50.9476 1256.45 50.8056 1257.01 51.2317C1257.6 51.6578 1257.73 52.4923 1257.32 53.0782L1247.99 66.8738C1247.76 67.1936 1247.44 67.3889 1247.06 67.4244C1247.01 67.4421 1246.98 67.4421 1246.94 67.4421Z" fill="#0094D4"/>
<path d="M1120.15 38.1811V39.6903H1119.91C1119.53 39.6903 1119.17 39.637 1118.83 39.5127C1118.49 39.4062 1118.2 39.2286 1117.92 39.0156C1117.89 38.9978 1117.86 38.9623 1117.84 38.9268C1117.8 38.8913 1117.77 38.8735 1117.75 38.838C1117.21 39.4062 1116.4 39.6903 1115.38 39.6903H1106.55C1106.18 39.6903 1105.83 39.6192 1105.51 39.495C1105.18 39.3707 1104.89 39.1754 1104.65 38.9445C1104.55 38.8558 1104.45 38.7315 1104.35 38.5894C1104.24 38.4474 1104.14 38.2876 1104.05 38.0923C1103.97 37.897 1103.9 37.6839 1103.85 37.4531C1103.8 37.2223 1103.76 36.9382 1103.76 36.6364C1103.76 36.3701 1103.8 36.0682 1103.85 35.7486C1103.9 35.429 1103.97 35.1272 1104.02 34.8254C1104.09 34.5413 1104.14 34.2927 1104.21 34.0796C1104.28 33.8666 1104.31 33.7423 1104.33 33.689L1105.73 34.1507C1105.7 34.2572 1105.65 34.417 1105.59 34.6301C1105.54 34.8431 1105.49 35.0562 1105.42 35.3048C1105.37 35.5356 1105.32 35.7841 1105.29 36.015C1105.25 36.2458 1105.23 36.4588 1105.23 36.6364C1105.23 36.9915 1105.29 37.2756 1105.41 37.4709C1105.53 37.6662 1105.65 37.826 1105.78 37.9325C1105.94 38.039 1106.07 38.0923 1106.23 38.1278C1106.38 38.1633 1106.48 38.1633 1106.57 38.1633H1115.33C1115.7 38.1633 1116.01 38.1278 1116.23 38.039C1116.45 37.968 1116.62 37.8615 1116.74 37.7372C1116.86 37.6129 1116.93 37.4709 1116.97 37.3288C1117 37.1868 1117.02 37.0448 1117.02 36.9027V34.0974H1118.49V36.8494C1118.49 37.1513 1118.56 37.3999 1118.68 37.5774C1118.8 37.755 1118.95 37.8792 1119.12 37.968C1119.29 38.0568 1119.45 38.1101 1119.6 38.1278C1119.75 38.1456 1119.86 38.1633 1119.93 38.1633H1120.15V38.1811ZM1109.54 33.5115L1108.31 32.2154L1109.53 30.9015L1110.79 32.2154L1109.54 33.5115ZM1112.52 33.5292L1111.29 32.2331L1112.5 30.9192L1113.77 32.2331L1112.52 33.5292Z" fill="#605E5C"/>
<path d="M1130.25 36.4769C1130.22 36.4947 1130.08 36.6012 1129.84 36.761C1129.6 36.9208 1129.28 37.1339 1128.89 37.3647C1128.49 37.5955 1128.03 37.8618 1127.5 38.1281C1126.97 38.3945 1126.41 38.6608 1125.79 38.8916C1125.18 39.1224 1124.54 39.3177 1123.88 39.4598C1123.21 39.6196 1122.54 39.6906 1121.89 39.6906H1119.75V38.1637H1121.89C1122.47 38.1637 1123.05 38.0926 1123.65 37.9506C1124.25 37.8086 1124.82 37.631 1125.36 37.4179C1125.91 37.2049 1126.42 36.9741 1126.9 36.7255C1127.38 36.4769 1127.81 36.2461 1128.17 36.0153C1127.67 35.8022 1127.16 35.6069 1126.66 35.3939C1126.17 35.1986 1125.71 35.021 1125.29 34.8612C1124.88 34.7014 1124.53 34.5771 1124.22 34.4884C1123.93 34.3996 1123.72 34.3286 1123.62 34.3108C1123.53 34.3108 1123.43 34.3108 1123.35 34.3286C1123.24 34.3463 1123.16 34.3996 1123.05 34.4706C1122.97 34.5594 1122.87 34.6837 1122.78 34.8435C1122.7 35.0033 1122.61 35.2518 1122.54 35.5537L1121.12 35.163C1121.52 33.5651 1122.35 32.7661 1123.64 32.7661C1123.67 32.7661 1123.7 32.7661 1123.76 32.7661C1123.81 32.7661 1123.88 32.7839 1123.98 32.8016C1124.08 32.8194 1124.2 32.8726 1124.37 32.9081C1124.54 32.9614 1124.75 33.0324 1125 33.1212C1125.26 33.21 1125.57 33.3343 1125.94 33.4763C1126.32 33.6184 1126.75 33.7959 1127.26 34.009L1130.01 35.0743L1130.25 36.4769ZM1121.99 29.5347L1123.31 28.1498L1124.66 29.5524L1123.33 30.9373L1121.99 29.5347Z" fill="#605E5C"/>
<path d="M1133.81 39.6906H1132.34V28.1853H1133.81V39.6906Z" fill="#605E5C"/>
<path d="M1139.59 39.8322C1139.34 39.8322 1139.06 39.8145 1138.79 39.7967C1138.52 39.779 1138.26 39.7257 1138 39.6902C1137.75 39.6369 1137.51 39.5659 1137.27 39.4949C1137.03 39.4061 1136.82 39.3174 1136.62 39.1931L1135.97 38.8202L1136.7 37.4886L1137.35 37.8614C1137.54 37.968 1137.76 38.0567 1138.02 38.1278C1138.28 38.1988 1138.57 38.2343 1138.86 38.2698C1139.11 38.2876 1139.37 38.3053 1139.63 38.3053C1139.68 38.3053 1139.78 38.3053 1139.95 38.3053C1140.12 38.3053 1140.33 38.2876 1140.58 38.252C1140.89 38.1988 1141.13 38.1278 1141.32 38.039C1141.51 37.9502 1141.65 37.8437 1141.7 37.7371C1141.71 37.6839 1141.73 37.6306 1141.73 37.5596C1141.73 37.4708 1141.71 37.3465 1141.66 37.169C1141.61 36.9914 1141.51 36.7961 1141.34 36.5298L1138.52 32.1088L1139.76 31.2743C1139.83 31.3808 1139.9 31.4874 1139.97 31.6116C1140.04 31.7182 1140.12 31.8602 1140.23 32.02C1140.33 32.1798 1140.45 32.3574 1140.57 32.5527C1140.7 32.7657 1140.86 33.0143 1141.05 33.2984C1141.23 33.5825 1141.46 33.9198 1141.7 34.3104C1141.95 34.701 1142.24 35.1449 1142.57 35.6598C1142.71 35.8729 1142.81 36.0859 1142.93 36.299C1143.05 36.512 1143.12 36.7429 1143.17 36.9737C1143.22 37.1867 1143.24 37.382 1143.24 37.5951C1143.24 37.6129 1143.24 37.6839 1143.24 37.8259C1143.24 37.9502 1143.18 38.1278 1143.08 38.3408C1142.76 39.1043 1142 39.5659 1140.82 39.7435C1140.64 39.7612 1140.45 39.7967 1140.24 39.8145C1140.04 39.8322 1139.82 39.8322 1139.59 39.8322Z" fill="#605E5C"/>
<path d="M1149.65 39.7087H1149.31C1148.81 39.7087 1148.35 39.6022 1147.94 39.4069C1147.94 40.1526 1147.84 40.8273 1147.63 41.4309C1147.42 42.0169 1147.13 42.5318 1146.74 42.9401C1146.35 43.3485 1145.87 43.6681 1145.3 43.8811C1144.74 44.0942 1144.09 44.2007 1143.35 44.2007H1142.28V42.6738H1143.35C1143.88 42.6738 1144.35 42.6028 1144.74 42.4785C1145.13 42.3364 1145.46 42.1411 1145.71 41.8748C1145.97 41.6085 1146.16 41.2534 1146.28 40.8273C1146.4 40.4011 1146.47 39.904 1146.47 39.3181V34.2756H1147.94V36.9389C1147.94 37.2407 1148.01 37.4716 1148.13 37.6491C1148.25 37.8267 1148.38 37.9509 1148.55 38.022C1148.71 38.093 1148.86 38.1462 1149.02 38.164C1149.17 38.1818 1149.27 38.1995 1149.32 38.1995H1149.67V39.7087H1149.65Z" fill="#605E5C"/>
<path d="M1154.74 33.139C1154.76 33.1745 1154.78 33.2633 1154.81 33.4054C1154.85 33.5474 1154.88 33.725 1154.92 33.9203C1154.95 34.1333 1155 34.3641 1155.05 34.6127C1155.1 34.8613 1155.14 35.1099 1155.17 35.3762C1155.21 35.6248 1155.24 35.8733 1155.26 36.1219C1155.29 36.3527 1155.29 36.5658 1155.29 36.7433C1155.29 37.2582 1155.21 37.7021 1155.05 38.075C1154.88 38.4478 1154.68 38.7495 1154.42 38.9982C1154.16 39.2468 1153.86 39.4243 1153.53 39.5486C1153.21 39.6729 1152.88 39.726 1152.54 39.726H1149.32V38.1992H1152.54C1152.61 38.1992 1152.73 38.1815 1152.86 38.1637C1153 38.146 1153.15 38.075 1153.29 37.9862C1153.43 37.8974 1153.56 37.7376 1153.67 37.5423C1153.77 37.347 1153.82 37.0807 1153.82 36.7433C1153.82 36.619 1153.82 36.477 1153.79 36.2994C1153.77 36.1219 1153.75 35.9264 1153.72 35.7133C1153.68 35.5003 1153.65 35.2874 1153.62 35.0743C1153.58 34.8613 1153.55 34.6482 1153.51 34.4529C1153.48 34.2576 1153.44 34.0799 1153.41 33.9378C1153.38 33.7958 1153.36 33.6717 1153.34 33.6007L1154.74 33.139ZM1152.76 42.5848L1151.5 43.8986L1150.28 42.5848L1151.51 41.2886L1152.76 42.5848ZM1153.05 46.0648L1151.94 44.9105L1153.03 43.7921L1154.13 44.9105L1153.05 46.0648ZM1155.74 42.567L1154.47 43.8809L1153.26 42.567L1154.49 41.2709L1155.74 42.567Z" fill="#605E5C"/>
<path d="M1163.19 42.6381C1163.98 42.6381 1164.63 42.5671 1165.18 42.4605C1165.71 42.3362 1166.13 42.1409 1166.44 41.8924C1166.72 41.6615 1166.9 41.3775 1167.04 41.0224C1167.18 40.6673 1167.23 40.2411 1167.23 39.7085H1165.79C1165.43 39.7085 1165.06 39.6552 1164.68 39.5309C1164.3 39.4066 1163.96 39.2291 1163.67 38.9805C1163.36 38.7142 1163.12 38.3768 1162.94 37.9685C1162.75 37.5601 1162.65 37.0452 1162.65 36.4415C1162.65 36.0864 1162.68 35.7668 1162.73 35.4828C1162.8 35.1987 1162.87 34.9324 1162.95 34.7193C1163.04 34.4885 1163.14 34.2932 1163.26 34.1334C1163.36 33.9736 1163.48 33.8315 1163.59 33.7073C1163.88 33.4054 1164.2 33.1746 1164.56 33.0148C1164.92 32.855 1165.33 32.7662 1165.74 32.7662C1166.12 32.7662 1166.46 32.8195 1166.77 32.9438C1167.09 33.0681 1167.38 33.2456 1167.62 33.4764C1168.32 34.1511 1168.67 35.2164 1168.67 36.6724V39.7262C1168.67 40.4897 1168.56 41.1466 1168.34 41.6971C1168.12 42.2475 1167.79 42.7091 1167.35 43.082C1166.89 43.4548 1166.32 43.7211 1165.66 43.9164C1164.99 44.1117 1164.15 44.1828 1163.19 44.1828V42.6381ZM1165.74 34.2754C1165.23 34.2754 1164.83 34.4707 1164.54 34.8436C1164.25 35.2164 1164.12 35.7491 1164.12 36.4415C1164.12 37.134 1164.32 37.6134 1164.71 37.8797C1164.82 37.9507 1164.92 38.004 1165.02 38.0395C1165.13 38.075 1165.23 38.1105 1165.33 38.1283C1165.43 38.146 1165.52 38.1638 1165.6 38.1638C1165.69 38.1638 1165.76 38.1815 1165.81 38.1815H1167.25V36.6546C1167.25 36.264 1167.21 35.9266 1167.16 35.6603C1167.11 35.394 1167.02 35.1632 1166.94 34.9856C1166.85 34.8081 1166.75 34.666 1166.65 34.5773C1166.53 34.4885 1166.43 34.4175 1166.32 34.3642C1166.22 34.3287 1166.12 34.2932 1166.01 34.2932C1165.91 34.2932 1165.79 34.2754 1165.74 34.2754Z" fill="#605E5C"/>
<path d="M1184.9 38.181V39.708H1184.61C1183.84 39.708 1183.12 39.3706 1182.47 38.7137C1182.07 39.2641 1181.39 39.6015 1180.42 39.7435C1180.23 39.7613 1180.04 39.7968 1179.83 39.8145C1179.63 39.8323 1179.42 39.8323 1179.2 39.8323C1178.94 39.8323 1178.67 39.8145 1178.4 39.7968C1178.12 39.779 1177.87 39.7257 1177.61 39.6902C1177.35 39.637 1177.11 39.5659 1176.88 39.4949C1176.64 39.4239 1176.41 39.3174 1176.23 39.1931L1175.59 38.8025L1176.33 37.4708L1176.98 37.8615C1177.17 37.968 1177.39 38.0568 1177.64 38.1278C1177.9 38.1988 1178.19 38.2343 1178.48 38.2698C1178.7 38.2876 1178.93 38.3053 1179.15 38.3053C1179.24 38.3053 1179.35 38.3053 1179.54 38.3053C1179.73 38.3053 1179.95 38.2876 1180.21 38.2521C1180.52 38.1988 1180.76 38.1278 1180.95 38.039C1181.13 37.9502 1181.27 37.8437 1181.32 37.7372C1181.37 37.6839 1181.39 37.6129 1181.39 37.5419C1181.39 37.4886 1181.37 37.3998 1181.34 37.2755C1181.3 37.1513 1181.22 36.9915 1181.1 36.7962L1178.17 32.1798L1179.41 31.3453L1182.42 36.1215C1182.57 36.3523 1182.72 36.5831 1182.89 36.8317C1183.05 37.0802 1183.22 37.2933 1183.39 37.5064C1183.56 37.7017 1183.75 37.8792 1183.96 38.0035C1184.14 38.1278 1184.37 38.1988 1184.61 38.1988H1184.9V38.181Z" fill="#605E5C"/>
<path d="M1189.98 33.139C1189.99 33.1745 1190.01 33.2633 1190.04 33.4054C1190.08 33.5474 1190.11 33.725 1190.15 33.9203C1190.18 34.1333 1190.23 34.3641 1190.28 34.6127C1190.33 34.8613 1190.37 35.1099 1190.4 35.3762C1190.44 35.6248 1190.47 35.8733 1190.49 36.1219C1190.52 36.3527 1190.52 36.5658 1190.52 36.7433C1190.52 37.2582 1190.44 37.7021 1190.28 38.075C1190.11 38.4478 1189.91 38.7495 1189.65 38.9982C1189.39 39.2468 1189.09 39.4243 1188.76 39.5486C1188.44 39.6729 1188.11 39.726 1187.77 39.726H1184.55V38.1992H1187.77C1187.84 38.1992 1187.96 38.1815 1188.09 38.1637C1188.23 38.146 1188.39 38.075 1188.52 37.9862C1188.66 37.8974 1188.8 37.7376 1188.9 37.5423C1189 37.347 1189.05 37.0807 1189.05 36.7433C1189.05 36.619 1189.05 36.477 1189.02 36.2994C1189 36.1219 1188.98 35.9264 1188.95 35.7133C1188.92 35.5003 1188.88 35.2874 1188.85 35.0743C1188.81 34.8613 1188.78 34.6482 1188.74 34.4529C1188.71 34.2576 1188.68 34.0799 1188.64 33.9378C1188.61 33.7958 1188.59 33.6717 1188.57 33.6007L1189.98 33.139ZM1187.65 42.7978L1186.38 44.1117L1185.17 42.7978L1186.4 41.5015L1187.65 42.7978ZM1190.64 42.7801L1189.38 44.0939L1188.16 42.7801L1189.39 41.4838L1190.64 42.7801Z" fill="#605E5C"/>
<path d="M1199.07 39.7087H1198.73C1198.24 39.7087 1197.77 39.6022 1197.36 39.4069C1197.36 40.1526 1197.26 40.8273 1197.06 41.4309C1196.85 42.0169 1196.56 42.5318 1196.17 42.9401C1195.77 43.3485 1195.29 43.6681 1194.73 43.8811C1194.16 44.0942 1193.52 44.2007 1192.78 44.2007H1191.7V42.6738H1192.78C1193.31 42.6738 1193.77 42.6028 1194.16 42.4785C1194.56 42.3364 1194.88 42.1411 1195.14 41.8748C1195.4 41.6085 1195.58 41.2534 1195.7 40.8273C1195.82 40.4011 1195.89 39.904 1195.89 39.3181V34.2756H1197.36V36.9389C1197.36 37.2407 1197.43 37.4716 1197.55 37.6491C1197.67 37.8267 1197.81 37.9509 1197.98 38.022C1198.13 38.093 1198.29 38.1462 1198.44 38.164C1198.59 38.1818 1198.7 38.1995 1198.75 38.1995H1199.09V39.7087H1199.07Z" fill="#605E5C"/>
<path d="M1209.25 36.4769C1209.21 36.4947 1209.08 36.6012 1208.84 36.761C1208.6 36.9208 1208.27 37.1339 1207.88 37.3647C1207.49 37.5955 1207.03 37.8618 1206.5 38.1281C1205.97 38.3945 1205.4 38.6608 1204.79 38.8916C1204.17 39.1224 1203.54 39.3177 1202.87 39.4598C1202.2 39.6196 1201.54 39.6906 1200.89 39.6906H1198.75V38.1637H1200.89C1201.47 38.1637 1202.05 38.0926 1202.65 37.9506C1203.25 37.8086 1203.81 37.631 1204.36 37.4179C1204.91 37.2049 1205.42 36.9741 1205.9 36.7255C1206.38 36.4769 1206.8 36.2461 1207.16 36.0153C1206.67 35.8022 1206.15 35.6069 1205.66 35.3939C1205.16 35.1986 1204.7 35.021 1204.29 34.8612C1203.88 34.7014 1203.52 34.5771 1203.21 34.4884C1202.92 34.3996 1202.72 34.3286 1202.61 34.3108C1202.53 34.3108 1202.43 34.3108 1202.34 34.3286C1202.24 34.3463 1202.15 34.3996 1202.05 34.4706C1201.96 34.5594 1201.86 34.6837 1201.78 34.8435C1201.69 35.0033 1201.6 35.2518 1201.54 35.5537L1200.12 35.163C1200.51 33.5651 1201.35 32.7661 1202.63 32.7661C1202.66 32.7661 1202.7 32.7661 1202.75 32.7661C1202.8 32.7661 1202.87 32.7839 1202.97 32.8016C1203.08 32.8194 1203.2 32.8726 1203.37 32.9081C1203.54 32.9614 1203.74 33.0324 1204 33.1212C1204.26 33.21 1204.56 33.3343 1204.94 33.4763C1205.32 33.6184 1205.74 33.7959 1206.26 34.009L1209.01 35.0743L1209.25 36.4769ZM1200.99 29.5347L1202.31 28.1498L1203.66 29.5524L1202.32 30.9373L1200.99 29.5347Z" fill="#605E5C"/>
<path d="M1164.55 65.4889C1163.74 65.4889 1163.01 65.3112 1162.36 64.9383C1161.71 64.5832 1161.18 64.0508 1160.77 63.3761C1160.49 62.9144 1160.29 62.4173 1160.17 61.8491C1160.08 61.423 1160.03 60.9612 1160.03 60.4996C1160.03 60.3575 1160.05 60.0914 1160.06 59.7008C1160.08 59.3102 1160.18 58.7596 1160.39 58.0671C1160.58 57.3747 1160.85 56.6469 1161.19 55.9012L1162.51 56.5581C1162.22 57.1795 1162 57.783 1161.83 58.3512C1161.65 58.9194 1161.55 59.4699 1161.52 59.9848C1161.5 60.1624 1161.5 60.3222 1161.5 60.482C1161.5 60.8016 1161.54 61.1567 1161.6 61.5118C1161.67 61.8669 1161.81 62.222 1162.03 62.5771C1162.3 63.021 1162.65 63.3583 1163.09 63.5891C1163.52 63.82 1164.02 63.9442 1164.56 63.9442H1166.39C1166.99 63.9442 1167.47 63.8732 1167.85 63.7489C1168.22 63.6246 1168.51 63.4292 1168.72 63.1983C1168.92 62.9675 1169.08 62.6834 1169.15 62.3461C1169.21 62.0087 1169.27 61.6361 1169.27 61.2277V55.5459H1170.74V58.0495C1170.74 58.2626 1170.79 58.4577 1170.86 58.6353C1170.92 58.8128 1171.03 58.9549 1171.15 59.0792C1171.27 59.2034 1171.4 59.2922 1171.57 59.3632C1171.75 59.4343 1171.93 59.4699 1172.14 59.4699H1172.45V60.9969H1172.14C1171.63 60.9969 1171.16 60.8726 1170.75 60.6418V61.21C1170.75 62.6304 1170.39 63.6955 1169.66 64.4057C1168.94 65.1159 1167.85 65.4712 1166.41 65.4712H1164.55V65.4889ZM1164.6 54.9424L1165.91 53.5575L1167.26 54.96L1165.93 56.345L1164.6 54.9424Z" fill="#605E5C"/>
<path d="M1180.59 59.4879V61.0148H1179.22C1178.74 61.0148 1178.33 60.9438 1177.97 60.8018C1177.61 60.6597 1177.32 60.4467 1177.1 60.1804C1176.55 60.7485 1175.76 61.0148 1174.7 61.0148H1172.07V59.4879H1174.7C1175.08 59.4879 1175.37 59.4524 1175.59 59.3636C1175.82 59.2748 1175.97 59.1861 1176.09 59.0795C1176.19 58.973 1176.28 58.831 1176.31 58.6889C1176.35 58.5469 1176.36 58.4048 1176.36 58.2806V55.5463H1177.82V58.2095C1177.82 58.4048 1177.85 58.5824 1177.9 58.7244C1177.95 58.8665 1178.04 58.9908 1178.12 59.0795C1178.21 59.1683 1178.31 59.2393 1178.43 59.3104C1178.53 59.3636 1178.65 59.3991 1178.76 59.4346C1178.86 59.4524 1178.96 59.4701 1179.03 59.4879C1179.12 59.4879 1179.17 59.4879 1179.22 59.4879H1180.59ZM1173.76 54.5165L1173.83 53.4867L1174.79 53.1848C1174.52 52.954 1174.31 52.6699 1174.21 52.3503C1174.16 52.2083 1174.14 52.0663 1174.14 51.9065C1174.14 51.8355 1174.14 51.7467 1174.17 51.6046C1174.21 51.4626 1174.26 51.3028 1174.34 51.1075C1174.45 50.9299 1174.58 50.7524 1174.74 50.6281C1174.91 50.4861 1175.08 50.3973 1175.29 50.3263C1175.42 50.273 1175.56 50.2552 1175.71 50.2552C1175.85 50.2552 1175.99 50.2552 1176.12 50.273C1176.26 50.2908 1176.38 50.3263 1176.5 50.3618C1176.62 50.3973 1176.72 50.4328 1176.84 50.4861L1176.65 51.3028C1176.57 51.285 1176.47 51.2673 1176.38 51.2318C1176.29 51.1963 1176.17 51.1963 1176.09 51.1785C1176 51.1608 1175.9 51.1608 1175.82 51.1608C1175.73 51.1608 1175.66 51.1785 1175.59 51.1963C1175.51 51.2318 1175.42 51.2673 1175.35 51.3383C1175.29 51.3916 1175.22 51.4626 1175.17 51.5336C1175.11 51.6046 1175.08 51.6934 1175.06 51.7822C1175.06 51.8177 1175.06 51.8532 1175.06 51.871C1175.06 51.942 1175.08 51.9952 1175.1 52.0663C1175.13 52.1728 1175.18 52.2793 1175.27 52.3681C1175.35 52.4569 1175.47 52.5279 1175.61 52.5812C1175.75 52.6344 1175.94 52.6522 1176.12 52.6522C1176.31 52.6522 1176.57 52.6167 1176.84 52.5457L1177.51 52.3503L1177.77 53.2204L1173.76 54.5165Z" fill="#605E5C"/>
<path d="M1189.39 61.0144C1189.02 61.0144 1188.68 60.9611 1188.35 60.8368C1188.03 60.7303 1187.74 60.5705 1187.46 60.3575C1187.33 60.5883 1187.17 60.7658 1187 60.9079C1186.83 61.0499 1186.66 61.1564 1186.5 61.2275C1186.33 61.2985 1186.18 61.3517 1186.03 61.3695C1185.87 61.3873 1185.73 61.405 1185.62 61.405C1185.36 61.405 1185.12 61.3872 1184.88 61.334C1184.64 61.2807 1184.4 61.2097 1184.16 61.1032C1183.92 60.9966 1183.67 60.8724 1183.39 60.7303C1183.12 60.5883 1182.83 60.4285 1182.5 60.2332C1182.07 60.7481 1181.53 61.0144 1180.86 61.0144H1180.26V59.4875H1180.86C1181.07 59.4875 1181.22 59.4164 1181.34 59.2566C1181.46 59.0968 1181.58 58.9015 1181.66 58.6707C1181.75 58.4221 1181.84 58.1558 1181.92 57.8362C1182.01 57.5166 1182.09 57.197 1182.19 56.8775C1182.3 56.5579 1182.42 56.2205 1182.55 55.9187C1182.69 55.5991 1182.88 55.3328 1183.08 55.0842C1183.31 54.8356 1183.56 54.6403 1183.87 54.4983C1184.18 54.3562 1184.55 54.2675 1185 54.2675C1185.51 54.2675 1185.94 54.374 1186.32 54.5693C1186.69 54.7646 1187 55.0487 1187.26 55.386C1187.51 55.7234 1187.68 56.114 1187.82 56.5579C1187.94 57.0017 1188.01 57.4634 1188.01 57.925C1188.01 58.2801 1188.08 58.5642 1188.2 58.7595C1188.32 58.9726 1188.45 59.1324 1188.62 59.2211C1188.78 59.3277 1188.93 59.3987 1189.09 59.4164C1189.24 59.4519 1189.34 59.4519 1189.39 59.4519H1189.67V60.9789H1189.39V61.0144ZM1185.6 59.8781C1185.63 59.8781 1185.68 59.8781 1185.75 59.8781C1185.82 59.8781 1185.89 59.8603 1185.96 59.8071C1186.03 59.7538 1186.11 59.7183 1186.18 59.6295C1186.25 59.5407 1186.32 59.4342 1186.38 59.2922C1186.45 59.1501 1186.49 58.9726 1186.54 58.7417C1186.57 58.5109 1186.59 58.2446 1186.59 57.925C1186.59 57.8717 1186.59 57.7652 1186.57 57.6409C1186.56 57.5166 1186.54 57.3746 1186.5 57.2148C1186.47 57.055 1186.42 56.8952 1186.35 56.7177C1186.28 56.5579 1186.18 56.3981 1186.06 56.256C1185.94 56.114 1185.8 56.0075 1185.63 55.9187C1185.46 55.8299 1185.26 55.7944 1185.02 55.7944C1184.79 55.7944 1184.59 55.8299 1184.43 55.9187C1184.28 56.0075 1184.14 56.114 1184.04 56.256C1183.94 56.3981 1183.84 56.5756 1183.77 56.7709C1183.7 56.9662 1183.63 57.1793 1183.56 57.4101C1183.49 57.6409 1183.44 57.8717 1183.37 58.1203C1183.31 58.3689 1183.24 58.6175 1183.15 58.866C1183.43 59.0081 1183.67 59.1324 1183.9 59.2566C1184.13 59.3809 1184.35 59.4875 1184.54 59.5762C1184.74 59.665 1184.91 59.736 1185.1 59.7893C1185.27 59.8426 1185.43 59.8781 1185.6 59.8781Z" fill="#605E5C"/>
<path d="M1201.02 61.0145H1189.36V59.4876H1191.1C1191.24 59.2745 1191.36 59.0615 1191.48 58.8484C1191.6 58.6176 1191.74 58.4045 1191.87 58.1915V49.4915H1193.33V56.0076C1193.55 55.7413 1193.79 55.4749 1194.03 55.2441C1194.27 55.0133 1194.52 54.8002 1194.8 54.6227C1195.07 54.4451 1195.34 54.3208 1195.64 54.2143C1195.93 54.1078 1196.23 54.0723 1196.56 54.0723C1196.94 54.0723 1197.31 54.1433 1197.69 54.2853C1198.05 54.4274 1198.39 54.6582 1198.66 54.96C1198.95 55.2619 1199.18 55.6525 1199.36 56.1141C1199.53 56.5757 1199.62 57.1261 1199.62 57.7653C1199.62 58.1204 1199.59 58.44 1199.52 58.7241C1199.45 59.0082 1199.35 59.2745 1199.23 59.5053H1201.04V61.0145H1201.02ZM1196.46 59.4876C1196.7 59.4876 1196.92 59.4521 1197.12 59.381C1197.33 59.31 1197.5 59.2035 1197.65 59.0615C1197.81 58.9194 1197.93 58.7419 1198.01 58.5288C1198.1 58.3157 1198.15 58.0494 1198.15 57.7476C1198.15 57.0729 1198.01 56.5402 1197.72 56.1496C1197.45 55.7768 1197.06 55.5815 1196.54 55.5815C1196.3 55.5815 1196.06 55.6347 1195.84 55.7413C1195.62 55.8478 1195.4 56.0076 1195.17 56.1851C1194.95 56.3804 1194.75 56.5935 1194.52 56.8598C1194.32 57.1084 1194.11 57.3925 1193.93 57.6766C1193.74 57.9606 1193.55 58.2625 1193.36 58.5643C1193.17 58.8661 1193 59.168 1192.85 59.4521C1192.83 59.4698 1192.83 59.4698 1192.83 59.4876H1196.46Z" fill="#605E5C"/>
<path d="M1205.76 54.2675C1206.27 54.2675 1206.7 54.374 1207.08 54.5693C1207.45 54.7646 1207.76 55.0487 1208.02 55.386C1208.27 55.7234 1208.45 56.114 1208.58 56.5579C1208.7 57.0017 1208.77 57.4634 1208.77 57.925C1208.77 58.4399 1208.74 58.9015 1208.65 59.2744C1208.57 59.6472 1208.45 59.9668 1208.31 60.2154C1208.17 60.464 1208.02 60.677 1207.83 60.8368C1207.64 60.9966 1207.49 61.1209 1207.3 61.1919C1207.13 61.2807 1206.94 61.334 1206.79 61.3517C1206.62 61.3872 1206.48 61.3872 1206.36 61.3872C1206.1 61.3872 1205.86 61.3695 1205.62 61.3162C1205.38 61.263 1205.15 61.1919 1204.91 61.0854C1204.67 60.9789 1204.41 60.8546 1204.14 60.7126C1203.86 60.5705 1203.57 60.4107 1203.25 60.2154C1202.82 60.7303 1202.27 60.9966 1201.61 60.9966H1200.72V59.4697H1201.61C1201.81 59.4697 1201.96 59.3987 1202.08 59.2389C1202.2 59.0791 1202.32 58.8838 1202.41 58.653C1202.49 58.4044 1202.58 58.1381 1202.67 57.8185C1202.75 57.4989 1202.84 57.1793 1202.94 56.8597C1203.04 56.5401 1203.16 56.2028 1203.3 55.9009C1203.44 55.5991 1203.62 55.315 1203.83 55.0664C1204.05 54.8179 1204.31 54.6226 1204.62 54.4805C1204.92 54.3385 1205.32 54.2675 1205.76 54.2675ZM1206.34 59.8781C1206.38 59.8781 1206.43 59.8781 1206.5 59.8781C1206.56 59.8781 1206.63 59.8603 1206.7 59.807C1206.77 59.7538 1206.86 59.7183 1206.92 59.6295C1206.99 59.5407 1207.06 59.4342 1207.13 59.2921C1207.2 59.1501 1207.23 58.9726 1207.28 58.7417C1207.32 58.5109 1207.33 58.2446 1207.33 57.925C1207.33 57.8717 1207.33 57.7652 1207.32 57.6409C1207.3 57.5166 1207.28 57.3746 1207.25 57.2148C1207.21 57.055 1207.16 56.8952 1207.09 56.7177C1207.03 56.5579 1206.92 56.3981 1206.8 56.256C1206.68 56.114 1206.53 56.0075 1206.38 55.9187C1206.21 55.8299 1206 55.7944 1205.76 55.7944C1205.54 55.7944 1205.33 55.8299 1205.18 55.9187C1205.03 56.0075 1204.89 56.114 1204.79 56.256C1204.68 56.3981 1204.58 56.5756 1204.51 56.7709C1204.44 56.9662 1204.38 57.1793 1204.31 57.4101C1204.24 57.6409 1204.19 57.8717 1204.12 58.1203C1204.05 58.3689 1203.98 58.6175 1203.9 58.866C1204.17 59.0081 1204.41 59.1324 1204.65 59.2566C1204.87 59.3809 1205.09 59.4875 1205.28 59.5762C1205.49 59.665 1205.66 59.736 1205.85 59.7893C1206.02 59.8426 1206.19 59.8781 1206.34 59.8781Z" fill="#605E5C"/>
</svg>
