<svg width="96" height="39" viewBox="0 0 96 39" fill="none" xmlns="http://www.w3.org/2000/svg">
<path d="M53.1066 15.7005C52.8338 14.8723 52.5503 13.9384 52.2539 13.119C52.0846 12.6663 51.9554 12.3022 51.7886 11.811C51.6458 11.3569 51.4639 10.9163 51.3604 10.4741H51.2066C51.0639 11.0166 47.2749 14.3025 47.2749 14.5729C47.2749 14.8193 47.6885 15.9098 47.793 16.2327L48.903 19.5153C49.3027 20.8638 49.706 22.8976 48.0764 23.4695C47.8166 23.5596 47.3901 23.6 47.1583 23.5866C45.0879 23.4319 41.9584 23.845 40.836 23.2106C40.319 22.9112 40.0182 22.5882 39.7076 22.083C39.4121 21.5883 39.2302 21.1087 39.102 20.4487C38.9737 19.8127 38.806 19.3331 38.806 18.5029V3.57446H33.5184V19.5404C33.5184 20.4217 33.3211 21.3044 32.9568 21.7976C32.017 23.1055 29.4687 23.1055 28.5118 21.8346C28.1476 21.3555 27.9159 20.5273 27.9159 19.7091V3.57446H22.3169V18.2546C22.3169 19.7346 22.5486 20.0846 22.0968 21.33C21.4505 23.1055 18.4501 23.2361 17.3906 21.8346C17.0284 21.3555 16.7966 20.5273 16.7966 19.7091V3.57446H11.1212V27.0885C11.1212 31.4727 7.14653 30.7313 6.21621 29.6822C5.82926 29.2396 5.52218 28.3709 5.52218 27.5697V3.57446H0V27.8145C0 28.9166 0.346785 30.2399 0.670987 31.0681C1.05794 32.0424 1.57796 32.808 2.26001 33.4815C5.92217 37.1531 16.3159 36.6976 16.3159 27.4916C18.4781 27.9949 20.6486 28.1274 22.7943 27.3994C23.428 27.1937 24.631 26.6088 24.9552 26.1292C25.8615 26.7245 26.1635 27.1666 27.9591 27.6207C29.9291 28.1192 31.9961 28.046 33.9223 27.3928C35.1586 26.9762 35.0087 26.8518 35.9215 26.362C36.3084 26.6209 36.5944 26.9198 37.02 27.1787C39.3477 28.6427 43.0453 28.2943 45.9936 28.2943C49.2654 28.2943 53.378 27.7635 54.2811 24.0919C55.1 20.8247 54.0881 18.6582 53.1066 15.7005ZM67.5109 19.7483C67.5109 21.2769 66.2702 22.5221 64.7449 22.5221C63.2299 22.5221 61.9883 21.2769 61.9883 19.7483V9.77321C61.9883 8.25464 63.2299 7.0113 64.7449 7.0113C66.2702 7.0113 67.5109 8.25464 67.5109 9.77321V19.7483ZM68.9194 2.97915C67.7188 2.49803 66.866 2.46043 65.4308 2.30379C65.0555 2.26466 63.9938 2.40921 63.5932 2.46042C62.9851 2.52492 62.4023 2.68172 61.9117 2.84803C59.3249 3.70377 57.7364 5.92325 57.2448 8.59302C57.1254 9.21734 57.0369 9.79875 57.0369 10.4741V19.6325C57.0369 22.8351 58.3942 25.9609 61.3932 27.2157C63.0248 27.9067 64.9123 28.007 66.7229 27.8145C67.0977 27.7756 67.4204 27.67 67.7566 27.6462C67.7566 33.1855 65.661 32.381 59.6755 32.381V36.0766C65.8303 36.0766 72.1937 37.1276 73.1883 30.1224C73.5375 27.6462 73.3697 23.7938 73.3556 20.9914L73.432 10.7992C73.432 7.47899 72.1023 4.2595 68.9194 2.97915ZM46.3423 14.275C47.2899 13.3416 48.8266 11.4471 49.7826 10.4978C50.4036 9.8773 51.5427 8.47731 52.2142 7.81402L58.1774 1.26634C58.3811 1.04549 58.4339 0.941855 58.6524 0.710436C58.8489 0.514667 59.042 0.411042 59.1173 0.125092H53.9977C52.8454 0.111648 53.3262 0.22737 52.1373 1.39594C51.9157 1.60319 51.878 1.6698 51.6981 1.90257C51.5297 2.10846 51.3604 2.23914 51.1785 2.4334L42.8257 11.7054C42.6186 11.9518 42.58 12.0305 42.3357 12.2633C42.0619 12.5371 40.4588 14.2634 40.395 14.4963H45.5166C46.0578 14.4963 46.0578 14.5729 46.3423 14.275ZM89.0532 30.7977C88.5875 31.2634 88.084 32.1192 88.084 33.0273C88.084 35.3878 90.3864 37.359 92.8297 36.1788C94.9527 35.1548 95.389 32.4454 93.6951 30.7586C92.4147 29.4763 90.3332 29.5134 89.0532 30.7977ZM29.9689 36.993C29.817 36.993 29.6854 37.046 29.5799 37.1531C29.472 37.262 29.4184 37.3914 29.4184 37.5427C29.4184 37.6954 29.472 37.8265 29.5799 37.9321C29.6854 38.0412 29.817 38.0938 29.9689 38.0938C30.1178 38.0938 30.247 38.0412 30.3549 37.9321C30.4628 37.8265 30.5189 37.6954 30.5189 37.5427C30.5189 37.3914 30.4628 37.262 30.3549 37.1531C30.247 37.046 30.1178 36.993 29.9689 36.993ZM28.4239 36.993C28.2705 36.993 28.139 37.046 28.0355 37.1531C27.9266 37.262 27.8715 37.3914 27.8715 37.5427C27.8715 37.6954 27.9266 37.8265 28.0355 37.9321C28.139 38.0412 28.2705 38.0938 28.4239 38.0938C28.5714 38.0938 28.7025 38.0412 28.8085 37.9321C28.9158 37.8265 28.9709 37.6954 28.9709 37.5427C28.9709 37.3914 28.9158 37.262 28.8085 37.1531C28.7025 37.046 28.5714 36.993 28.4239 36.993ZM33.6281 34.0273C33.6089 33.9134 33.5881 33.7992 33.5696 33.6835C33.5473 33.5698 33.5257 33.4675 33.5063 33.3773C33.4895 33.2825 33.4705 33.2044 33.4531 33.1377C33.4361 33.0746 33.4265 33.0341 33.4221 33.0172L32.5543 33.2805C32.5644 33.3162 32.5761 33.3707 32.5931 33.4371C32.6105 33.5071 32.6293 33.5832 32.6483 33.6652C32.6631 33.7467 32.6805 33.8349 32.699 33.927C32.7198 34.0205 32.7357 34.1107 32.7487 34.1989C32.7638 34.2891 32.7768 34.3725 32.7856 34.4491C32.7928 34.5272 32.8001 34.5918 32.8001 34.6497C32.8001 34.7788 32.7768 34.8829 32.7357 34.9592C32.6927 35.0338 32.6452 35.0883 32.5902 35.1279C32.534 35.1636 32.4783 35.1852 32.4233 35.1959C32.3671 35.204 32.324 35.2093 32.2971 35.2093H31.4345H30.8875C30.8637 35.2093 30.8226 35.206 30.7588 35.2007C30.6973 35.1939 30.6354 35.175 30.5745 35.1429C30.5125 35.1125 30.4549 35.0666 30.4042 35.0054C30.3563 34.939 30.3311 34.8541 30.3311 34.7417V33.5665H29.414V34.7672C29.414 34.8165 29.4073 34.8675 29.3937 34.922C29.3806 34.9711 29.3492 35.0171 29.3051 35.0593C29.2579 35.1024 29.191 35.1381 29.1025 35.1649C29.012 35.1939 28.8926 35.2093 28.7436 35.2093H27.4622H26.0028C25.8825 35.2093 25.7741 35.2007 25.6788 35.1838C25.5815 35.1684 25.4867 35.1414 25.4006 35.1024C25.3121 35.0666 25.2269 35.0122 25.1452 34.9456C25.061 34.8811 24.9779 34.7977 24.8855 34.7007C24.7936 34.5985 24.6943 34.4795 24.589 34.3402C24.4791 34.1989 24.3563 34.0359 24.2213 33.8523L23.0865 32.3095L25.9966 30.9693L25.6202 30.1242L22.3222 31.6805L22.1263 32.4778C22.2061 32.5766 22.2985 32.6957 22.4126 32.837C22.5046 32.956 22.6207 33.1089 22.7634 33.2959C22.9022 33.4796 23.0662 33.7024 23.2525 33.9607C23.3022 34.0291 23.3463 34.0971 23.3869 34.1633C23.426 34.2331 23.4672 34.2992 23.4948 34.3657C23.5271 34.4304 23.5533 34.4935 23.5708 34.5527C23.5886 34.6125 23.5973 34.6651 23.5973 34.7128C23.5973 34.7417 23.5953 34.774 23.5887 34.803C23.5852 34.8367 23.577 34.8642 23.5649 34.8811V34.8791C23.5306 34.9355 23.4725 34.9867 23.3927 35.029C23.3105 35.0714 23.1997 35.1071 23.0594 35.138C22.9172 35.1669 22.7459 35.1906 22.5457 35.206C22.3449 35.2228 22.1109 35.2296 21.8418 35.2296L19.6506 35.2175C19.6043 35.2175 19.5548 35.2108 19.4988 35.1972C19.4403 35.1852 19.3889 35.1583 19.3392 35.1226C19.2926 35.0835 19.2507 35.029 19.2182 34.9543C19.1838 34.8811 19.1688 34.7856 19.1688 34.6665C19.1688 34.5985 19.1741 34.5223 19.1891 34.4303C19.2046 34.3386 19.2249 34.2432 19.2443 34.1464C19.2704 34.0476 19.2917 33.9539 19.3173 33.8604C19.3392 33.7689 19.3648 33.6868 19.3851 33.6208L18.9502 33.4849L18.5115 33.3452C18.5028 33.3658 18.4843 33.4251 18.4574 33.5172C18.4316 33.6107 18.4017 33.7231 18.3737 33.8523C18.3406 33.9814 18.3122 34.1155 18.2905 34.2601C18.2647 34.4066 18.2508 34.5393 18.2508 34.6651C18.2508 34.8044 18.2647 34.937 18.2938 35.0512C18.3185 35.1649 18.3552 35.2705 18.394 35.3622C18.4384 35.4509 18.4843 35.531 18.5395 35.5989C18.5889 35.6634 18.643 35.7228 18.6914 35.7685C18.8152 35.8876 18.9609 35.9778 19.1249 36.0409C19.2884 36.1003 19.4586 36.1326 19.642 36.1326L21.8376 36.15C22.1142 36.15 22.3784 36.1445 22.6318 36.1359C22.8819 36.1258 23.1121 36.0954 23.3225 36.0424C23.5339 35.9918 23.7202 35.9098 23.8871 35.7976C24.0535 35.6856 24.1851 35.529 24.2851 35.3266C24.3959 35.4509 24.5038 35.5633 24.6188 35.6616C24.7321 35.7604 24.8526 35.8438 24.9899 35.9133C25.1245 35.983 25.2735 36.0356 25.4384 36.0732C25.6042 36.1142 25.7861 36.1326 25.9966 36.1326H25.9975H26.0028H26.0052H26.0763H27.5439H27.5464H28.7436C28.9831 36.1326 29.1963 36.1056 29.387 36.0497C29.5766 35.9985 29.7406 35.9118 29.8764 35.7941C29.996 35.905 30.1415 35.9899 30.3138 36.0462C30.484 36.1036 30.6752 36.1326 30.8875 36.1326H31.2851H32.2689C32.4382 36.1326 32.6075 36.1036 32.7768 36.0424C32.9471 35.985 33.0966 35.893 33.2335 35.7725C33.3694 35.6515 33.4791 35.5 33.5624 35.3097C33.6462 35.124 33.6897 34.9031 33.6897 34.6497C33.6897 34.5663 33.6819 34.4726 33.6703 34.3657C33.6616 34.2533 33.6462 34.1411 33.6281 34.0273ZM33.0999 31.9355C33.2156 31.8231 33.2688 31.6852 33.2688 31.5272C33.2688 31.3656 33.2156 31.2296 33.0999 31.1154C32.9858 31.0036 32.8533 30.9491 32.6937 30.9491C32.534 30.9491 32.3951 31.0036 32.283 31.1154C32.1688 31.2296 32.1137 31.3656 32.1137 31.5272C32.1137 31.6852 32.1688 31.8231 32.283 31.9355C32.3951 32.0477 32.534 32.1056 32.6937 32.1056C32.8533 32.1056 32.9858 32.0477 33.0999 31.9355ZM36.6867 35.2093H36.1188C36.0332 35.2093 35.9486 35.1992 35.8645 35.1751C35.7827 35.153 35.7082 35.1192 35.6396 35.0701C35.5714 35.0223 35.5151 34.9592 35.4712 34.8811C35.431 34.8044 35.4074 34.7128 35.4074 34.6039C35.4074 34.3281 35.4688 34.1242 35.5941 33.993C35.7169 33.8604 35.8795 33.7977 36.0919 33.7977C36.1175 33.7977 36.1479 33.7992 36.1866 33.806C36.2263 33.8093 36.2698 33.8234 36.3095 33.8436C36.3559 33.8639 36.3989 33.8927 36.4455 33.9319C36.4894 33.9728 36.5305 34.0258 36.5682 34.0918C36.6016 34.1598 36.6331 34.2418 36.6514 34.3435C36.6751 34.4423 36.6867 34.5628 36.6867 34.7041V35.2093ZM37.2483 33.3962C37.1298 33.2332 36.9721 33.1036 36.7816 33.0119C36.5885 32.9184 36.3612 32.8727 36.0919 32.8727C35.8731 32.8727 35.6729 32.9118 35.4862 32.9932C35.2985 33.0733 35.1293 33.187 34.9827 33.335C34.9313 33.3914 34.8748 33.4593 34.8191 33.5341C34.764 33.6087 34.7112 33.6989 34.6649 33.7992C34.6198 33.9015 34.583 34.0186 34.5525 34.1517C34.5236 34.2808 34.5095 34.4337 34.5095 34.6039C34.5095 34.801 34.5322 34.9779 34.5797 35.1312C34.6203 35.2841 34.6841 35.4166 34.7631 35.529C34.8395 35.6427 34.9313 35.7349 35.0335 35.813C35.1412 35.8876 35.252 35.9507 35.3721 36.0019C35.4891 36.0477 35.6144 36.082 35.7407 36.1003C35.8687 36.1225 35.9945 36.1326 36.1188 36.1326H36.6867C36.677 36.3196 36.6446 36.4696 36.592 36.5818C36.5402 36.6923 36.4627 36.7891 36.3578 36.8726C36.291 36.9305 36.2146 36.9815 36.1223 37.0205C36.0332 37.063 35.9303 37.0938 35.8074 37.1208C35.6888 37.1445 35.5529 37.1652 35.3966 37.1806C35.2458 37.1941 35.0677 37.2009 34.8699 37.2009V38.1241C35.1273 38.1241 35.3599 38.1125 35.5617 38.0918C35.7643 38.0701 35.9486 38.0377 36.1146 37.9935C36.2815 37.9477 36.4294 37.8932 36.561 37.8285C36.6955 37.764 36.815 37.6853 36.9315 37.5971C37.1565 37.4183 37.3258 37.2009 37.437 36.9507C37.5487 36.6991 37.6039 36.3895 37.6039 36.0187V34.7041C37.6039 34.4423 37.5774 34.1989 37.5187 33.9748C37.4606 33.7519 37.3732 33.5577 37.2483 33.3962ZM45.9602 32.3621C46.0666 32.2536 46.1169 32.1225 46.1169 31.9712C46.1169 31.8218 46.0666 31.6887 45.9602 31.585C45.8508 31.4746 45.7227 31.4216 45.5727 31.4216C45.4179 31.4216 45.2892 31.4746 45.1804 31.585C45.0725 31.6887 45.0222 31.8218 45.0222 31.9712C45.0222 32.1225 45.0725 32.2536 45.1804 32.3621C45.2892 32.4696 45.4179 32.5255 45.5727 32.5255C45.7227 32.5255 45.8508 32.4696 45.9602 32.3621ZM44.4123 32.3621C44.5196 32.2536 44.5747 32.1225 44.5747 31.9712C44.5747 31.8218 44.5196 31.6887 44.4123 31.585C44.3043 31.4746 44.1785 31.4216 44.0277 31.4216C43.8734 31.4216 43.7428 31.4746 43.6364 31.585C43.528 31.6887 43.4748 31.8218 43.4748 31.9712C43.4748 32.1225 43.528 32.2536 43.6364 32.3621C43.7428 32.4696 43.8734 32.5255 44.0277 32.5255C44.1785 32.5255 44.3043 32.4696 44.4123 32.3621ZM52.2451 34.5782C52.2451 34.7027 52.2369 34.801 52.2186 34.8743C52.2011 34.9456 52.1696 35.0015 52.1325 35.0358C52.0753 35.0903 51.9771 35.1346 51.8387 35.1636C51.7043 35.1939 51.518 35.2074 51.284 35.2074C51.1321 35.2074 50.9942 35.1805 50.869 35.1328C50.7452 35.0815 50.6232 35.0087 50.5081 34.9133C50.3949 34.8145 50.2828 34.6992 50.1651 34.558C50.0554 34.4202 49.9291 34.2568 49.7965 34.0784C49.563 33.7669 49.3312 33.456 49.1005 33.1479C48.8721 32.8418 48.6381 32.5308 48.4073 32.2213L51.2129 30.9168L50.8384 30.0731L47.627 31.6341L47.4718 32.3876C47.6561 32.6157 47.8404 32.8438 48.0237 33.0665C48.2051 33.2926 48.3642 33.5031 48.5099 33.7042C48.6554 33.9015 48.7706 34.087 48.8591 34.2467C48.9496 34.4115 48.995 34.5461 48.995 34.655C48.9893 34.7553 48.9549 34.8435 48.8935 34.9152C48.8354 34.988 48.7556 35.0459 48.6554 35.0884C48.5538 35.1328 48.4344 35.1616 48.2975 35.1805C48.1596 35.1992 48.0097 35.2093 47.8457 35.2093H46.6388H46.2432C46.2174 35.2093 46.1754 35.206 46.1139 35.1992C46.0525 35.1939 45.9911 35.1751 45.9298 35.1447C45.8662 35.1139 45.8097 35.0666 45.7594 35.0034C45.711 34.9403 45.6863 34.8521 45.6863 34.7417V33.5645H44.7688V34.7687C44.7688 34.8164 44.7606 34.869 44.7504 34.9201C44.7343 34.9693 44.7063 35.0188 44.6599 35.0613C44.6135 35.1037 44.5472 35.1394 44.4582 35.1669C44.3677 35.1959 44.2474 35.2093 44.0964 35.2093H42.9001H41.4331H41.3527H41.2942C41.2704 35.2093 41.2318 35.2041 41.1704 35.1891C41.1143 35.177 41.0528 35.153 40.987 35.1139C40.9246 35.0782 40.8695 35.0223 40.8245 34.9524C40.7747 34.8829 40.7491 34.7909 40.7491 34.6785V33.5698H39.8304V35.8284C39.8304 36.0766 39.8034 36.2892 39.7487 36.4642C39.694 36.6377 39.6118 36.7809 39.4995 36.8894C39.3898 36.997 39.2476 37.0766 39.0739 37.1261C38.9037 37.1754 38.6991 37.2009 38.4596 37.2009H37.9992V38.1241H38.4596C38.7947 38.1241 39.0986 38.0716 39.3661 37.9726C39.6355 37.869 39.8681 37.7278 40.0612 37.5427C40.2542 37.3571 40.4095 37.1362 40.5261 36.8759C40.6402 36.619 40.7133 36.3282 40.7457 36.0101C40.8307 36.0679 40.9168 36.1022 41.0064 36.1124C41.0969 36.1258 41.1936 36.1344 41.2942 36.1344H41.3527H41.4331H42.8169H44.0964C44.3377 36.1344 44.552 36.1036 44.7421 36.053C44.9294 35.9966 45.0943 35.9098 45.2312 35.7927C45.3488 35.9065 45.4963 35.9918 45.6689 36.0477C45.8393 36.1036 46.0298 36.1344 46.2432 36.1344H46.7878H47.8718C48.0324 36.1344 48.194 36.119 48.358 36.0954C48.5452 36.068 48.7246 36.0207 48.89 35.9522C49.0569 35.8876 49.2041 35.7994 49.3321 35.6924C49.4619 35.58 49.5595 35.4489 49.618 35.2942C49.7279 35.4201 49.8352 35.5343 49.9431 35.6394C50.0519 35.7382 50.1666 35.8264 50.2976 35.8997C50.4239 35.9729 50.5695 36.029 50.7302 36.0699C50.8796 36.1109 51.0591 36.1291 51.2593 36.1311V36.1344C51.2681 36.1344 51.2743 36.1311 51.2829 36.1311C51.2884 36.1311 51.2913 36.1344 51.297 36.1344H51.4059V36.1291C51.537 36.1258 51.6599 36.119 51.772 36.1075C51.9263 36.0867 52.0623 36.0646 52.1852 36.029C52.3066 35.9951 52.4179 35.9489 52.5117 35.8983C52.6084 35.8438 52.696 35.7826 52.7724 35.7112C52.8576 35.6278 52.9267 35.5376 52.977 35.4408C53.0297 35.3453 53.0699 35.2485 53.0969 35.1515C53.1236 35.0512 53.141 34.9524 53.1496 34.8574C53.1584 34.7605 53.1613 34.6651 53.1613 34.5782V30.7843H52.2451V34.5782ZM54.3987 36.1326H55.3201V30.7823H54.3987V36.1326ZM96 3.74954V19.7058C96 22.0762 95.122 24.4047 93.9408 25.5902C91.9479 27.5716 90.1915 27.8979 87.3622 27.8979C86.3638 27.8979 85.9555 27.7142 85.2818 27.653C85.2818 32.4951 83.88 35.153 79.5396 35.8471C78.2258 36.08 76.6696 36.1581 75.098 36.1533C74.9751 36.1533 74.876 36.051 74.876 35.9287L74.874 32.3742C77.0329 32.3742 79.1709 32.4951 79.5797 29.6344C79.8675 27.7344 79.6 19.7261 79.6 17.1324V3.74954H85.2019V19.6257C85.2019 20.6665 85.3465 21.1564 85.7548 21.8111C86.446 22.9946 88.6232 22.9946 89.6222 22.3621C90.6027 21.7499 90.8043 20.401 90.8043 19.1528V3.74954H96Z" fill="#0094D4"/>
</svg>
