<svg width="103" height="38" viewBox="0 0 103 38" fill="none" xmlns="http://www.w3.org/2000/svg">
<path d="M61.4955 1.67215C62.0788 1.02961 61.6229 0 60.7551 0H57.1398C56.8578 0 56.5889 0.11906 56.3994 0.32785L44.323 13.6307C43.7397 14.2732 44.1956 15.3028 45.0635 15.3028H48.6788C48.9608 15.3028 49.2296 15.1838 49.4192 14.975L61.4955 1.67215Z" fill="white"/>
<path d="M97.7664 2.95166C97.2142 2.95166 96.7664 3.39938 96.7664 3.95166V20.729C96.7664 22.3136 95.4854 23.616 93.8795 23.616C92.2948 23.616 90.9923 22.3352 90.9923 20.729V3.95166C90.9923 3.39937 90.5445 2.95166 89.9923 2.95166H86.3487C85.7964 2.95166 85.3487 3.39938 85.3487 3.95166V20.8376V21.4888C85.3487 21.5321 85.3487 21.5756 85.3487 21.619L85.3918 28.8254C85.3919 28.8494 85.4114 28.8688 85.4355 28.8688C85.4027 28.8688 85.3917 28.909 85.3909 28.9418C85.3669 29.9981 85.2591 30.8052 85.047 31.445C85.0455 31.4496 85.0448 31.4571 85.0446 31.4619C85.0436 31.4809 85.0189 31.4857 85.0125 31.5036C84.6356 32.5518 83.6662 33.3195 82.5051 33.4054H80.7701C80.2179 33.4054 79.7701 33.8532 79.7701 34.4054V36.4428C79.7701 36.9951 80.2178 37.4428 80.7701 37.4428C81.7451 37.4428 82.8102 37.4428 82.9808 37.4428C82.9965 37.4428 83.0124 37.4424 83.0281 37.4416C87.1414 37.2431 90.4727 36.109 91.1876 31.0828C91.225 30.8215 91.2543 30.548 91.279 30.2642C91.3328 29.6484 91.9121 29.2159 92.5287 29.2602C92.7233 29.2742 92.9202 29.2812 93.1194 29.2812H94.6388C98.9365 29.2812 102.41 25.8083 102.41 21.5104V3.95166C102.41 3.39938 101.962 2.95166 101.41 2.95166H97.7664Z" fill="white"/>
<path d="M78.2289 21.6845C78.2289 21.5977 78.2289 21.5325 78.2289 21.4457V15.585V15.3029V9.44219C78.2289 5.14437 74.7559 1.67139 70.4581 1.67139H68.9387C64.6409 1.67139 61.1678 5.14437 61.1678 9.44219V15.3029V15.585V21.4457C61.1678 25.7435 64.6409 29.2165 68.9387 29.2165H70.4581C70.7536 29.2165 71.0492 29.2 71.3392 29.1668C71.7764 29.1169 72.196 29.4283 72.1729 29.8677C72.1297 30.4725 72.022 30.9913 71.8926 31.4242C71.8914 31.4284 71.8908 31.4355 71.8906 31.4399C71.8898 31.4593 71.8648 31.4646 71.8582 31.4829C71.4812 32.5309 70.5119 33.2982 69.3511 33.3841H64.5772C64.0249 33.3841 63.5772 33.8318 63.5772 34.3841V36.4214C63.5772 36.9737 64.0249 37.4214 64.5772 37.4214C66.3694 37.4214 69.5389 37.4214 69.829 37.4214C69.8448 37.4214 69.8584 37.4211 69.8741 37.4203C73.9814 37.2222 77.309 36.1126 78.0521 31.1051C78.0542 31.0908 78.0553 31.076 78.0553 31.0616C78.4026 28.5219 78.2507 24.6365 78.2289 21.6845ZM69.6984 23.5729C68.1138 23.5729 66.8114 22.2923 66.8114 20.686V15.585V15.3029V10.2019C66.8114 8.61735 68.0921 7.31499 69.6984 7.31499C71.283 7.31499 72.5853 8.59563 72.5853 10.2019V15.3029V15.585V20.686C72.5636 22.2706 71.283 23.5729 69.6984 23.5729Z" fill="white"/>
<path d="M94.9207 31.7561C94.421 32.2554 93.8789 33.167 93.8789 34.1221C93.8789 36.64 96.3314 38.7455 98.9579 37.4865C101.215 36.4012 101.693 33.5143 99.8911 31.7127C98.5235 30.3452 96.2882 30.3886 94.9207 31.7561Z" fill="white"/>
<path d="M55.6779 12.1156C55.4337 11.3933 54.5035 11.1989 53.9906 11.7631L51.1884 14.8455C50.9441 15.1143 50.8647 15.4944 50.981 15.8385L52.3119 19.7742C52.6375 20.7076 52.4421 21.706 51.8778 22.444C51.4003 23.0735 50.6622 23.486 49.8374 23.551C49.6854 23.5727 42.7612 23.5727 42.6092 23.551C41.0898 23.4425 39.9177 22.1619 39.9177 20.5773V3.95189C39.9177 3.3996 39.47 2.95189 38.9177 2.95189H35.274C34.7217 2.95189 34.274 3.3996 34.274 3.95189V20.4905V20.7293C34.274 22.3138 32.9934 23.5945 31.3871 23.5945C29.8026 23.5945 28.5002 22.3138 28.5002 20.7076V2.99532C28.5002 2.97133 28.4808 2.95189 28.4568 2.95189C28.4568 2.95189 28.3483 2.95189 28.1529 2.95189H22.8349C22.8109 2.95189 22.7915 2.97133 22.7915 2.99532V20.7293C22.7915 22.3138 21.5108 23.6162 19.9046 23.6162C18.32 23.6162 17.0176 22.3355 17.0176 20.7293V3.95188C17.0176 3.3996 16.5699 2.95189 16.0176 2.95189H12.374C11.8218 2.95189 11.374 3.3996 11.374 3.95189V28.5435C11.374 30.128 10.0934 31.4304 8.48711 31.4304C6.88086 31.4304 5.64361 30.128 5.64361 28.5218V3.93018C5.64361 3.37789 5.19589 2.93018 4.64361 2.93018H1C0.447717 2.93018 0 3.37789 0 3.93018V29.3032C0 33.601 3.47299 37.074 7.77082 37.074H9.29027C13.588 37.074 17.0611 33.601 17.0611 29.3032C17.0611 29.1295 17.2278 29.0043 17.3967 29.0452C17.9703 29.184 18.5717 29.2598 19.1883 29.2598H20.7077C22.2998 29.2598 23.7839 28.7815 25.0169 27.9681C25.4158 27.7049 25.9411 27.7049 26.34 27.9681C27.573 28.7815 29.0571 29.2598 30.6491 29.2598H32.1685C33.8385 29.2598 35.3999 28.7323 36.6691 27.8215C37.0693 27.5343 37.6138 27.5182 38.0246 27.7901C39.3747 28.6837 40.9835 29.2196 42.7177 29.2381C42.7395 29.2381 42.7829 29.2381 42.8046 29.2381C42.848 29.2381 50.011 29.2381 50.0545 29.2381C50.7925 29.2381 51.5305 29.1295 52.2034 28.9342C52.3119 28.9125 52.4204 28.8691 52.529 28.8257C52.5598 28.8103 52.5905 28.8058 52.6213 28.7968C52.6469 28.7892 52.6734 28.7802 52.6975 28.7686C52.7145 28.7603 52.7337 28.7574 52.7516 28.7512C54.5165 28.1408 55.7034 26.9727 56.74 25.4395C56.7796 25.3799 56.8194 25.3204 56.8591 25.2608C56.8624 25.2558 56.8702 25.2331 56.8702 25.2271C56.8702 25.226 56.8705 25.2219 56.8711 25.221C56.9359 25.113 57.0007 25.0049 57.0656 24.8968C57.0972 24.8494 57.1288 24.7905 57.1604 24.7369C57.1826 24.6991 57.198 24.654 57.2175 24.6148C57.218 24.6137 57.2178 24.6142 57.2183 24.6131C57.4834 24.103 57.691 23.5546 57.841 22.9859C57.8452 22.9703 57.847 22.9706 57.847 22.9867C57.847 22.913 57.8805 22.8425 57.9007 22.7717C57.9102 22.7382 57.9198 22.7047 57.9293 22.6748C57.9322 22.6657 57.9338 22.6643 57.9338 22.6548C57.9338 22.6499 57.9342 22.637 57.935 22.6321C57.9571 22.5051 57.9993 22.3982 58.0206 22.2704C58.0424 22.1836 58.0424 22.1184 58.0641 22.0316C58.2594 20.8161 58.1726 19.5354 57.7602 18.2765L55.6779 12.1156Z" fill="white"/>
</svg>
