<svg width="212" height="222" viewBox="0 0 212 222" fill="none" xmlns="http://www.w3.org/2000/svg">
<path opacity="0.3" fill-rule="evenodd" clip-rule="evenodd" d="M264.725 103.116L275.088 113.475C283.293 121.532 287.754 132.467 287.754 143.977C287.898 155.488 283.436 166.437 275.376 174.623C275.28 174.729 275.184 174.822 275.088 174.915C275.04 174.961 274.992 175.007 274.945 175.055L264.725 185.27C260.695 189.299 258.392 194.766 258.392 200.536V215.341C258.392 239.225 238.962 258.663 215.069 258.663H200.244C194.487 258.663 189.018 260.951 184.988 264.979L174.625 275.339C166.133 283.842 155.05 288 143.967 288C132.885 288 121.802 283.842 113.31 275.497L102.803 264.979C98.7729 260.951 93.3035 258.663 87.5463 258.663H72.7214C48.8288 258.663 29.3981 239.225 29.3981 215.341V200.536C29.3981 194.766 27.0953 189.299 23.0652 185.127L12.7021 174.911C-4.13779 158.092 -4.28172 130.597 12.5582 113.633L23.0652 103.116C27.0953 99.087 29.3981 93.6196 29.3981 87.7206V73.045C29.3981 49.161 48.8288 29.7518 72.7214 29.7518H87.5463C93.3035 29.7518 98.7729 27.4353 102.803 23.4067L113.166 13.0474C130.006 -3.91588 157.497 -3.91588 174.481 12.9179L184.988 23.4067C189.018 27.4353 194.487 29.7518 200.244 29.7518H215.069C238.962 29.7518 258.392 49.161 258.392 73.045V87.8789C258.392 93.6196 260.695 99.087 264.725 103.116ZM106.833 193.759C110.287 193.759 113.454 192.464 115.756 190.018L189.737 116.079C194.631 111.187 194.631 103.116 189.737 98.2237C184.843 93.3462 176.927 93.3462 172.033 98.2237L98.0529 172.177C93.1592 177.069 93.1592 185.127 98.0529 190.018C100.356 192.464 103.522 193.759 106.833 193.759ZM168.293 181.098C168.293 188.148 173.906 193.76 180.958 193.76C187.867 193.76 193.48 188.148 193.48 181.098C193.48 174.206 187.867 168.581 180.958 168.581C173.906 168.581 168.293 174.206 168.293 181.098ZM106.977 94.6267C113.886 94.6267 119.499 100.238 119.499 107.144C119.499 114.209 113.886 119.805 106.977 119.805C100.068 119.805 94.311 114.209 94.311 107.144C94.311 100.238 100.068 94.6267 106.977 94.6267Z" fill="#EFF8FC"/>
</svg>