<svg width="93" height="93" viewBox="0 0 93 64" fill="none" xmlns="http://www.w3.org/2000/svg">
<path d="M90.7882 41.8592H83.9845C83.287 41.8592 82.7087 41.2555 82.7087 40.5276C82.7087 39.7996 83.287 39.1959 83.9845 39.1959H90.7882C91.4856 39.1959 92.064 39.7996 92.064 40.5276C92.064 41.2555 91.5026 41.8592 90.7882 41.8592Z" fill="#A19F9D"/>
<path d="M83.9845 52.5122H80.5824C79.885 52.5122 79.3066 51.9085 79.3066 51.1806C79.3066 50.4526 79.885 49.8489 80.5824 49.8489H83.9845C87.0289 49.8489 89.5124 47.2567 89.5124 44.0785V36.071C89.5124 33.5853 88.5768 31.2416 86.8928 29.4838L75.3091 17.3926C72.8766 14.8536 69.6446 13.451 66.2085 13.451H58.0435V49.8489H63.5719C64.2693 49.8489 64.8477 50.4526 64.8477 51.1806C64.8477 51.9085 64.2693 52.5122 63.5719 52.5122H56.7677C56.0702 52.5122 55.4919 51.9085 55.4919 51.1806V12.1194C55.4919 11.3914 56.0702 10.7877 56.7677 10.7877H66.2085C70.3251 10.7877 74.2034 12.4567 77.1122 15.5106L88.6959 27.6018C90.8732 29.8745 92.064 32.8751 92.064 36.071V44.0785C92.064 48.7304 88.4407 52.5122 83.9845 52.5122Z" fill="#A19F9D"/>
<path d="M21.0456 52.5122H17.6435C11.3156 52.5122 6.16144 47.1324 6.16144 40.5275V22.7724C6.16144 22.0445 6.73979 21.4408 7.43722 21.4408C8.13465 21.4408 8.71301 22.0445 8.71301 22.7724V40.5275C8.71301 45.6588 12.7275 49.849 17.6435 49.849H21.0456C21.743 49.849 22.3214 50.4526 22.3214 51.1806C22.3214 51.9085 21.7601 52.5122 21.0456 52.5122Z" fill="#A19F9D"/>
<path d="M56.7673 52.5122H38.0558C37.3583 52.5122 36.78 51.9086 36.78 51.1806C36.78 50.4527 37.3583 49.849 38.0558 49.849H55.4915V12.1194C55.4915 6.98817 51.477 2.79791 46.561 2.79791H11.2812C10.5838 2.79791 10.0054 2.19424 10.0054 1.46628C10.0054 0.738317 10.5838 0.134644 11.2812 0.134644H46.561C52.8889 0.134644 58.0431 5.51444 58.0431 12.1194V51.1806C58.0431 51.9263 57.4818 52.5122 56.7673 52.5122Z" fill="#A19F9D"/>
<path d="M88.7469 31.2061H66.974C64.3884 31.2061 62.2961 29.0222 62.2961 26.3234V22.7724C62.2961 20.0736 64.3884 17.8898 66.974 17.8898H78.8813C79.5788 17.8898 80.1571 18.4934 80.1571 19.2214C80.1571 19.9494 79.5788 20.553 78.8813 20.553H66.974C65.8002 20.553 64.8477 21.5473 64.8477 22.7724V26.3234C64.8477 27.5485 65.8002 28.5428 66.974 28.5428H88.7469C89.4443 28.5428 90.0227 29.1465 90.0227 29.8745C90.0227 30.6024 89.4614 31.2061 88.7469 31.2061Z" fill="#A19F9D"/>
<path d="M29.5509 63.1653C24.1585 63.1653 19.7698 58.5845 19.7698 52.9561C19.7698 47.3278 24.1585 42.7469 29.5509 42.7469C34.9432 42.7469 39.3319 47.3278 39.3319 52.9561C39.3319 58.5845 34.9602 63.1653 29.5509 63.1653ZM29.5509 45.4102C25.5704 45.4102 22.3214 48.8014 22.3214 52.9561C22.3214 57.1108 25.5704 60.5021 29.5509 60.5021C33.5313 60.5021 36.7803 57.1108 36.7803 52.9561C36.7803 48.8014 33.5483 45.4102 29.5509 45.4102Z" fill="#A19F9D"/>
<path d="M29.5509 56.0633C27.9179 56.0633 26.574 54.6606 26.574 52.9561C26.574 51.2517 27.9179 49.849 29.5509 49.849C31.1839 49.849 32.5277 51.2517 32.5277 52.9561C32.5277 54.6606 31.2009 56.0633 29.5509 56.0633ZM29.5509 52.5123C29.3127 52.5123 29.1256 52.7076 29.1256 52.9561C29.1256 53.4533 29.9761 53.4533 29.9761 52.9561C29.9761 52.7253 29.789 52.5123 29.5509 52.5123Z" fill="#A19F9D"/>
<path d="M72.0771 56.0633C70.4441 56.0633 69.1003 54.6606 69.1003 52.9561C69.1003 51.2517 70.4441 49.849 72.0771 49.849C73.7101 49.849 75.054 51.2517 75.054 52.9561C75.054 54.6606 73.7271 56.0633 72.0771 56.0633ZM72.0771 52.5123C71.839 52.5123 71.6519 52.7076 71.6519 52.9561C71.6519 53.4533 72.5024 53.4533 72.5024 52.9561C72.5024 52.7253 72.3153 52.5123 72.0771 52.5123Z" fill="#A19F9D"/>
<path d="M72.0771 63.1653C66.6848 63.1653 62.2961 58.5845 62.2961 52.9561C62.2961 47.3278 66.6848 42.7469 72.0771 42.7469C77.4694 42.7469 81.8582 47.3278 81.8582 52.9561C81.8582 58.5845 77.4865 63.1653 72.0771 63.1653ZM72.0771 45.4102C68.0967 45.4102 64.8477 48.8014 64.8477 52.9561C64.8477 57.1108 68.0967 60.5021 72.0771 60.5021C76.0576 60.5021 79.3066 57.1108 79.3066 52.9561C79.3066 48.8014 76.0746 45.4102 72.0771 45.4102Z" fill="#A19F9D"/>
<path d="M21.6582 10.4504H6.72293C6.0255 10.4504 5.44714 9.8467 5.44714 9.11874C5.44714 8.39078 6.0255 7.78711 6.72293 7.78711H21.6582C22.3556 7.78711 22.934 8.39078 22.934 9.11874C22.934 9.8467 22.3726 10.4504 21.6582 10.4504Z" fill="#0094D4"/>
<path d="M16.555 17.1442H1.61978C0.922352 17.1442 0.343994 16.5406 0.343994 15.8126C0.343994 15.0846 0.922352 14.481 1.61978 14.481H16.555C17.2525 14.481 17.8308 15.0846 17.8308 15.8126C17.8308 16.5406 17.2695 17.1442 16.555 17.1442Z" fill="#0094D4"/>
<path d="M56.7677 40.0837H7.43723C6.7398 40.0837 6.16144 39.48 6.16144 38.752C6.16144 38.0241 6.7398 37.4204 7.43723 37.4204H56.7677C57.4651 37.4204 58.0435 38.0241 58.0435 38.752C58.0435 39.48 57.4821 40.0837 56.7677 40.0837Z" fill="#A19F9D"/>
</svg>
