<svg width="78" height="87" viewBox="0 0 61 87" fill="none" xmlns="http://www.w3.org/2000/svg">
<path d="M22.9969 86.3613C22.5546 86.3613 22.1293 86.1128 21.9082 85.7044L15.7334 74.8915L5.01675 81.3544C4.57448 81.6207 4.01313 81.5852 3.60488 81.2656C3.19663 80.946 3.00952 80.3779 3.1456 79.863L9.86475 53.6919C10.0519 52.9817 10.7493 52.5556 11.4297 52.7509C12.1101 52.9462 12.5184 53.6742 12.3313 54.3844L6.37759 77.4483L15.5292 71.9442C16.1246 71.5713 16.9071 71.7844 17.2643 72.4236L22.5376 81.674L27.8108 61.4687C27.9979 60.7585 28.6954 60.3501 29.3758 60.5277C30.0562 60.723 30.4645 61.4509 30.2774 62.1611L24.2216 85.3848C24.0855 85.8997 23.6773 86.2726 23.167 86.3613C23.0989 86.3613 23.0479 86.3613 22.9969 86.3613Z" fill="#A19F9D"/>
<path d="M37.8122 86.3609C37.7611 86.3609 37.6931 86.3609 37.642 86.3432C37.1317 86.2721 36.7235 85.8815 36.5874 85.3666L30.5317 62.1429C30.3445 61.4327 30.7528 60.7048 31.4332 60.5095C32.1136 60.3142 32.8111 60.7403 32.9982 61.4505L38.2714 81.6558L43.5447 72.4054C43.9019 71.784 44.6674 71.5709 45.2798 71.926L54.4314 77.4301L48.5118 54.3662C48.3247 53.656 48.7329 52.928 49.4133 52.7327C50.0937 52.5374 50.7912 52.9636 50.9783 53.6738L57.6974 79.8448C57.8335 80.3597 57.6464 80.9101 57.2382 81.2474C56.8299 81.5848 56.2686 81.6203 55.8263 81.3362L45.1097 74.8734L38.9349 85.6862C38.6797 86.1301 38.2544 86.3609 37.8122 86.3609Z" fill="#A19F9D"/>
<path d="M30.3284 54.6859C18.1829 54.6859 8.28278 44.3702 8.28278 31.6753C8.28278 18.9804 18.1659 8.6825 30.3284 8.6825C42.4909 8.6825 52.374 18.9981 52.374 31.693C52.374 44.3879 42.4739 54.6859 30.3284 54.6859ZM30.3284 11.3458C19.5777 11.3458 10.8344 20.4718 10.8344 31.693C10.8344 42.9143 19.5777 52.0226 30.3284 52.0226C41.079 52.0226 49.8224 42.8965 49.8224 31.6753C49.8224 20.4541 41.062 11.3458 30.3284 11.3458Z" fill="#A19F9D"/>
<path d="M30.3282 62.9777C13.794 62.9777 0.355713 48.9334 0.355713 31.6932C0.355713 14.453 13.794 0.390991 30.3282 0.390991C46.8625 0.390991 60.3001 14.4353 60.3001 31.6755C60.3001 48.9157 46.8454 62.9777 30.3282 62.9777ZM30.3282 3.05425C15.2059 3.05425 2.90729 15.8912 2.90729 31.6755C2.90729 47.4597 15.2059 60.2967 30.3282 60.2967C45.4506 60.2967 57.7485 47.4597 57.7485 31.6755C57.7485 15.8912 45.4506 3.05425 30.3282 3.05425Z" fill="#A19F9D"/>
<path d="M24.97 40.2511H21.0236V27.1301L17.1452 28.3197V25.2126L24.6128 22.5138H24.97V40.2511Z" fill="#0094D4"/>
<path d="M41.9638 40.2508H30.1075V37.5698L35.5678 31.5686C36.9117 29.9706 37.5921 28.6922 37.5921 27.7512C37.5921 26.9877 37.439 26.4018 37.1158 26.0112C36.7926 25.6206 36.3333 25.4075 35.7209 25.4075C35.1256 25.4075 34.6323 25.6739 34.258 26.2065C33.8838 26.7392 33.6967 27.3961 33.6967 28.1951H29.7502C29.7502 27.112 30.0054 26.1 30.5327 25.1767C31.0601 24.2535 31.7745 23.5432 32.7101 23.0106C33.6286 22.4957 34.6663 22.2294 35.823 22.2294C37.6601 22.2294 39.072 22.6732 40.0756 23.561C41.0793 24.4488 41.5726 25.7094 41.5726 27.3783C41.5726 28.0708 41.4535 28.7632 41.1983 29.4202C40.9432 30.0771 40.5689 30.7696 40.0416 31.4975C39.5143 32.2255 38.6638 33.202 37.507 34.4094L35.3127 37.0549H41.9978V40.2508H41.9638Z" fill="#0094D4"/>
</svg>
