<svg width="78" height="87" viewBox="0 0 54 87" fill="none" xmlns="http://www.w3.org/2000/svg">
<path d="M26.9088 86.5998C12.3721 86.5998 0.537598 74.3132 0.537598 59.2214C0.537598 44.1295 12.3721 31.843 26.9088 31.843C41.4455 31.843 53.28 44.1295 53.28 59.2214C53.28 74.3132 41.4455 86.5998 26.9088 86.5998ZM26.9088 34.5063C13.7916 34.5063 3.10289 45.5855 3.10289 59.2214C3.10289 72.8573 13.7745 83.9365 26.9088 83.9365C40.0431 83.9365 50.7147 72.8573 50.7147 59.2214C50.7147 45.5855 40.026 34.5063 26.9088 34.5063Z" fill="#A19F9D"/>
<path d="M40.1793 38.4832C39.4781 38.4832 38.8966 37.8796 38.8966 37.1516V21.971C38.8966 15.0998 33.5097 9.50689 26.8912 9.50689C20.2728 9.50689 14.8855 15.0998 14.8855 21.971V37.0983C14.8855 37.8263 14.304 38.43 13.6028 38.43C12.9017 38.43 12.3202 37.8263 12.3202 37.0983V21.971C12.3202 13.6261 18.8533 6.84363 26.8912 6.84363C34.9292 6.84363 41.4619 13.6261 41.4619 21.971V37.1516C41.4619 37.8796 40.8976 38.4832 40.1793 38.4832Z" fill="#A19F9D"/>
<path d="M7.72076 43.1883C7.01958 43.1883 6.43811 42.5847 6.43811 41.8567V21.9532C6.43811 10.2349 15.6219 0.700439 26.9091 0.700439C38.1964 0.700439 47.3802 10.2349 47.3802 21.9532V41.7147C47.3802 42.4426 46.7987 43.0463 46.0975 43.0463C45.3964 43.0463 44.8149 42.4426 44.8149 41.7147V21.9532C44.8149 11.7086 36.777 3.3637 26.9091 3.3637C17.0413 3.3637 9.0034 11.7086 9.0034 21.9532V41.8567C9.0034 42.6024 8.42194 43.1883 7.72076 43.1883Z" fill="#A19F9D"/>
<path d="M26.9093 78.9291C16.4429 78.9291 7.92615 70.0871 7.92615 59.221C7.92615 48.3549 16.4429 39.5128 26.9093 39.5128C37.3757 39.5128 45.8925 48.3549 45.8925 59.221C45.8925 70.0871 37.3757 78.9291 26.9093 78.9291ZM26.9093 42.1583C17.8453 42.1583 10.4914 49.8108 10.4914 59.2032C10.4914 68.6134 17.8624 76.2481 26.9093 76.2481C35.9563 76.2481 43.3272 68.5957 43.3272 59.2032C43.3272 49.8108 35.9563 42.1583 26.9093 42.1583Z" fill="#A19F9D"/>
<path d="M24.9418 67.4421C24.6169 67.4421 24.2919 67.3178 24.0525 67.0693L18.6483 61.7072C18.1352 61.1923 18.1181 60.3578 18.6141 59.8252C19.11 59.2925 19.9138 59.2748 20.4269 59.7719L24.7537 64.0687L33.2362 51.5513C33.6467 50.9476 34.4505 50.8056 35.0148 51.2317C35.5963 51.6578 35.7331 52.4923 35.3227 53.0782L25.985 66.8738C25.7627 67.1936 25.4378 67.3889 25.0615 67.4244C25.0102 67.4421 24.976 67.4421 24.9418 67.4421Z" fill="#0094D4"/>
</svg>
