<svg width="78" height="87" viewBox="0 0 78 87" fill="none" xmlns="http://www.w3.org/2000/svg">
<path d="M15.9321 72.2886H14.5713C7.08663 72.2886 0.979858 65.8968 0.979858 58.0313C0.979858 50.1658 7.06962 43.7739 14.5713 43.7739H15.9321C16.6295 43.7739 17.2079 44.3776 17.2079 45.1056V70.957C17.2079 71.6849 16.6465 72.2886 15.9321 72.2886ZM14.5713 46.4194C8.48149 46.4194 3.53144 51.6217 3.53144 58.0135C3.53144 64.4054 8.48149 69.6076 14.5713 69.6076H14.6563V46.4194H14.5713Z" fill="#A19F9D"/>
<path d="M18.6708 75.1474C16.4594 75.1474 14.6563 73.2653 14.6563 70.9394V45.088C14.6563 42.762 16.4594 40.88 18.6708 40.88C20.8822 40.88 22.6853 42.762 22.6853 45.088V70.9394C22.6853 73.2653 20.8822 75.1474 18.6708 75.1474ZM18.6708 43.5433C17.8713 43.5433 17.2079 44.2357 17.2079 45.088V70.9394C17.2079 71.7916 17.8543 72.4841 18.6708 72.4841C19.4873 72.4841 20.1337 71.7916 20.1337 70.9394V45.088C20.1337 44.2357 19.4703 43.5433 18.6708 43.5433Z" fill="#A19F9D"/>
<path d="M63.7995 72.289H62.4386C61.7412 72.289 61.1628 71.6854 61.1628 70.9574V45.0882C61.1628 44.3603 61.7412 43.7566 62.4386 43.7566H63.7995C71.2841 43.7566 77.39 50.1484 77.39 58.0139C77.39 65.8794 71.2841 72.289 63.7995 72.289ZM63.7144 69.6258H63.7995C69.8892 69.6258 74.8384 64.4235 74.8384 58.0317C74.8384 51.6399 69.8892 46.4376 63.7995 46.4376H63.7144V69.6258Z" fill="#A19F9D"/>
<path d="M59.7004 75.1474C57.489 75.1474 55.6859 73.2653 55.6859 70.9394V45.088C55.6859 42.762 57.489 40.88 59.7004 40.88C61.9118 40.88 63.7149 42.762 63.7149 45.088V70.9394C63.7149 73.2653 61.9118 75.1474 59.7004 75.1474ZM59.7004 43.5433C58.9009 43.5433 58.2375 44.2357 58.2375 45.088V70.9394C58.2375 71.7916 58.8839 72.4841 59.7004 72.4841C60.4999 72.4841 61.1633 71.7916 61.1633 70.9394V45.088C61.1633 44.2357 60.4999 43.5433 59.7004 43.5433Z" fill="#A19F9D"/>
<path d="M70.6374 48.6037C69.94 48.6037 69.3616 48 69.3616 47.272V35.0388C69.3616 17.55 55.8212 3.32818 39.185 3.32818C22.5487 3.32818 9.00833 17.55 9.00833 35.0388V47.272C9.00833 48 8.42998 48.6037 7.73254 48.6037C7.03511 48.6037 6.45676 48 6.45676 47.272V35.0388C6.45676 16.0941 21.1368 0.664917 39.185 0.664917C57.2331 0.664917 71.9132 16.0763 71.9132 35.0388V47.272C71.9132 48 71.3518 48.6037 70.6374 48.6037Z" fill="#A19F9D"/>
<path d="M59.7009 83.7763H46.0245C45.3271 83.7763 44.7487 83.1727 44.7487 82.4447C44.7487 81.7168 45.3271 81.1131 46.0245 81.1131H59.7009C65.0252 81.1131 69.3629 76.55 69.3629 70.9572V68.7733C69.3629 68.0453 69.9413 67.4417 70.6387 67.4417C71.3361 67.4417 71.9145 68.0453 71.9145 68.7733V70.9572C71.9145 78.0237 66.4371 83.7763 59.7009 83.7763Z" fill="#A19F9D"/>
<path d="M43.2852 86.6529H37.8076C35.5963 86.6529 33.7932 84.7708 33.7932 82.4449C33.7932 80.119 35.5963 78.2369 37.8076 78.2369H43.2852C45.4966 78.2369 47.2997 80.119 47.2997 82.4449C47.2997 84.7708 45.4966 86.6529 43.2852 86.6529ZM37.8248 80.9002C37.0253 80.9002 36.3619 81.5927 36.3619 82.4449C36.3619 83.2972 37.0083 83.9896 37.8248 83.9896H43.3022C44.1017 83.9896 44.7649 83.2972 44.7649 82.4449C44.7649 81.5927 44.1187 80.9002 43.3022 80.9002H37.8248Z" fill="#0094D4"/>
</svg>
