<svg width="20" height="21" viewBox="0 0 20 21" fill="none" xmlns="http://www.w3.org/2000/svg">
<path d="M0 3.75C0 3.33579 0.335786 3 0.75 3C3.41341 3 6.00797 2.05652 8.55 0.15C8.81667 -0.05 9.18333 -0.05 9.45 0.15C11.992 2.05652 14.5866 3 17.25 3C17.6642 3 18 3.33579 18 3.75V9C18 9.3381 17.9865 9.67014 17.9595 9.9961C17.5062 9.71058 17.0152 9.4795 16.4955 9.31206C16.4985 9.20873 16.5 9.10471 16.5 9V4.47793C13.9227 4.32585 11.4192 3.38829 9 1.67782C6.58084 3.38829 4.07735 4.32585 1.5 4.47793V9C1.5 13.1488 3.83178 16.2214 8.62497 18.2846C8.88822 18.839 9.22764 19.3503 9.62971 19.8048C9.51265 19.8531 9.39437 19.9007 9.27489 19.9478C9.09824 20.0174 8.90176 20.0174 8.72511 19.9478C2.95756 17.6757 0 14.0012 0 9V3.75ZM20 15.5C20 18.5376 17.5376 21 14.5 21C11.4624 21 9 18.5376 9 15.5C9 12.4624 11.4624 10 14.5 10C17.5376 10 20 12.4624 20 15.5ZM17.8536 13.1464C17.6583 12.9512 17.3417 12.9512 17.1464 13.1464L13.5 16.7929L11.8536 15.1464C11.6583 14.9512 11.3417 14.9512 11.1464 15.1464C10.9512 15.3417 10.9512 15.6583 11.1464 15.8536L13.1464 17.8536C13.3417 18.0488 13.6583 18.0488 13.8536 17.8536L17.8536 13.8536C18.0488 13.6583 18.0488 13.3417 17.8536 13.1464Z" fill="#323130"/>
</svg>
