<svg width="65" height="64" viewBox="0 0 65 64" fill="none" xmlns="http://www.w3.org/2000/svg">
<path fill-rule="evenodd" clip-rule="evenodd" d="M32.5 56.0002C45.7546 56.0002 56.5 45.2548 56.5 32.0002C56.5 18.7455 45.7546 8.00016 32.5 8.00016C19.2453 8.00016 8.49998 18.7455 8.49998 32.0002C8.49998 45.2548 19.2453 56.0002 32.5 56.0002ZM32.5 58.6668C47.228 58.6668 59.1666 46.7282 59.1666 32.0002C59.1666 17.2722 47.228 5.3335 32.5 5.3335C17.772 5.3335 5.83331 17.2722 5.83331 32.0002C5.83331 46.7282 17.772 58.6668 32.5 58.6668Z" fill="#A19F9D"/>
<path d="M16.5 47.5069C16.5 46.1295 17.5293 44.9655 18.9 44.8135C29.1867 43.6749 35.86 43.7775 46.124 44.8389C46.6365 44.8927 47.1223 45.0946 47.522 45.42C47.9217 45.7453 48.218 46.18 48.3746 46.671C48.5313 47.162 48.5416 47.688 48.4043 48.1847C48.267 48.6814 47.988 49.1274 47.6013 49.4682C35.488 60.0269 28.5653 59.8815 17.3533 49.4789C16.8067 48.9722 16.5 48.2522 16.5 47.5082V47.5069Z" fill="#A19F9D"/>
<path fill-rule="evenodd" clip-rule="evenodd" d="M45.9866 46.1642C35.804 45.1109 29.2266 45.0122 19.0453 46.1389C18.7102 46.1779 18.4012 46.3392 18.1776 46.5919C17.9539 46.8445 17.8314 47.1708 17.8333 47.5082C17.8333 47.8895 17.992 48.2509 18.26 48.5015C23.8173 53.6562 28.028 55.9855 32.144 56.0002C36.2746 56.0149 40.712 53.7042 46.7253 48.4642C46.9163 48.2942 47.0539 48.0723 47.1212 47.8256C47.1885 47.5788 47.1826 47.3178 47.1044 47.0744C47.0262 46.8309 46.8789 46.6154 46.6804 46.454C46.482 46.2927 46.241 46.1924 45.9866 46.1655V46.1642ZM18.7533 43.4882C29.148 42.3375 35.9186 42.4415 46.2626 43.5122C47.0337 43.5927 47.7646 43.8962 48.3658 44.3857C48.967 44.8752 49.4124 45.5293 49.6476 46.268C49.8828 47.0068 49.8974 47.798 49.6898 48.545C49.4822 49.2919 49.0613 49.9621 48.4786 50.4735C42.3786 55.7909 37.2986 58.6869 32.136 58.6669C26.9586 58.6482 22.1026 55.7029 16.448 50.4562C16.0431 50.0791 15.7204 49.6225 15.4999 49.1151C15.2794 48.6076 15.166 48.0601 15.1666 47.5069C15.1647 46.5128 15.5296 45.5529 16.1914 44.8111C16.8532 44.0694 17.7654 43.5978 18.7533 43.4869V43.4882Z" fill="#A19F9D"/>
<path d="M43.1666 26.6667C43.1666 29.4956 42.0428 32.2088 40.0425 34.2091C38.0421 36.2095 35.329 37.3333 32.5 37.3333C29.671 37.3333 26.9579 36.2095 24.9575 34.2091C22.9571 32.2088 21.8333 29.4956 21.8333 26.6667C21.8333 23.8377 22.9571 21.1246 24.9575 19.1242C26.9579 17.1238 29.671 16 32.5 16C35.329 16 38.0421 17.1238 40.0425 19.1242C42.0428 21.1246 43.1666 23.8377 43.1666 26.6667Z" fill="#A19F9D"/>
<path fill-rule="evenodd" clip-rule="evenodd" d="M32.5 34.6667C34.6217 34.6667 36.6565 33.8238 38.1568 32.3235C39.6571 30.8232 40.5 28.7884 40.5 26.6667C40.5 24.5449 39.6571 22.5101 38.1568 21.0098C36.6565 19.5095 34.6217 18.6667 32.5 18.6667C30.3782 18.6667 28.3434 19.5095 26.8431 21.0098C25.3428 22.5101 24.5 24.5449 24.5 26.6667C24.5 28.7884 25.3428 30.8232 26.8431 32.3235C28.3434 33.8238 30.3782 34.6667 32.5 34.6667ZM32.5 37.3333C35.329 37.3333 38.0421 36.2095 40.0425 34.2091C42.0428 32.2088 43.1666 29.4956 43.1666 26.6667C43.1666 23.8377 42.0428 21.1246 40.0425 19.1242C38.0421 17.1238 35.329 16 32.5 16C29.671 16 26.9579 17.1238 24.9575 19.1242C22.9571 21.1246 21.8333 23.8377 21.8333 26.6667C21.8333 29.4956 22.9571 32.2088 24.9575 34.2091C26.9579 36.2095 29.671 37.3333 32.5 37.3333Z" fill="#A19F9D"/>
</svg>
