<svg width="91" height="36" viewBox="0 0 91 36" fill="none" xmlns="http://www.w3.org/2000/svg">
<path d="M50.3406 14.7566C50.082 13.9719 49.8133 13.0872 49.5323 12.3109C49.3718 11.882 49.2494 11.5371 49.0912 11.0717C48.9559 10.6416 48.7835 10.2241 48.6854 9.80524H48.5395C48.4044 10.3191 44.8127 13.4321 44.8127 13.6883C44.8127 13.9217 45.2048 14.9548 45.3037 15.2607L46.356 18.3706C46.7349 19.6481 47.1172 21.5749 45.5724 22.1167C45.3262 22.202 44.9219 22.2403 44.7022 22.2276C42.7396 22.081 39.7731 22.4724 38.7092 21.8714C38.2191 21.5878 37.9339 21.2818 37.6395 20.8031C37.3594 20.3344 37.1869 19.8801 37.0654 19.2548C36.9439 18.6524 36.7848 18.198 36.7848 17.4115V3.26872H31.7726V18.3944C31.7726 19.2292 31.5856 20.0655 31.2403 20.5328C30.3494 21.7718 27.9339 21.7718 27.0269 20.5678C26.6816 20.1139 26.4619 19.3293 26.4619 18.5542V3.26872H21.1545V17.1762C21.1545 18.5784 21.3742 18.9099 20.9459 20.0897C20.3333 21.7718 17.4891 21.8956 16.4849 20.5678C16.1415 20.1139 15.9218 19.3293 15.9218 18.5542V3.26872H10.542V25.5452C10.542 29.6986 6.77431 28.9962 5.89245 28.0023C5.52565 27.583 5.23457 26.76 5.23457 26.001V3.26872H0V26.233C0 27.2771 0.328723 28.5307 0.636039 29.3153C1.00284 30.2384 1.49577 30.9636 2.1423 31.6017C5.61372 35.0801 15.4661 34.6485 15.4661 25.927C17.5157 26.4039 19.5731 26.5294 21.6071 25.8397C22.2078 25.6448 23.3481 25.0907 23.6554 24.6364C24.5146 25.2003 24.8008 25.6192 26.5029 26.0494C28.3703 26.5216 30.3296 26.4522 32.1555 25.8334C33.3275 25.4388 33.1854 25.321 34.0506 24.8569C34.4174 25.1022 34.6885 25.3854 35.0919 25.6306C37.2983 27.0176 40.8033 26.6875 43.5981 26.6875C46.6995 26.6875 50.5979 26.1846 51.4539 22.7063C52.2302 19.611 51.271 17.5586 50.3406 14.7566V14.7566ZM63.9947 18.5913C63.9947 20.0395 62.8186 21.2191 61.3728 21.2191C59.9367 21.2191 58.7597 20.0395 58.7597 18.5913V9.14122C58.7597 7.70257 59.9367 6.52467 61.3728 6.52467C62.8186 6.52467 63.9947 7.70257 63.9947 9.14122V18.5913ZM65.3299 2.70474C64.1918 2.24894 63.3834 2.21333 62.0229 2.06492C61.6672 2.02786 60.6608 2.1648 60.281 2.21331C59.7046 2.27442 59.1522 2.42297 58.6871 2.58053C56.2351 3.39122 54.7293 5.49389 54.2633 8.02315C54.1501 8.61461 54.0662 9.16541 54.0662 9.80524V18.4816C54.0662 21.5156 55.3528 24.4769 58.1956 25.6657C59.7423 26.3203 61.5314 26.4153 63.2477 26.233C63.6031 26.1961 63.9089 26.096 64.2276 26.0736C64.2276 31.3213 62.2412 30.5591 56.5674 30.5591V34.0602C62.4017 34.0602 68.4336 35.0559 69.3764 28.4194C69.7074 26.0736 69.5484 22.4239 69.535 19.769L69.6074 10.1132C69.6074 6.96775 68.347 3.91771 65.3299 2.70474V2.70474ZM43.9287 13.4061C44.8269 12.5218 46.2836 10.727 47.1897 9.82771C47.7784 9.23983 48.8582 7.91352 49.4947 7.28514L55.1473 1.08208C55.3404 0.872854 55.3904 0.774672 55.5976 0.555433C55.7838 0.369967 55.9668 0.271796 56.0383 0.000896305H51.1853C50.0931 -0.0118402 50.5488 0.0977915 49.4218 1.20486C49.2118 1.4012 49.176 1.4643 49.0055 1.68483C48.8459 1.87988 48.6854 2.00368 48.513 2.18771L40.5952 10.9717C40.3989 11.2051 40.3623 11.2797 40.1307 11.5002C39.8712 11.7597 38.3516 13.3951 38.2911 13.6158H43.1459C43.659 13.6158 43.659 13.6883 43.9287 13.4061V13.4061ZM84.415 29.0592C83.9735 29.5004 83.4963 30.3111 83.4963 31.1715C83.4963 33.4076 85.6788 35.2751 87.9948 34.1571C90.0072 33.1869 90.4209 30.6202 88.8152 29.0221C87.6014 27.8073 85.6284 27.8425 84.415 29.0592ZM28.408 34.9284C28.264 34.9284 28.1393 34.9786 28.0393 35.0801C27.937 35.1833 27.8862 35.3058 27.8862 35.4492C27.8862 35.5939 27.937 35.7181 28.0393 35.8181C28.1393 35.9214 28.264 35.9712 28.408 35.9712C28.5492 35.9712 28.6716 35.9214 28.7739 35.8181C28.8762 35.7181 28.9294 35.5939 28.9294 35.4492C28.9294 35.3058 28.8762 35.1833 28.7739 35.0801C28.6716 34.9786 28.5492 34.9284 28.408 34.9284ZM26.9435 34.9284C26.7981 34.9284 26.6734 34.9786 26.5753 35.0801C26.4721 35.1833 26.4198 35.3058 26.4198 35.4492C26.4198 35.5939 26.4721 35.7181 26.5753 35.8181C26.6734 35.9214 26.7981 35.9712 26.9435 35.9712C27.0833 35.9712 27.2076 35.9214 27.308 35.8181C27.4097 35.7181 27.462 35.5939 27.462 35.4492C27.462 35.3058 27.4097 35.1833 27.308 35.0801C27.2076 34.9786 27.0833 34.9284 26.9435 34.9284ZM31.8767 32.1188C31.8584 32.0109 31.8387 31.9027 31.8212 31.7931C31.8001 31.6853 31.7795 31.5885 31.7612 31.503C31.7452 31.4132 31.7272 31.3392 31.7107 31.276C31.6946 31.2162 31.6856 31.1779 31.6814 31.1619L30.8587 31.4113C30.8684 31.4451 30.8794 31.4967 30.8955 31.5597C30.9121 31.6259 30.9299 31.6981 30.9478 31.7758C30.9619 31.8529 30.9784 31.9365 30.996 32.0238C31.0156 32.1124 31.0307 32.1978 31.0431 32.2814C31.0573 32.3668 31.0697 32.4458 31.078 32.5184C31.0849 32.5923 31.0918 32.6536 31.0918 32.7084C31.0918 32.8307 31.0697 32.9293 31.0307 33.0016C30.9899 33.0723 30.945 33.124 30.8928 33.1615C30.8395 33.1952 30.7868 33.2157 30.7346 33.2259C30.6813 33.2336 30.6405 33.2386 30.6149 33.2386H29.7973H29.2788C29.2562 33.2386 29.2173 33.2355 29.1568 33.2304C29.0985 33.224 29.0398 33.2061 28.9821 33.1756C28.9233 33.1469 28.8687 33.1034 28.8206 33.0454C28.7752 32.9824 28.7514 32.902 28.7514 32.7956V31.6822H27.882V32.8197C27.882 32.8664 27.8757 32.9148 27.8627 32.9664C27.8504 33.0129 27.8206 33.0564 27.7788 33.0965C27.734 33.1373 27.6706 33.1711 27.5867 33.1965C27.501 33.224 27.3878 33.2386 27.2465 33.2386H26.0319H24.6485C24.5344 33.2386 24.4317 33.2305 24.3413 33.2144C24.2491 33.1998 24.1593 33.1742 24.0777 33.1373C23.9938 33.1034 23.913 33.0519 23.8356 32.9888C23.7557 32.9277 23.677 32.8486 23.5893 32.7568C23.5023 32.6599 23.4082 32.5471 23.3083 32.4152C23.2042 32.2814 23.0878 32.127 22.9598 31.9529L21.8841 30.4914L24.6426 29.2218L24.2859 28.4211L21.1595 29.8955L20.9739 30.6508C21.0495 30.7444 21.1371 30.8573 21.2453 30.9911C21.3325 31.1039 21.4426 31.2487 21.5778 31.4259C21.7094 31.5999 21.8648 31.811 22.0414 32.0557C22.0885 32.1205 22.1303 32.1849 22.1688 32.2476C22.2059 32.3137 22.245 32.3764 22.2711 32.4394C22.3017 32.5006 22.3266 32.5604 22.3431 32.6165C22.3601 32.6732 22.3683 32.723 22.3683 32.7682C22.3683 32.7956 22.3664 32.8262 22.3601 32.8536C22.3568 32.8856 22.349 32.9116 22.3375 32.9276V32.9258C22.305 32.9792 22.25 33.0277 22.1743 33.0677C22.0964 33.108 21.9914 33.1417 21.8584 33.1711C21.7236 33.1984 21.5613 33.2209 21.3715 33.2355C21.1811 33.2513 20.9593 33.2578 20.7042 33.2578L18.6272 33.2464C18.5832 33.2464 18.5364 33.24 18.4832 33.2271C18.4278 33.2157 18.379 33.1902 18.3319 33.1565C18.2878 33.1194 18.248 33.0677 18.2173 32.997C18.1847 32.9276 18.1704 32.8372 18.1704 32.7243C18.1704 32.6599 18.1755 32.5878 18.1897 32.5006C18.2043 32.4137 18.2236 32.3233 18.242 32.2316C18.2667 32.138 18.287 32.0492 18.3112 31.9607C18.3319 31.8739 18.3562 31.7962 18.3755 31.7337L17.9633 31.6049L17.5473 31.4725C17.5391 31.4921 17.5216 31.5482 17.496 31.6355C17.4716 31.7241 17.4433 31.8306 17.4167 31.9529C17.3854 32.0753 17.3584 32.2024 17.3379 32.3393C17.3134 32.4781 17.3002 32.6038 17.3002 32.723C17.3002 32.855 17.3134 32.9806 17.341 33.0888C17.3644 33.1965 17.3992 33.2966 17.436 33.3834C17.4781 33.4674 17.5216 33.5433 17.5739 33.6077C17.6207 33.6688 17.672 33.725 17.7179 33.7684C17.8352 33.8811 17.9733 33.9666 18.1288 34.0264C18.2838 34.0827 18.4451 34.1133 18.619 34.1133L20.7002 34.1297C20.9624 34.1297 21.2128 34.1246 21.4531 34.1164C21.6901 34.1068 21.9084 34.0781 22.1078 34.0278C22.3082 33.9799 22.4848 33.9022 22.643 33.7959C22.8007 33.6898 22.9254 33.5414 23.0202 33.3497C23.1253 33.4674 23.2276 33.5739 23.3366 33.6671C23.4439 33.7607 23.5582 33.8396 23.6883 33.9055C23.8159 33.9716 23.9571 34.0214 24.1135 34.057C24.2706 34.0958 24.443 34.1133 24.6426 34.1133H24.6435H24.6485H24.6508H24.7182H26.1094H26.1117H27.2465C27.4735 34.1133 27.6757 34.0877 27.8564 34.0347C28.0361 33.9862 28.1916 33.9041 28.3203 33.7926C28.4337 33.8976 28.5716 33.978 28.735 34.0314C28.8963 34.0858 29.0775 34.1133 29.2788 34.1133H29.6556H30.5882C30.7487 34.1133 30.9092 34.0858 31.0697 34.0278C31.2311 33.9735 31.3728 33.8863 31.5025 33.7721C31.6314 33.6575 31.7354 33.514 31.8143 33.3336C31.8938 33.1578 31.935 32.9485 31.935 32.7084C31.935 32.6294 31.9277 32.5407 31.9166 32.4394C31.9084 32.3329 31.8938 32.2266 31.8767 32.1188V32.1188ZM31.376 30.1371C31.4856 30.0306 31.536 29.8999 31.536 29.7503C31.536 29.5971 31.4856 29.4683 31.376 29.3602C31.2678 29.2543 31.1422 29.2026 30.9909 29.2026C30.8395 29.2026 30.7079 29.2543 30.6016 29.3602C30.4934 29.4683 30.4411 29.5971 30.4411 29.7503C30.4411 29.8999 30.4934 30.0306 30.6016 30.1371C30.7079 30.2434 30.8395 30.2982 30.9909 30.2982C31.1422 30.2982 31.2678 30.2434 31.376 30.1371ZM34.776 33.2386H34.2376C34.1565 33.2386 34.0763 33.229 33.9966 33.2061C33.919 33.1852 33.8484 33.1532 33.7833 33.1067C33.7187 33.0614 33.6654 33.0016 33.6237 32.9276C33.5857 32.8549 33.5632 32.7682 33.5632 32.665C33.5632 32.4037 33.6214 32.2105 33.7402 32.0863C33.8566 31.9607 34.0108 31.9013 34.2121 31.9013C34.2363 31.9013 34.2652 31.9027 34.3019 31.9091C34.3395 31.9123 34.3807 31.9256 34.4184 31.9448C34.4623 31.964 34.5031 31.9913 34.5473 32.0284C34.5889 32.0671 34.6279 32.1174 34.6636 32.1799C34.6952 32.2443 34.7251 32.322 34.7425 32.4183C34.7649 32.5119 34.776 32.6261 34.776 32.7599V33.2386V33.2386ZM35.3083 31.5209C35.1959 31.3665 35.0465 31.2437 34.8659 31.1568C34.6829 31.0682 34.4674 31.0249 34.2121 31.0249C34.0047 31.0249 33.815 31.062 33.638 31.1391C33.4601 31.215 33.2996 31.3227 33.1607 31.4629C33.112 31.5163 33.0584 31.5807 33.0057 31.6516C32.9534 31.7222 32.9034 31.8077 32.8594 31.9027C32.8167 31.9996 32.7818 32.1105 32.7529 32.2366C32.7255 32.3589 32.7121 32.5038 32.7121 32.665C32.7121 32.8518 32.7337 33.0194 32.7786 33.1646C32.8171 33.3094 32.8776 33.435 32.9525 33.5414C33.0249 33.6492 33.112 33.7365 33.2088 33.8105C33.311 33.8812 33.416 33.941 33.5298 33.9895C33.6407 34.0329 33.7595 34.0653 33.8792 34.0827C34.0006 34.1037 34.1198 34.1133 34.2376 34.1133H34.776C34.7668 34.2904 34.736 34.4325 34.6862 34.5389C34.6371 34.6435 34.5636 34.7352 34.4642 34.8143C34.4008 34.8692 34.3284 34.9175 34.2409 34.9545C34.1565 34.9947 34.0589 35.0239 33.9424 35.0495C33.83 35.072 33.7012 35.0915 33.553 35.1061C33.4101 35.1189 33.2413 35.1253 33.0538 35.1253V36C33.2977 36 33.5183 35.989 33.7095 35.9694C33.9016 35.9488 34.0763 35.9181 34.2336 35.8762C34.3918 35.8328 34.532 35.7812 34.6567 35.7199C34.7843 35.6588 34.8975 35.5843 35.008 35.5007C35.2212 35.3313 35.3817 35.1253 35.4872 34.8883C35.593 34.6499 35.6453 34.3567 35.6453 34.0054V32.7599C35.6453 32.5119 35.6202 32.2814 35.5646 32.069C35.5096 31.8579 35.4267 31.6739 35.3083 31.5209V31.5209ZM43.5665 30.5412C43.6673 30.4384 43.715 30.3142 43.715 30.1709C43.715 30.0293 43.6673 29.9032 43.5665 29.8051C43.4627 29.7005 43.3413 29.6502 43.1991 29.6502C43.0524 29.6502 42.9304 29.7005 42.8273 29.8051C42.725 29.9032 42.6773 30.0293 42.6773 30.1709C42.6773 30.3142 42.725 30.4384 42.8273 30.5412C42.9304 30.6431 43.0524 30.696 43.1991 30.696C43.3413 30.696 43.4627 30.6431 43.5665 30.5412ZM42.0991 30.5412C42.2008 30.4384 42.2531 30.3142 42.2531 30.1709C42.2531 30.0293 42.2008 29.9032 42.0991 29.8051C41.9968 29.7005 41.8776 29.6502 41.7346 29.6502C41.5884 29.6502 41.4645 29.7005 41.3637 29.8051C41.2609 29.9032 41.2105 30.0293 41.2105 30.1709C41.2105 30.3142 41.2609 30.4384 41.3637 30.5412C41.4645 30.6431 41.5884 30.696 41.7346 30.696C41.8776 30.696 41.9968 30.6431 42.0991 30.5412ZM49.524 32.6407C49.524 32.7586 49.5162 32.8518 49.4988 32.9212C49.4823 32.9887 49.4524 33.0417 49.4172 33.0742C49.3631 33.1258 49.27 33.1678 49.1388 33.1953C49.0114 33.224 48.8348 33.2367 48.613 33.2367C48.469 33.2367 48.3383 33.2113 48.2196 33.166C48.1022 33.1175 47.9866 33.0486 47.8775 32.9581C47.7702 32.8645 47.6639 32.7554 47.5524 32.6215C47.4484 32.491 47.3287 32.3362 47.203 32.1672C46.9816 31.8721 46.7619 31.5776 46.5432 31.2856C46.3267 30.9957 46.1049 30.701 45.8861 30.4078L48.5456 29.172L48.1906 28.3727L45.1464 29.8516L44.9993 30.5654C45.174 30.7815 45.3487 30.9976 45.5224 31.2085C45.6944 31.4227 45.8453 31.6222 45.9833 31.8127C46.1213 31.9996 46.2304 32.1753 46.3143 32.3266C46.4001 32.4827 46.4432 32.6102 46.4432 32.7134C46.4378 32.8084 46.4051 32.892 46.347 32.96C46.2919 33.0289 46.2162 33.0838 46.1212 33.124C46.025 33.1661 45.9118 33.1934 45.782 33.2113C45.6513 33.229 45.5092 33.2386 45.3537 33.2386H44.2097H43.8347C43.8103 33.2386 43.7705 33.2355 43.7121 33.229C43.654 33.224 43.5958 33.2061 43.5376 33.1774C43.4774 33.1482 43.4238 33.1034 43.3761 33.0435C43.3303 32.9837 43.3068 32.9002 43.3068 32.7956V31.6803H42.437V32.8212C42.437 32.8664 42.4293 32.9162 42.4197 32.9646C42.4044 33.0112 42.3778 33.0581 42.3339 33.0984C42.2899 33.1386 42.227 33.1723 42.1427 33.1984C42.0569 33.2259 41.9428 33.2386 41.7997 33.2386H40.6657H39.2751H39.1989H39.1435C39.1209 33.2386 39.0843 33.2336 39.0261 33.2194C38.973 33.208 38.9146 33.1852 38.8523 33.1482C38.7931 33.1144 38.7409 33.0614 38.6982 32.9952C38.651 32.9294 38.6267 32.8422 38.6267 32.7357V31.6853H37.7559V33.8251C37.7559 34.0602 37.7303 34.2617 37.6785 34.4274C37.6266 34.5918 37.5487 34.7275 37.4423 34.8302C37.3382 34.9321 37.2035 35.0076 37.0388 35.0545C36.8775 35.1011 36.6835 35.1253 36.4565 35.1253H36.02V36H36.4565C36.7742 36 37.0623 35.9502 37.3158 35.8564C37.5711 35.7583 37.7917 35.6245 37.9747 35.4492C38.1576 35.2733 38.3049 35.0641 38.4154 34.8175C38.5235 34.5741 38.5928 34.2986 38.6235 33.9972C38.7041 34.052 38.7857 34.0845 38.8707 34.0941C38.9564 34.1068 39.0481 34.115 39.1435 34.115H39.1989H39.2751H40.5868H41.7997C42.0284 34.115 42.2316 34.0858 42.4118 34.0379C42.5893 33.9845 42.7457 33.9022 42.8754 33.7913C42.9869 33.899 43.1267 33.9799 43.2903 34.0328C43.4518 34.0858 43.6324 34.115 43.8347 34.115H44.3509H45.3785C45.5307 34.115 45.6839 34.1004 45.8394 34.0781C46.0168 34.052 46.1869 34.0072 46.3436 33.9424C46.5018 33.8812 46.6413 33.7976 46.7627 33.6963C46.8857 33.5898 46.9782 33.4656 47.0337 33.319C47.1379 33.4382 47.2396 33.5464 47.3419 33.646C47.445 33.7396 47.5538 33.8232 47.6779 33.8926C47.7976 33.962 47.9357 34.0151 48.088 34.0539C48.2296 34.0927 48.3997 34.11 48.5895 34.1118V34.115C48.5979 34.115 48.6038 34.1118 48.612 34.1118C48.6171 34.1118 48.6199 34.115 48.6253 34.115H48.7285V34.11C48.8527 34.1068 48.9693 34.1004 49.0756 34.0895C49.2218 34.0698 49.3507 34.0489 49.4672 34.0151C49.5823 33.983 49.6878 33.9392 49.7767 33.8913C49.8684 33.8396 49.9514 33.7817 50.0238 33.714C50.1046 33.635 50.1701 33.5496 50.2178 33.4579C50.2678 33.3674 50.3059 33.2757 50.3314 33.1838C50.3567 33.0888 50.3732 32.9952 50.3814 32.9052C50.3898 32.8134 50.3925 32.723 50.3925 32.6407V29.0465H49.524V32.6407V32.6407ZM51.5654 34.1133H52.4388V29.0446H51.5654V34.1133ZM91 3.43458V18.551C91 20.7967 90.1677 23.0027 89.0481 24.1258C87.1589 26.0029 85.494 26.312 82.8121 26.312C81.8657 26.312 81.4787 26.138 80.84 26.08C80.84 30.6673 79.5112 33.1852 75.3969 33.8428C74.1515 34.0635 72.6764 34.1375 71.1867 34.1329C71.0702 34.1329 70.9762 34.036 70.9762 33.9201L70.9743 30.5527C73.0208 30.5527 75.0474 30.6673 75.4349 27.9571C75.7078 26.1571 75.4542 18.5702 75.4542 16.1131V3.43458H80.7643V18.4752C80.7643 19.4612 80.9014 19.9253 81.2884 20.5455C81.9436 21.6667 84.0074 21.6667 84.9544 21.0676C85.8838 20.4876 86.0749 19.2096 86.0749 18.0271V3.43458H91V3.43458Z" fill="#A19F9D"/>
</svg>
