<svg width="20" height="19" viewBox="0 0 20 19" fill="none" xmlns="http://www.w3.org/2000/svg">
<path d="M2.25 0C1.00736 0 0 1.00736 0 2.25V14.25C0 15.4218 0.895757 16.3844 2.03987 16.4903C2.27391 17.9139 3.51012 19 5 19C6.4865 19 7.72048 17.9189 7.95852 16.5H10.0415C10.2795 17.9189 11.5135 19 13 19C14.4865 19 15.7205 17.9189 15.9585 16.5H17.75C18.9926 16.5 20 15.4926 20 14.25V8.8373C20 8.50416 19.926 8.17518 19.7834 7.8741L18.0842 4.28681C17.7119 3.501 16.9203 3 16.0508 3H14.5V2.25C14.5 1.00736 13.4926 0 12.25 0H2.25ZM15.8293 15C15.5897 14.3222 15.1136 13.7563 14.5 13.4013V9.5L18.5 9.5V12.5001H17.25C16.8358 12.5001 16.5 12.8358 16.5 13.2501C16.5 13.6643 16.8358 14.0001 17.25 14.0001H18.5V14.25C18.5 14.6642 18.1642 15 17.75 15H15.8293ZM13 13C11.6938 13 10.5825 13.8348 10.1707 15H7.82929C7.41746 13.8348 6.30622 13 5 13C3.69527 13 2.58509 13.8329 2.17212 14.996C1.7945 14.957 1.5 14.6379 1.5 14.25V2.25C1.5 1.83579 1.83579 1.5 2.25 1.5H12.25C12.6642 1.5 13 1.83579 13 2.25V13ZM14.5 4.5H16.0508C16.3406 4.5 16.6045 4.667 16.7286 4.92894L18.1833 8L14.5 8V4.5ZM5 17.5C4.17157 17.5 3.5 16.8284 3.5 16C3.5 15.1716 4.17157 14.5 5 14.5C5.82843 14.5 6.5 15.1716 6.5 16C6.5 16.8284 5.82843 17.5 5 17.5ZM14.5 16C14.5 16.8284 13.8284 17.5 13 17.5C12.1716 17.5 11.5 16.8284 11.5 16C11.5 15.1716 12.1716 14.5 13 14.5C13.8284 14.5 14.5 15.1716 14.5 16Z" fill="#212121"/>
</svg>
