<svg width="50" height="40" viewBox="0 0 50 40" fill="none" xmlns="http://www.w3.org/2000/svg">
<g clip-path="url(#clip0_683_804)">
<path d="M22.6523 10.9883C22.6523 10.9883 22.4453 10.3906 21.9961 10.1836C21.5508 9.97656 20.8047 9.94531 20.8047 9.94531L19.5547 24.7305L20.5703 32.0273C20.5703 32.0273 20.8672 32.8906 21.6445 32.9219C22.418 32.9531 28.8594 32.9219 29.4258 32.9219C29.9922 32.9219 30.1719 32.1758 30.1992 31.8477C30.2305 31.5195 30.2188 30.9688 30.2188 30.9688L32.9688 30.957C32.9688 30.957 33.1289 32.1289 32.8633 32.8672C32.6328 33.5078 32.4258 34.0195 32.4297 34.2383C32.4336 34.5508 32.8477 34.8633 33.3242 34.8359C33.8008 34.8047 34.5156 34.1797 34.9922 33.793C35.4688 33.4063 43.1094 33.4961 43.1094 33.4961C43.1094 33.4961 43.4766 34.1758 43.8867 34.5859C44.1328 34.832 44.5312 34.9531 44.8906 34.9531C45.25 34.9531 45.6953 34.4766 45.6055 34.1484C45.5156 33.8203 45.1094 33.0664 45.0391 32.332C45.0078 32 45.0469 31.0742 45.2109 30.9219C45.25 30.8867 45.8438 30.9062 46.3984 30.8477C47.3438 30.75 48.2891 29.5273 48.4062 28.5742C48.5273 27.6211 48.4375 24.6094 48.4375 24.6094L22.6523 10.9883Z" fill="#B3AFAF"/>
<path d="M20.3203 27.543H48.457C48.457 27.543 48.5234 28.332 48.3867 28.8398C48.3142 29.1094 48.1909 29.3626 48.0234 29.5859L20.4805 29.582L20.3203 27.543Z" fill="#9A9A9A"/>
<path d="M10.4492 26.2656L4.49219 28.1094L1.51562 27.082C1.51562 27.082 1.62109 21.4805 1.65625 20.9141C1.69141 20.3477 1.83203 19.8516 2.36719 19.4961C2.89844 19.1406 4.38672 18.2539 4.38672 18.2539C4.38672 18.2539 8.96094 10.9141 9.35156 10.3828C9.74219 9.85158 10.2227 9.20314 11.3594 9.09767C12.4961 8.9922 19.5117 9.07814 20.1484 9.11329C20.7852 9.14845 21.2617 9.43751 21.2617 10.8203C21.2617 12.2031 21.2266 22.7578 21.1914 23.2891C21.1562 23.8203 18.4961 25.7695 18.4961 25.7695L10.4492 26.2656Z" fill="#E0E0E0"/>
<path d="M19.1206 32.9805C19.1206 32.9805 19.6909 32.9961 20.0855 32.9414C20.48 32.8867 21.0737 32.4922 21.1011 31.5586C21.1167 31.0039 21.1909 23.2891 21.1909 23.2891L10.5659 23.3125L7.12842 27.0742L1.51514 27.082C1.51514 27.082 1.4917 29.2891 1.50732 29.8789C1.52295 30.4727 4.57764 31.7656 4.57764 31.7656L19.1206 32.9805Z" fill="#DC0D28"/>
<path d="M1.50805 29.8789H7.90649C7.90649 29.8789 9.27758 27.1445 13.219 27.1914C19.0081 27.2617 19.1252 32.9765 19.1252 32.9765H4.04711C3.19946 32.9765 1.98852 32.6953 1.67993 31.625C1.41821 30.7265 1.50805 29.8789 1.50805 29.8789Z" fill="#B10A1B"/>
<path d="M5.42615 19.7891C5.42615 19.7891 5.42615 19.1523 5.00818 19.1289C4.59022 19.1055 4.12928 19.3672 3.71131 19.7226C3.2699 20.0976 3.05115 20.4375 2.96522 20.7344C2.8324 21.1758 2.94178 21.5703 3.62537 21.5898C4.46131 21.6172 17.7347 21.5312 18.348 21.4805C19.1176 21.4141 19.5785 21.0859 19.5551 20.5117C19.5355 19.9609 19.1371 19.7851 17.4887 19.7656C15.8402 19.7461 5.42615 19.7891 5.42615 19.7891Z" fill="white"/>
<path d="M1.64062 21.6523C1.64062 21.6523 5.62891 21.5273 5.71484 21.6249C5.83594 21.7695 5.85938 23.6523 5.81641 23.9374C5.77344 24.2226 5.39844 24.4218 4.9375 24.4413C4.47656 24.4609 1.57422 24.5078 1.57422 24.5078L1.64062 21.6523Z" fill="#FDEDC5"/>
<path d="M18.0626 19.1055C18.6798 19.1055 18.8985 18.4024 18.8985 17.918V11.7891C18.8985 11.3047 18.5899 11.043 17.6251 10.9961C16.6564 10.9532 12.2423 11.0039 11.7579 11.0196C11.0118 11.043 10.504 11.3711 9.82432 12.3164C9.38291 12.9297 6.66026 17.4375 6.44151 17.8086C6.22276 18.1836 5.95713 19.1719 7.10166 19.1914C8.28526 19.2149 18.0626 19.1055 18.0626 19.1055Z" fill="#5F6369"/>
<path d="M7.66797 18.0742H17.5117C17.7109 18.0742 17.8867 17.8554 17.8867 17.5898C17.8867 17.3242 17.9023 13.1757 17.9102 12.9296C17.9336 12.2499 17.4258 12.0937 16.9883 12.1171C16.5469 12.1406 12.1016 12.1249 11.8398 12.1367C11.3359 12.1601 10.8359 12.8359 10.3984 13.5039C9.87109 14.3124 7.66797 18.0742 7.66797 18.0742Z" fill="#AFE3FB"/>
<path d="M7.82085 18.8008C7.86382 19.7891 9.44585 20.6016 9.84429 20.625C10.2388 20.6484 10.481 19.8789 10.524 18.8437C10.5669 17.8086 10.1529 16.9531 9.82085 16.9531C9.49272 16.9531 7.78569 17.9648 7.82085 18.8008Z" fill="#5F6369"/>
<path d="M8.16377 33.6015C8.19502 35.5547 9.7497 38.3633 13.1325 38.3828C16.5153 38.4023 18.2731 35.8086 18.1638 33.1484C18.0544 30.4453 15.9567 28.5351 12.9372 28.6211C10.113 28.707 8.1208 30.9023 8.16377 33.6015Z" fill="#4E433D"/>
<path d="M10.5823 33.4882C10.5979 34.5156 11.4143 36 13.1956 36.0117C14.9768 36.0234 15.8362 34.7343 15.7815 33.332C15.7229 31.9062 14.5862 30.8437 13.094 30.8671C11.6096 30.8867 10.5628 32.0625 10.5823 33.4882Z" fill="#C8C8C8"/>
<path d="M33.945 33.6015C33.9763 35.5547 35.531 38.3633 38.9138 38.3828C42.2966 38.4023 44.0544 35.8086 43.945 33.1484C43.8356 30.4453 41.738 28.5351 38.7185 28.6211C35.8942 28.707 33.902 30.9023 33.945 33.6015Z" fill="#4E433D"/>
<path d="M36.3636 33.4882C36.3792 34.5156 37.1956 36 38.9768 36.0117C40.7542 36.0234 41.6175 34.7343 41.5628 33.332C41.5042 31.9062 40.3675 30.8437 38.8753 30.8671C37.3909 30.8867 36.344 32.0625 36.3636 33.4882Z" fill="#C8C8C8"/>
<path d="M22.2148 1.17969C22.2148 0.15625 22.6641 -0.253907 23.4844 -0.210938C24.3047 -0.171875 46.7852 -0.292969 47.5195 -0.292969C48.2539 -0.292969 48.543 0.484375 48.543 0.933594C48.543 1.38281 48.4023 24.1719 48.4336 24.6133C48.4609 25.0547 48.3398 25.668 47.5625 25.75C46.7852 25.832 23.7305 25.7891 23.2383 25.75C22.7461 25.7109 22.1328 25.3008 22.1328 24.7266C22.1328 24.1484 22.2148 1.71094 22.2148 1.17969Z" fill="#FDB913"/>
<path d="M24.2617 2.07812C24.2617 2.60937 24.0977 22.5117 24.0977 23.0039C24.0977 23.4961 24.3438 24.0703 25 24.0703C25.6563 24.0703 45.8008 24.1094 46.2109 24.0703C46.6211 24.0312 46.8672 23.7852 46.9063 23.1289C46.9453 22.4727 46.9453 2.49219 46.9453 1.83594C46.9453 1.17969 46.2891 1.14062 45.5938 1.14062C44.8984 1.14062 25.2031 1.17969 24.9141 1.22266C24.6289 1.25781 24.2617 1.54687 24.2617 2.07812Z" fill="#F15A29"/>
<path d="M29.0821 24.7656C29.0586 17.5586 29.0079 0.75 29.0899 0.292969L29.668 0.398438L30.25 0.46875C30.1954 1.11328 30.2227 15.3477 30.2539 24.7617L29.0821 24.7656ZM35.0586 0.359375H36.2305V24.8047H35.0586V0.359375ZM40.9727 0.378906H42.1446V24.7031H40.9727V0.378906Z" fill="#FDB913"/>
</g>
<defs>
<clipPath id="clip0_683_804">
<rect width="50" height="40" fill="white"/>
</clipPath>
</defs>
</svg>
